<svg width="13" height="17" viewBox="0 0 13 17" fill="none" xmlns="http://www.w3.org/2000/svg">
<path d="M6.05216 0C2.71493 0 0 2.71493 0 6.05216C0 7.15081 0.492717 8.33241 0.513366 8.38225C0.672502 8.75997 0.986503 9.34668 1.21292 9.69058L5.36257 15.9781C5.53239 16.2358 5.78373 16.3836 6.05216 16.3836C6.32059 16.3836 6.57194 16.2358 6.74175 15.9784L10.8918 9.69058C11.1185 9.34668 11.4322 8.75997 11.5913 8.38225C11.612 8.33276 12.1043 7.15117 12.1043 6.05216C12.1043 2.71493 9.3894 0 6.05216 0ZM10.9348 8.10598C10.7928 8.44455 10.5005 8.99031 10.2972 9.29861L6.14722 15.5865C6.06534 15.7107 6.03935 15.7107 5.95746 15.5865L1.80746 9.29861C1.60418 8.99031 1.3119 8.44419 1.16985 8.10563C1.1638 8.09103 0.712019 7.00342 0.712019 6.05216C0.712019 3.10761 3.10761 0.712019 6.05216 0.712019C8.99672 0.712019 11.3923 3.10761 11.3923 6.05216C11.3923 7.00485 10.9395 8.0953 10.9348 8.10598Z" fill="#818181"/>
<path d="M6.05272 2.84863C4.28584 2.84863 2.84863 4.2862 2.84863 6.05272C2.84863 7.81924 4.28584 9.25681 6.05272 9.25681C7.81959 9.25681 9.2568 7.81924 9.2568 6.05272C9.2568 4.2862 7.81959 2.84863 6.05272 2.84863ZM6.05272 8.54479C4.67888 8.54479 3.56065 7.42692 3.56065 6.05272C3.56065 4.67852 4.67888 3.56065 6.05272 3.56065C7.42656 3.56065 8.54479 4.67852 8.54479 6.05272C8.54479 7.42692 7.42656 8.54479 6.05272 8.54479Z" fill="#818181"/>
</svg>
