<svg width="18" height="24" viewBox="0 0 18 24" fill="none" xmlns="http://www.w3.org/2000/svg">
<path d="M9 0C4.0373 0 0 4.0373 0 9C0 11.7913 1.44398 15.0331 4.29225 18.6353C6.37658 21.2711 8.4308 23.0931 8.517 23.1693C8.79116 23.4109 9.20506 23.4142 9.483 23.1693C9.5692 23.0931 11.6234 21.2711 13.7077 18.6353C16.556 15.0331 18 11.7913 18 9C18 4.0373 13.9627 0 9 0V0ZM4.98642 12.7705V9.64044C4.98642 9.4456 4.75787 9.34052 4.60996 9.46731L4.36659 9.67592C4.06056 9.93818 3.59991 9.9026 3.33766 9.59657C3.07541 9.29053 3.11098 8.82988 3.41702 8.56763L8.52521 4.18918C8.79841 3.9552 9.20159 3.9552 9.47479 4.18918L14.583 8.56763C14.889 8.82988 14.9246 9.29053 14.6623 9.59657C14.3984 9.90374 13.9382 9.93713 13.6334 9.67592L13.39 9.46731C13.2421 9.34052 13.0136 9.4456 13.0136 9.64044V12.7705C13.0136 13.1735 12.6869 13.5002 12.2838 13.5002H5.71616C5.31312 13.5002 4.98642 13.1735 4.98642 12.7705Z" fill="#F4F4F4"/>
<path d="M6.44629 7.99668V11.811C6.44629 11.9369 6.54841 12.039 6.67433 12.039H11.3264C11.4524 12.039 11.5545 11.9369 11.5545 11.811V7.99668C11.5545 7.93009 11.5254 7.86688 11.4749 7.82355L9.1488 5.8298C9.06342 5.7566 8.9374 5.7566 8.85198 5.8298L6.52592 7.82355C6.47539 7.86683 6.44629 7.93009 6.44629 7.99668Z" fill="#F4F4F4"/>
</svg>
