<svg width="57" height="40" viewBox="0 0 57 40" fill="none" xmlns="http://www.w3.org/2000/svg">
<path d="M28.6113 0C12.9328 0 0 5.23373 0 11.6895C0 14.5762 2.55402 17.2137 6.76579 19.2532C7.63641 14.0878 17.1967 10.0195 28.6113 10.0195C40.0259 10.0195 49.3636 14.0878 50.2342 19.2532C54.446 17.2137 57 14.5762 57 11.6895C57 5.23373 44.2899 0 28.6113 0Z" fill="white"/>
<path d="M44.9652 24.5739C47.0604 25.1906 49.097 26.0108 51.0052 27.0971C52.3124 27.8399 53.3692 28.9079 54.1154 30.1577C55.9445 28.6126 57 26.8836 57 25.0488V15.0293C57 18.9754 52.2376 22.4574 44.9652 24.5739Z" fill="white"/>
<path d="M18.6844 35.9833C18.6422 35.6815 18.5918 35.3819 18.5918 35.0684V28.3887C18.5918 27.5511 18.7644 26.7575 19.0467 26.0182C8.08216 24.4013 0 20.1008 0 15.0293V25.0488C0 30.0642 7.90951 34.3256 18.6844 35.9833Z" fill="white"/>
<path d="M38.2869 37.0818C40.4178 37.4401 42.5039 38.0716 44.4382 39.0231C46.199 39.8885 48.119 39.7354 49.6241 38.7978C51.1066 37.8781 51.9902 36.2751 51.9902 34.5104C51.9902 32.653 50.9809 30.9244 49.3531 29.9999C46.0103 28.096 42.2555 27.0401 38.4234 26.814C38.5469 27.321 38.6309 27.8437 38.6309 28.3886V35.0683C38.6309 35.7746 38.4908 36.4425 38.2869 37.0818Z" fill="white"/>
<path d="M26.9414 33.3984H21.9316V35.0684C21.9316 36.9127 23.4267 38.4082 25.2715 38.4082H31.9512C33.7959 38.4082 35.291 36.9127 35.291 35.0684V28.3887C35.291 26.5439 33.7959 25.0488 31.9512 25.0488H25.2715C23.4267 25.0488 21.9316 26.5439 21.9316 28.3887V30.0586H26.9414C27.8642 30.0586 28.6113 30.8057 28.6113 31.7285C28.6113 32.6513 27.8642 33.3984 26.9414 33.3984Z" fill="white"/>
</svg>
