<svg xmlns="http://www.w3.org/2000/svg" width="50" height="50" viewBox="0 0 50 50">
    <defs>
        <filter id="Path_5269" width="50" height="50" x="0" y="0" filterUnits="userSpaceOnUse">
            <feOffset dy="3"/>
            <feGaussianBlur result="blur" stdDeviation="3"/>
            <feFlood flood-opacity=".161"/>
            <feComposite in2="blur" operator="in"/>
            <feComposite in="SourceGraphic"/>
        </filter>
        <style>
            .cls-2{fill:#555}
        </style>
    </defs>
    <g id="Group_4387" transform="translate(-11 -590)">
        <g filter="url(#Path_5269)" transform="translate(11 590)">
            <path id="Path_5269-2" fill="#fff" d="M16 0A16 16 0 1 1 0 16 16 16 0 0 1 16 0z" transform="translate(9 6)"/>
        </g>
        <g id="Group_4386" transform="translate(1113 601)">
            <path id="Icon_ionic-ios-time" d="M8.856 3.375a5.481 5.481 0 1 1-5.481 5.481 5.48 5.48 0 0 1 5.481-5.481zM8.487 9.33a.37.37 0 0 0 .369.369h2.53a.369.369 0 1 0 0-.738H9.225V5.483a.369.369 0 1 0-.738 0z" class="cls-2" transform="translate(-1080.438 7.634)"/>
            <path id="Subtraction_1" d="M9.494 19.788H1.855A1.857 1.857 0 0 1 0 17.933V7.884a.464.464 0 0 1 .464-.464h16.387a.464.464 0 0 1 .464.464v2.209a6.877 6.877 0 0 0-8.52 6.672 6.8 6.8 0 0 0 .7 3.022zm7.357-13.6H.464A.465.465 0 0 1 0 5.72V4.329a1.857 1.857 0 0 1 1.855-1.855H3.71V.464A.464.464 0 0 1 4.174 0H5.72a.464.464 0 0 1 .464.464v2.01h4.947V.464A.464.464 0 0 1 11.6 0h1.546a.464.464 0 0 1 .454.464v2.01h1.86a1.857 1.857 0 0 1 1.855 1.855V5.72a.464.464 0 0 1-.464.464z" class="cls-2" transform="translate(-1087)"/>
        </g>
    </g>
</svg>
