<svg width="19" height="19" viewBox="0 0 19 19" fill="none" xmlns="http://www.w3.org/2000/svg">
<path d="M14.3992 13.6738C13.1833 13.6738 12.1807 14.6551 12.1807 15.8924C12.1807 17.1083 13.1619 18.1109 14.3992 18.1109C15.6151 18.1109 16.6177 17.1296 16.6177 15.8924C16.5964 14.6764 15.6151 13.6738 14.3992 13.6738Z" fill="#F4F4F4"/>
<path d="M18.3028 3.09314C18.2602 3.09314 18.1962 3.07181 18.1322 3.07181H4.69304L4.47972 1.64256C4.35173 0.703956 3.54111 0 2.58117 0H0.85328C0.383976 0 0 0.383976 0 0.85328C0 1.32258 0.383976 1.70656 0.85328 1.70656H2.58117C2.68783 1.70656 2.77316 1.79189 2.79449 1.89855L4.11707 10.9006C4.28773 12.0312 5.269 12.8845 6.42093 12.8845H15.295C16.4043 12.8845 17.3642 12.0952 17.5989 11.0073L18.9855 4.07441C19.0708 3.62644 18.7722 3.17847 18.3028 3.09314Z" fill="#F4F4F4"/>
<path d="M8.95948 15.7857C8.91681 14.6124 7.93554 13.6738 6.76228 13.6738C5.52503 13.7378 4.58642 14.7618 4.62908 15.9777C4.67175 17.1509 5.63169 18.0896 6.80495 18.0896H6.84761C8.06353 18.0256 9.02347 17.0016 8.95948 15.7857Z" fill="#F4F4F4"/>
</svg>
