<svg width="36" height="33" viewBox="0 0 36 33" fill="none" xmlns="http://www.w3.org/2000/svg">
<path d="M2.32909 26.8117L0 32.7072H9.67425L13.7521 30.252L6.31355 24.4131L2.32909 26.8117Z" fill="#9B9B9B"/>
<path d="M6.48867 16.2827L3.60449 23.5828L15.7301 16.2827H6.48867Z" fill="#9B9B9B"/>
<path d="M13.7632 32.7073H31.3399L23.7102 26.7192L13.7632 32.7073Z" fill="#9B9B9B"/>
<path d="M31.7267 21.8916L25.6431 25.5547L34.7545 32.7068H35.9998L31.7267 21.8916Z" fill="#9B9B9B"/>
<path d="M19.5576 16.2827L19.587 16.3058L27.1099 22.2101L30.9419 19.9035L29.5109 16.2827H19.5576Z" fill="#9B9B9B"/>
<path d="M15.8351 18.6811L8.24609 23.2492L15.6855 29.0884L25.1762 23.3744L17.9434 17.697V12.4392L28.738 7.12296L17.9434 1.80615V0H15.8351V18.6811Z" fill="#9B9B9B"/>
</svg>
