<svg width="32" height="33" viewBox="0 0 32 33" fill="none" xmlns="http://www.w3.org/2000/svg">
<path d="M30.9781 8.00981C30.9781 7.97558 30.9781 7.97558 30.9781 7.94135C30.9439 7.87289 30.9439 7.80443 30.9096 7.73597V7.70174C30.8754 7.63328 30.8069 7.56482 30.7727 7.53059L30.7385 7.49636C30.7043 7.46213 30.6358 7.4279 30.6016 7.39367L30.5673 7.35944H30.5331L30.4989 7.32521L15.9512 0.10269C15.6773 -0.03423 15.335 -0.03423 15.0269 0.10269L10.1321 2.53302L24.7482 10.0294L24.7825 10.0636C24.8167 10.0636 24.8167 10.0978 24.8509 10.0978C24.8852 10.1321 24.8852 10.1663 24.9194 10.2005C24.9194 10.2348 24.9194 10.2348 24.9194 10.269V10.3032V18.2446C24.9194 18.3815 24.8509 18.4842 24.7482 18.5526L21.8045 20.093C21.6333 20.1957 21.4279 20.1272 21.3253 19.9561C21.291 19.9218 21.291 19.8534 21.291 19.7849V12.0147L6.50369 4.38143L6.46946 4.3472L0.547679 7.29098L0.513449 7.32521H0.479219L0.444989 7.35944C0.410759 7.39367 0.342299 7.4279 0.308069 7.46213L0.27384 7.49636C0.20538 7.56482 0.17115 7.63328 0.10269 7.70174V7.73597C0.0684599 7.80443 0.0342299 7.87289 0.0342299 7.94135C0.0342299 7.97558 0.0342299 7.97558 0.0342299 8.00981C0.0342299 8.07827 0 8.1125 0 8.18096V8.21519V24.1663C0 24.5429 0.20538 24.9194 0.581909 25.0905L14.9927 32.2788C15.1981 32.3815 15.4377 32.4158 15.6773 32.3473L15.7458 32.3131C15.8142 32.3131 15.8485 32.2788 15.9169 32.2446L30.4304 25.0563C30.7727 24.8852 31.0123 24.5429 31.0123 24.1321V8.21519V8.18096C30.9781 8.1125 30.9781 8.07827 30.9781 8.00981Z" fill="#F4F4F4"/>
</svg>
