<svg width="12" height="13" viewBox="0 0 12 13" fill="none" xmlns="http://www.w3.org/2000/svg">
<path d="M11.8243 4.17575C11.59 3.94142 11.2101 3.94142 10.9757 4.17575L3.78737 11.3642L1.02428 8.60109C0.789972 8.36676 0.410097 8.36679 0.175746 8.60109C-0.058582 8.8354 -0.058582 9.21527 0.175746 9.4496L3.3631 12.6369C3.59734 12.8712 3.97749 12.871 4.21163 12.6369L11.8243 5.02428C12.0586 4.78997 12.0586 4.41007 11.8243 4.17575Z" fill="#3A4385"/>
<path d="M11.8243 0.175746C11.59 -0.058582 11.2101 -0.058582 10.9757 0.175746L3.78737 7.36418L1.02428 4.60109C0.789972 4.36676 0.410097 4.36679 0.175746 4.60109C-0.058582 4.8354 -0.058582 5.21527 0.175746 5.4496L3.3631 8.63691C3.59734 8.87121 3.97749 8.87105 4.21163 8.63691L11.8243 1.02428C12.0586 0.789972 12.0586 0.410074 11.8243 0.175746Z" fill="#3A4385"/>
</svg>
