<svg width="20" height="20" viewBox="0 0 20 20" fill="none" xmlns="http://www.w3.org/2000/svg">
<path d="M19.1029 0.674042L19.0788 0.652086C18.6185 0.231598 18.0218 0 17.3986 0C16.6999 0 16.0292 0.295746 15.5582 0.811338L6.65248 10.5613C6.5713 10.6501 6.50973 10.755 6.47167 10.8691L5.42449 14.0084C5.30342 14.3713 5.36418 14.7727 5.58701 15.0821C5.81162 15.3938 6.17346 15.5799 6.55502 15.5799H6.55508C6.72012 15.5799 6.88144 15.546 7.03444 15.4791L10.0664 14.1526C10.1767 14.1044 10.2756 14.0336 10.3567 13.9448L19.2624 4.1949C20.1891 3.1804 20.1177 1.60106 19.1029 0.674042ZM7.43085 13.4285L8.04533 11.5864L8.09715 11.5296L9.2618 12.5934L9.20997 12.6501L7.43085 13.4285ZM17.9926 3.03502L10.4217 11.3236L9.25704 10.2599L16.828 1.97122C16.9761 1.8091 17.1787 1.71979 17.3986 1.71979C17.5915 1.71979 17.7763 1.79156 17.9193 1.92215L17.9433 1.9441C18.2577 2.23125 18.2798 2.72065 17.9926 3.03502Z" fill="#878787"/>
<path d="M17.3752 7.93318C16.9003 7.93318 16.5153 8.31819 16.5153 8.79308V16.0934C16.5153 17.2992 15.5343 18.2802 14.3285 18.2802H3.90661C2.70075 18.2802 1.71979 17.2992 1.71979 16.0934V5.75622C1.71979 4.55042 2.70081 3.5694 3.90661 3.5694H11.45C11.9249 3.5694 12.3099 3.18439 12.3099 2.7095C12.3099 2.23461 11.9249 1.84961 11.45 1.84961H3.90661C1.75246 1.84961 0 3.60213 0 5.75622V16.0933C0 18.2474 1.75252 20 3.90661 20H14.3284C16.4825 20 18.235 18.2474 18.235 16.0933V8.79308C18.2351 8.31819 17.8501 7.93318 17.3752 7.93318Z" fill="#878787"/>
</svg>
