<svg xmlns="http://www.w3.org/2000/svg" width="50" height="50" viewBox="0 0 50 50">
    <defs>
        <filter id="rjnyxtnyoa" width="50" height="50" x="0" y="0" filterUnits="userSpaceOnUse">
            <feOffset dy="3"/>
            <feGaussianBlur result="blur" stdDeviation="3"/>
            <feFlood flood-opacity=".161"/>
            <feComposite in2="blur" operator="in"/>
            <feComposite in="SourceGraphic"/>
        </filter>
    </defs>
    <g>
        <g filter="url(#rjnyxtnyoa)" transform="translate(-2295 -3353) translate(2295 3353)">
            <circle cx="16" cy="16" r="16" fill="#fff" transform="translate(9 6)"/>
        </g>
        <g>
            <g>
                <path fill="none" stroke="#555" stroke-width="1.5px" d="M16.156 30a5.209 5.209 0 0 0-3.256 1.124 7.41 7.41 0 0 0-1.9 2.289 7.41 7.41 0 0 0-1.9-2.289A5.209 5.209 0 0 0 5.844 30C2.512 30 0 32.725 0 36.338c0 3.9 3.134 6.575 7.879 10.618.806.687 1.719 1.465 2.668 2.3a.688.688 0 0 0 .905 0c.949-.83 1.863-1.609 2.669-2.3C18.866 42.913 22 40.242 22 36.338 22 32.725 19.488 30 16.156 30z" transform="translate(-2295 -3353) translate(2309 3337) translate(0 30) translate(0 -30)"/>
            </g>
        </g>
    </g>
</svg>
