<svg width="12" height="20" viewBox="0 0 12 20" fill="none" xmlns="http://www.w3.org/2000/svg">
<path d="M12 6.03104C12 2.7055 9.31833 0 6.02214 0C2.717 0 0 2.72191 0 6.03104C0 9.10896 2.34872 11.6514 5.35793 11.9812V16.0089H3.36531C2.99849 16.0089 2.70111 16.3067 2.70111 16.6741C2.70111 17.0414 2.99849 17.3392 3.36531 17.3392H5.35793V19.3348C5.35793 19.7022 5.65532 20 6.02214 20C6.38896 20 6.68635 19.7022 6.68635 19.3348V17.3392H8.67897C9.04579 17.3392 9.34317 17.0414 9.34317 16.6741C9.34317 16.3067 9.04579 16.0089 8.67897 16.0089H6.68635V11.9806C9.67111 11.6486 12 9.10727 12 6.03104ZM1.32841 6.03104C1.32841 3.43907 3.43404 1.33038 6.02214 1.33038C8.58584 1.33038 10.6716 3.43907 10.6716 6.03104C10.6716 8.59854 8.58584 10.6874 6.02214 10.6874C3.43404 10.6874 1.32841 8.59854 1.32841 6.03104Z" fill="black"/>
</svg>
