<svg width="21" height="19" viewBox="0 0 21 19" fill="none" xmlns="http://www.w3.org/2000/svg">
<path d="M19.9266 1.73775H7.57146C7.23178 0.728889 6.27754 0 5.1556 0C4.03366 0 3.07942 0.728889 2.73974 1.73775H0.811199C0.363201 1.73775 0 2.10095 0 2.54895C0 2.99695 0.363201 3.36015 0.811199 3.36015H2.7398C3.07947 4.36901 4.03371 5.0979 5.15565 5.0979C6.2776 5.0979 7.23184 4.36901 7.57151 3.36015H19.9267C20.3747 3.36015 20.7379 2.99695 20.7379 2.54895C20.7379 2.10095 20.3747 1.73775 19.9266 1.73775ZM5.1556 3.4755C4.64471 3.4755 4.22905 3.05984 4.22905 2.54895C4.22905 2.03806 4.64471 1.6224 5.1556 1.6224C5.66649 1.6224 6.08215 2.03806 6.08215 2.54895C6.08215 3.05984 5.66649 3.4755 5.1556 3.4755Z" fill="#818181"/>
<path d="M19.9266 8.68892H17.998C17.6583 7.68006 16.704 6.95117 15.5822 6.95117C14.4603 6.95117 13.506 7.68006 13.1664 8.68892H0.811199C0.363201 8.68892 0 9.05212 0 9.50012C0 9.94812 0.363201 10.3113 0.811199 10.3113H13.1664C13.506 11.3202 14.4603 12.0491 15.5822 12.0491C16.7041 12.0491 17.6584 11.3202 17.9981 10.3113H19.9267C20.3747 10.3113 20.7379 9.94812 20.7379 9.50012C20.7379 9.05212 20.3747 8.68892 19.9266 8.68892ZM15.5822 10.4267C15.0713 10.4267 14.6557 10.011 14.6557 9.50012C14.6557 8.98923 15.0713 8.57357 15.5822 8.57357C16.0931 8.57357 16.5088 8.98923 16.5088 9.50012C16.5088 10.011 16.0931 10.4267 15.5822 10.4267Z" fill="#818181"/>
<path d="M19.9266 15.6396H11.047C10.7073 14.6307 9.7531 13.9019 8.63116 13.9019C7.50921 13.9019 6.55497 14.6307 6.2153 15.6396H0.811199C0.363201 15.6396 0 16.0028 0 16.4508C0 16.8988 0.363201 17.262 0.811199 17.262H6.2153C6.55497 18.2709 7.50921 18.9998 8.63116 18.9998C9.7531 18.9998 10.7073 18.2709 11.047 17.262H19.9267C20.3747 17.262 20.7379 16.8988 20.7379 16.4508C20.7379 16.0028 20.3747 15.6396 19.9266 15.6396ZM8.63116 17.3774C8.12026 17.3774 7.7046 16.9618 7.7046 16.4509C7.7046 15.94 8.12026 15.5243 8.63116 15.5243C9.14205 15.5243 9.55771 15.9399 9.55771 16.4508C9.55771 16.9617 9.14205 17.3774 8.63116 17.3774Z" fill="#818181"/>
</svg>
