<svg width="59" height="24" viewBox="0 0 59 24" fill="none" xmlns="http://www.w3.org/2000/svg">
<path d="M58.0169 9.83333H57.0237C56.9244 4.39448 52.4768 0 47.0154 0H43.2669H41.2579H17.7512H15.7335H11.9939C6.53243 0 2.08483 4.39448 1.9855 9.83333H0.983299C0.439506 9.83333 0 10.2728 0 10.8166C0 11.3594 0.439506 11.7999 0.983299 11.7999H1.97547V13.276C1.97547 17.2604 4.19973 20.8211 7.78112 22.5685C9.23642 23.2795 10.7901 23.6286 12.332 23.6286C14.5848 23.6286 16.815 22.8832 18.6795 21.4278L23.7593 17.462C27.0959 14.8581 28.3624 10.5904 26.9847 6.58821C26.9709 6.54591 26.9522 6.50662 26.9374 6.46525C28.5619 5.69525 30.442 5.71196 32.0546 6.5095C32.0448 6.536 32.033 6.56066 32.0232 6.58821C30.6465 10.5904 31.913 14.858 35.2495 17.4629L40.3305 21.4277C42.1948 22.883 44.4241 23.6284 46.6769 23.6284C48.2187 23.6284 49.7725 23.2794 51.2278 22.5694C54.8081 20.8211 57.0334 17.2604 57.0334 13.276V11.7999H58.0167C58.5605 11.7999 59 11.3594 59 10.8166C59.0002 10.2728 58.5607 9.83333 58.0169 9.83333ZM9.83333 6.88332H7.86674C7.32294 6.88332 6.88344 6.44278 6.88344 5.90002C6.88344 5.35623 7.32294 4.91672 7.86674 4.91672H9.83345C10.3772 4.91672 10.8167 5.35623 10.8167 5.90002C10.8167 6.44278 10.3771 6.88332 9.83333 6.88332ZM32.8887 4.72878C30.748 3.68256 28.2513 3.66873 26.0968 4.68948C25.4556 3.61768 24.6287 2.70018 23.663 1.9666H35.3461C34.3687 2.70802 33.5347 3.64027 32.8887 4.72878ZM52.1169 11.0015C51.5731 11.0015 51.1336 10.5609 51.1336 10.0182C51.1336 7.74666 49.2859 5.89991 47.0154 5.89991C46.4716 5.89991 46.0321 5.45937 46.0321 4.91661C46.0321 4.37282 46.4716 3.93331 47.0154 3.93331C50.3705 3.93331 53.1002 6.66311 53.1002 10.0182C53.1002 10.5609 52.6607 11.0015 52.1169 11.0015Z" fill="white"/>
</svg>
