<svg xmlns="http://www.w3.org/2000/svg" xmlns:xlink="http://www.w3.org/1999/xlink" width="194.968" height="194.968" viewBox="0 0 194.968 194.968">
  <defs>
    <filter id="back" x="0" y="0" width="194.968" height="194.968" filterUnits="userSpaceOnUse">
      <feOffset dy="3" input="SourceAlpha"/>
      <feGaussianBlur stdDeviation="25" result="blur"/>
      <feFlood flood-opacity="0.161"/>
      <feComposite operator="in" in2="blur"/>
      <feComposite in="SourceGraphic"/>
    </filter>
  </defs>
  <g id="Group_4143" data-name="Group 4143" transform="translate(-1485 -3971)">
    <g transform="matrix(1, 0, 0, 1, 1485, 3971)" filter="url(#back)">
      <path id="back-2" data-name="back" d="M0,22.484A22.484,22.484,0,1,1,22.484,44.968,22.484,22.484,0,0,1,0,22.484Z" transform="translate(75 72)" fill="#fff"/>
    </g>
    <g id="gmail" transform="translate(1569 3992.73)">
      <rect id="Rectangle_17546" data-name="Rectangle 17546" width="20" height="20" transform="translate(2.7 63.27)" fill="#eceff1"/>
      <path id="Path_5207" data-name="Path 5207" d="M256,156l9.525,7.522V148.672Z" transform="translate(-243.3 -80.726)" fill="#cfd8dc"/>
      <path id="Path_5208" data-name="Path 5208" d="M23.019,64h-.794L12.7,71.522,3.175,64H2.381A2.382,2.382,0,0,0,0,66.381V80.669A2.382,2.382,0,0,0,2.381,83.05h.794V68.2L12.7,75.527,22.225,68.2V83.05h.794A2.382,2.382,0,0,0,25.4,80.669V66.381A2.382,2.382,0,0,0,23.019,64Z" transform="translate(0 -0.255)" fill="#f44336"/>
    </g>
  </g>
</svg>
