<svg width="18" height="16" viewBox="0 0 18 16" fill="none" xmlns="http://www.w3.org/2000/svg">
<path d="M15.8103 1.50407C14.9197 0.546796 13.6718 0.00211943 12.3643 0.000100237C11.0557 0.00161463 9.80646 0.546003 8.91448 1.50346L8.61048 1.82469L8.30648 1.50346C6.53655 -0.401467 3.55745 -0.510864 1.65256 1.25907C1.56815 1.33753 1.48663 1.41901 1.40817 1.50346C-0.46939 3.52864 -0.46939 6.65846 1.40817 8.68363L8.16373 15.8078C8.39746 16.0545 8.78694 16.0651 9.03368 15.8314C9.04176 15.8237 9.04962 15.8159 9.05726 15.8078L15.8104 8.68363C17.6878 6.65867 17.6878 3.52903 15.8103 1.50407ZM14.9199 7.83626H14.9193L8.61048 14.4903L2.30108 7.83626C0.866738 6.28884 0.866738 3.89764 2.30108 2.35022C3.60364 0.938448 5.80409 0.849928 7.21587 2.15249C7.28441 2.21573 7.35036 2.28168 7.41361 2.35022L8.16373 3.1416C8.41094 3.38722 8.81006 3.38722 9.05726 3.1416L9.80739 2.35084C11.11 0.939061 13.3104 0.85054 14.7222 2.1531C14.7907 2.21634 14.8567 2.28229 14.9199 2.35084C16.3667 3.90071 16.3773 6.29626 14.9199 7.83626Z" fill="#050A30"/>
</svg>
