<svg width="25" height="19" viewBox="0 0 25 19" fill="none" xmlns="http://www.w3.org/2000/svg">
<path d="M16.2702 12.3287C16.2702 11.8576 15.8882 11.4756 15.4171 11.4756C14.946 11.4756 14.564 11.8576 14.564 12.3287V12.9671H16.2702V12.3287Z" fill="#F4F4F4"/>
<path d="M18.3328 19.0002C19.1443 18.994 19.8003 18.3365 19.8048 17.5248V8.35199C19.8008 7.53957 19.145 6.88115 18.3328 6.87354H1.46251C0.651989 6.88187 -0.000475817 7.54147 2.60365e-07 8.35199V17.5248C2.60365e-07 18.3346 0.652703 18.993 1.46251 19.0002H18.3328ZM13.8329 12.3289C13.8329 11.4539 14.5423 10.7445 15.4173 10.7445C16.2923 10.7445 17.0017 11.4539 17.0017 12.3289V13.3446C17.0024 13.4398 16.9646 13.5312 16.8965 13.5979C16.8286 13.6645 16.7365 13.701 16.6415 13.6986H14.204C14.1076 13.7014 14.0143 13.6655 13.9446 13.5991C13.8748 13.5324 13.8346 13.441 13.8329 13.3446V12.3289ZM7.46014 14.9173H12.3352C12.5377 14.919 12.701 15.084 12.7008 15.2865C12.7006 16.8347 11.4451 18.0897 9.89718 18.0892C8.34898 18.089 7.09427 16.8338 7.09451 15.2856C7.09427 15.0833 7.25757 14.9185 7.46014 14.9173ZM2.80315 12.3289C2.80315 11.4539 3.5125 10.7445 4.38753 10.7445C5.26257 10.7445 5.97192 11.4539 5.97192 12.3289V13.3446C5.96383 13.5472 5.79387 13.705 5.5913 13.6986H3.15378C3.05951 13.7005 2.96882 13.6638 2.90241 13.5969C2.836 13.5301 2.80029 13.4389 2.80315 13.3446V12.3289Z" fill="#F4F4F4"/>
<path d="M9.89767 17.3547C10.9012 17.3557 11.761 16.6365 11.9372 15.6484H7.85791C8.03406 16.6365 8.89386 17.3557 9.89767 17.3547Z" fill="#F4F4F4"/>
<path d="M5.24044 12.3287C5.24044 11.8576 4.85839 11.4756 4.38731 11.4756C3.91623 11.4756 3.53418 11.8576 3.53418 12.3287V12.9671H5.24044V12.3287Z" fill="#F4F4F4"/>
<path d="M20.5361 9.47412V16.4022C22.3083 16.2149 23.6535 14.7203 23.6535 12.9381C23.6535 11.1561 22.3083 9.66146 20.5361 9.47412Z" fill="#F4F4F4"/>
<path d="M6.21582 4.69953V6.14181H13.5893V4.69953C13.5931 4.56195 13.4881 4.44578 13.351 4.43555H6.44458C6.31032 4.43555 6.21582 4.56504 6.21582 4.69953Z" fill="#F4F4F4"/>
<path d="M22.085 0C20.8182 0.000476108 19.7896 1.02357 19.7822 2.29017C19.7822 3.42824 20.6577 4.37492 21.6937 4.55059V9.61558H22.4249V4.55059C23.6042 4.3673 24.4449 3.3085 24.3559 2.11831C24.2669 0.928114 23.2785 0.00618904 22.085 0Z" fill="#F4F4F4"/>
<path d="M9.87198 1.9375C9.67012 1.9375 9.50635 2.10103 9.50635 2.30313V4.07033H10.2376V2.30313C10.2376 2.10103 10.0738 1.9375 9.87198 1.9375Z" fill="#F4F4F4"/>
</svg>
