<svg width="25" height="23" viewBox="0 0 25 23" fill="none" xmlns="http://www.w3.org/2000/svg">
<path d="M23.904 10.3958L14.5282 1.01955C13.1683 -0.339849 10.9566 -0.339849 9.59669 1.01955L0.220872 10.3958C-0.0736241 10.6903 -0.0736241 11.1677 0.220872 11.4622C0.514897 11.7566 0.992688 11.7566 1.28671 11.4622L1.88466 10.8642V20.4483C1.88466 21.6454 2.85508 22.6158 4.05215 22.6158H7.8217C8.08195 22.6158 8.2929 22.4048 8.2929 22.1446V15.1709C8.2929 13.8698 9.34771 12.8149 10.6489 12.8149H13.476C14.7772 12.8149 15.832 13.8698 15.832 15.1709V22.1446C15.832 22.4048 16.043 22.6158 16.3032 22.6158H20.0728C21.2698 22.6158 22.2402 21.6454 22.2402 20.4483V10.8642L22.8382 11.4622C22.9852 11.6092 23.1784 11.6831 23.3711 11.6831C23.5638 11.6831 23.757 11.6092 23.904 11.4622C24.1985 11.1677 24.1985 10.6903 23.904 10.3958V10.3958Z" fill="#F4F4F4"/>
</svg>
