<svg width="18" height="24" viewBox="0 0 18 24" fill="none" xmlns="http://www.w3.org/2000/svg">
<path d="M9 18.75C8.55499 18.75 8.11998 18.882 7.74997 19.1292C7.37996 19.3764 7.09157 19.7278 6.92127 20.139C6.75097 20.5501 6.70642 21.0025 6.79323 21.439C6.88005 21.8754 7.09434 22.2763 7.40901 22.591C7.72368 22.9057 8.12459 23.12 8.56105 23.2068C8.99751 23.2936 9.4499 23.249 9.86104 23.0787C10.2722 22.9084 10.6236 22.62 10.8708 22.25C11.118 21.88 11.25 21.445 11.25 21C11.25 20.4033 11.0129 19.831 10.591 19.409C10.169 18.9871 9.59674 18.75 9 18.75Z" fill="#B7B7B7"/>
<path d="M9 12.75C8.55499 12.75 8.11998 12.882 7.74997 13.1292C7.37996 13.3764 7.09157 13.7278 6.92127 14.139C6.75097 14.5501 6.70642 15.0025 6.79323 15.439C6.88005 15.8754 7.09434 16.2763 7.40901 16.591C7.72368 16.9057 8.12459 17.12 8.56105 17.2068C8.99751 17.2936 9.4499 17.249 9.86104 17.0787C10.2722 16.9084 10.6236 16.62 10.8708 16.25C11.118 15.88 11.25 15.445 11.25 15C11.25 14.4033 11.0129 13.831 10.591 13.409C10.169 12.9871 9.59674 12.75 9 12.75Z" fill="#B7B7B7"/>
<path d="M9 6.75C8.55499 6.75 8.11998 6.88196 7.74997 7.12919C7.37996 7.37643 7.09157 7.72783 6.92127 8.13896C6.75097 8.5501 6.70642 9.0025 6.79323 9.43895C6.88005 9.87541 7.09434 10.2763 7.40901 10.591C7.72368 10.9057 8.12459 11.12 8.56105 11.2068C8.99751 11.2936 9.4499 11.249 9.86104 11.0787C10.2722 10.9084 10.6236 10.62 10.8708 10.25C11.118 9.88002 11.25 9.44501 11.25 9C11.25 8.40326 11.0129 7.83097 10.591 7.40901C10.169 6.98705 9.59674 6.75 9 6.75Z" fill="#B7B7B7"/>
<path d="M9 0.75C8.55499 0.75 8.11998 0.88196 7.74997 1.12919C7.37996 1.37643 7.09157 1.72783 6.92127 2.13896C6.75097 2.5501 6.70642 3.0025 6.79323 3.43895C6.88005 3.87541 7.09434 4.27632 7.40901 4.59099C7.72368 4.90566 8.12459 5.11995 8.56105 5.20677C8.99751 5.29358 9.4499 5.24903 9.86104 5.07873C10.2722 4.90843 10.6236 4.62004 10.8708 4.25003C11.118 3.88002 11.25 3.44501 11.25 3C11.25 2.40326 11.0129 1.83097 10.591 1.40901C10.169 0.987053 9.59674 0.75 9 0.75Z" fill="#B7B7B7"/>
<path d="M15 12.75C14.555 12.75 14.12 12.882 13.75 13.1292C13.38 13.3764 13.0916 13.7278 12.9213 14.139C12.751 14.5501 12.7064 15.0025 12.7932 15.439C12.88 15.8754 13.0943 16.2763 13.409 16.591C13.7237 16.9057 14.1246 17.12 14.561 17.2068C14.9975 17.2936 15.4499 17.249 15.861 17.0787C16.2722 16.9084 16.6236 16.62 16.8708 16.25C17.118 15.88 17.25 15.445 17.25 15C17.25 14.4033 17.0129 13.831 16.591 13.409C16.169 12.9871 15.5967 12.75 15 12.75Z" fill="#B7B7B7"/>
<path d="M15 6.75C14.555 6.75 14.12 6.88196 13.75 7.12919C13.38 7.37643 13.0916 7.72783 12.9213 8.13896C12.751 8.5501 12.7064 9.0025 12.7932 9.43895C12.88 9.87541 13.0943 10.2763 13.409 10.591C13.7237 10.9057 14.1246 11.12 14.561 11.2068C14.9975 11.2936 15.4499 11.249 15.861 11.0787C16.2722 10.9084 16.6236 10.62 16.8708 10.25C17.118 9.88002 17.25 9.44501 17.25 9C17.25 8.40326 17.0129 7.83097 16.591 7.40901C16.169 6.98705 15.5967 6.75 15 6.75Z" fill="#B7B7B7"/>
<path d="M15 0.75C14.555 0.75 14.12 0.88196 13.75 1.12919C13.38 1.37643 13.0916 1.72783 12.9213 2.13896C12.751 2.5501 12.7064 3.0025 12.7932 3.43895C12.88 3.87541 13.0943 4.27632 13.409 4.59099C13.7237 4.90566 14.1246 5.11995 14.561 5.20677C14.9975 5.29358 15.4499 5.24903 15.861 5.07873C16.2722 4.90843 16.6236 4.62004 16.8708 4.25003C17.118 3.88002 17.25 3.44501 17.25 3C17.25 2.40326 17.0129 1.83097 16.591 1.40901C16.169 0.987053 15.5967 0.75 15 0.75Z" fill="#B7B7B7"/>
<path d="M3 12.75C2.55499 12.75 2.11998 12.882 1.74997 13.1292C1.37996 13.3764 1.09157 13.7278 0.921272 14.139C0.750975 14.5501 0.706417 15.0025 0.793234 15.439C0.880051 15.8754 1.09434 16.2763 1.40901 16.591C1.72368 16.9057 2.12459 17.12 2.56105 17.2068C2.9975 17.2936 3.4499 17.249 3.86104 17.0787C4.27217 16.9084 4.62357 16.62 4.87081 16.25C5.11804 15.88 5.25 15.445 5.25 15C5.25 14.4033 5.01295 13.831 4.59099 13.409C4.16903 12.9871 3.59674 12.75 3 12.75Z" fill="#B7B7B7"/>
<path d="M3 6.75C2.55499 6.75 2.11998 6.88196 1.74997 7.12919C1.37996 7.37643 1.09157 7.72783 0.921272 8.13896C0.750975 8.5501 0.706417 9.0025 0.793234 9.43895C0.880051 9.87541 1.09434 10.2763 1.40901 10.591C1.72368 10.9057 2.12459 11.12 2.56105 11.2068C2.9975 11.2936 3.4499 11.249 3.86104 11.0787C4.27217 10.9084 4.62357 10.62 4.87081 10.25C5.11804 9.88002 5.25 9.44501 5.25 9C5.25 8.40326 5.01295 7.83097 4.59099 7.40901C4.16903 6.98705 3.59674 6.75 3 6.75Z" fill="#B7B7B7"/>
<path d="M3 0.75C2.55499 0.75 2.11998 0.88196 1.74997 1.12919C1.37996 1.37643 1.09157 1.72783 0.921272 2.13896C0.750975 2.5501 0.706417 3.0025 0.793234 3.43895C0.880051 3.87541 1.09434 4.27632 1.40901 4.59099C1.72368 4.90566 2.12459 5.11995 2.56105 5.20677C2.9975 5.29358 3.4499 5.24903 3.86104 5.07873C4.27217 4.90843 4.62357 4.62004 4.87081 4.25003C5.11804 3.88002 5.25 3.44501 5.25 3C5.25 2.40326 5.01295 1.83097 4.59099 1.40901C4.16903 0.987053 3.59674 0.75 3 0.75Z" fill="#B7B7B7"/>
</svg>
