<svg width="19" height="23" viewBox="0 0 19 23" fill="none" xmlns="http://www.w3.org/2000/svg">
<path d="M18.2252 18.9663L17.1982 6.02393C17.1344 5.19005 16.4289 4.53711 15.5928 4.53711H13.564V7.54315C13.564 7.91541 13.2626 8.21675 12.8904 8.21675C12.5185 8.21675 12.2168 7.91541 12.2168 7.54315V4.53711H6.01974V7.54315C6.01974 7.91541 5.71796 8.21675 5.34614 8.21675C4.97387 8.21675 4.67253 7.91541 4.67253 7.54315V4.53711H2.64368C1.80755 4.53711 1.10205 5.19005 1.03831 6.02214L0.0108543 18.9681C-0.0686125 20.005 0.291077 21.037 0.997429 21.7995C1.70383 22.5619 2.70522 22.9998 3.74481 22.9998H14.4917C15.5313 22.9998 16.5327 22.5619 17.2391 21.7994C17.9455 21.0369 18.3052 20.005 18.2252 18.9663ZM12.153 12.3754L8.66919 15.8593C8.53761 15.9908 8.36516 16.0568 8.19275 16.0568C8.02029 16.0568 7.84788 15.9908 7.7163 15.8593L6.08353 14.2265C5.82038 13.9633 5.82038 13.5372 6.08353 13.274C6.34668 13.0109 6.7733 13.0109 7.03601 13.274L8.19279 14.4303L11.2006 11.4226C11.4633 11.1599 11.8899 11.1599 12.1531 11.4226C12.4162 11.6857 12.4162 12.1123 12.153 12.3754Z" fill="#F4F4F4"/>
<path d="M9.11842 0C6.66699 0 4.67273 1.99471 4.67273 4.44614V4.53729H6.01994V4.44614C6.01994 2.73745 7.40978 1.34716 9.11847 1.34716C10.8272 1.34716 12.217 2.73745 12.217 4.44614V4.53729H13.5642V4.44614C13.5641 1.99471 11.5699 0 9.11842 0Z" fill="#F4F4F4"/>
</svg>
