<svg width="24" height="23" viewBox="0 0 24 23" fill="none" xmlns="http://www.w3.org/2000/svg">
<path d="M17.9784 17.0728C16.4602 17.0728 15.2084 18.2979 15.2084 19.8428C15.2084 21.3609 16.4336 22.6128 17.9784 22.6128C19.4966 22.6128 20.7484 21.3876 20.7484 19.8428C20.7217 18.3246 19.4966 17.0728 17.9784 17.0728Z" fill="#F4F4F4"/>
<path d="M22.8525 3.86202C22.7992 3.86202 22.7193 3.83539 22.6394 3.83539H5.85962L5.59327 2.05087C5.43347 0.878943 4.42135 0 3.22279 0H1.06539C0.479423 0 0 0.479423 0 1.06539C0 1.65135 0.479423 2.13077 1.06539 2.13077H3.22279C3.35596 2.13077 3.4625 2.23731 3.48914 2.37048L5.14049 13.6103C5.35356 15.0219 6.57876 16.0873 8.01703 16.0873H19.097C20.482 16.0873 21.6806 15.1018 21.9736 13.7435L23.7048 5.08722C23.8114 4.52789 23.4385 3.96856 22.8525 3.86202Z" fill="#F4F4F4"/>
<path d="M11.1865 19.7096C11.1333 18.2447 9.90807 17.0728 8.44316 17.0728C6.89836 17.1527 5.72643 18.4311 5.7797 19.9493C5.83297 21.4142 7.03153 22.5861 8.49643 22.5861H8.5497C10.0679 22.5062 11.2664 21.2278 11.1865 19.7096Z" fill="#F4F4F4"/>
</svg>
