<svg width="38" height="41" viewBox="0 0 38 41" fill="none" xmlns="http://www.w3.org/2000/svg">
<path d="M36.3247 20.8776L37.8355 20.2708C37.5812 18.2641 37.0241 16.3149 36.186 14.4995L34.1333 15.5985L36.3247 20.8776Z" fill="white"/>
<path d="M12.1427 38.1858C12.2167 38.3442 12.2341 38.5261 12.1916 38.6973C12.1492 38.8684 12.0498 39.0171 11.9122 39.1154L9.70557 40.6907H18.3215V37.7842H11.9552L12.1427 38.1858Z" fill="white"/>
<path d="M9.89215 36.6162L6.43237 38.7332L7.62174 40.4313L10.6606 38.2619L9.89215 36.6162Z" fill="white"/>
<path d="M13.064 4.67041L8.14282 7.01259V9.81009L14.3226 7.05283C13.7502 6.36313 13.3212 5.55106 13.064 4.67041Z" fill="white"/>
<path d="M20.4058 2.90643C20.9247 1.87841 21.5332 0.905268 22.2233 0H15.7776C16.4675 0.905463 17.0761 1.87858 17.5953 2.90643H20.4058Z" fill="white"/>
<path d="M19.9177 8.2388C23.4269 6.42024 23.7232 4.03972 23.7477 3.67995L23.3108 0.871094C22.5767 1.82683 21.9411 2.86462 21.4151 3.96643C20.764 5.32407 20.2616 6.7577 19.9177 8.2388Z" fill="white"/>
<path d="M18.0808 8.23779C17.737 6.75728 17.2351 5.3241 16.585 3.96662C16.0587 2.86459 15.4231 1.82644 14.6893 0.870117L14.2522 3.67897C14.2776 4.04863 14.5768 6.42196 18.0808 8.23779Z" fill="white"/>
<path d="M6.82863 27.8658L3.43807 18.4263L4.70479 17.9046L6.78571 23.6981V7.88965C5.11024 9.18225 3.70616 10.8363 2.6639 12.7452L2.36575 13.2925C0.752146 16.2546 -0.0651987 19.6367 0.0040635 23.0651C0.0733257 26.4935 1.0265 29.8346 2.75822 32.7191L5.65114 37.5378L9.34544 35.2774L6.82863 27.8658Z" fill="white"/>
<path d="M34.5034 40.6907H38V37.7842H34.051L34.5034 40.6907Z" fill="white"/>
<path d="M23.6772 7.05283L29.857 9.81009V7.01259L24.9358 4.67041C24.6786 5.55106 24.2496 6.36313 23.6772 7.05283Z" fill="white"/>
<path d="M37.9711 21.7691L36.2024 22.4794C36.0404 22.5445 35.8613 22.5408 35.7018 22.4692C35.5422 22.3976 35.4142 22.2634 35.344 22.0941L32.6297 15.5545C32.5589 15.3837 32.5523 15.1902 32.6113 15.0143C32.6703 14.8384 32.7903 14.6935 32.9464 14.6099L35.5385 13.2225C34.4152 11.1965 32.9486 9.41271 31.2141 7.96289V18.1105L33.832 36.3315H37.9998V22.8326C37.9998 22.478 37.9897 22.1226 37.9711 21.7691Z" fill="white"/>
<path d="M18.2656 4.36035C18.5425 5.0256 18.7875 5.70554 18.9997 6.39752C19.212 5.70554 19.457 5.0256 19.7339 4.36035H18.2656Z" fill="white"/>
<path d="M8.14282 11.3836V27.4834L9.66774 31.9739L13.0285 27.1755L14.1142 28.0474L10.2216 33.605L10.803 35.3169L11.2765 36.3309H18.3214V9.94096C17.0854 9.39953 16.1299 8.78163 15.3928 8.14893L8.14282 11.3836Z" fill="white"/>
<path d="M19.6787 9.94096V36.3309H29.8573V11.3836L22.6073 8.14893C21.8702 8.78163 20.9147 9.39953 19.6787 9.94096ZM24.9716 27.1755L29.043 32.9885L27.9573 33.8604L23.8858 28.0474L24.9716 27.1755Z" fill="white"/>
<path d="M19.6787 37.7842H29.8573V40.6907H19.6787V37.7842Z" fill="white"/>
</svg>
