<svg width="28" height="43" viewBox="0 0 28 43" fill="none" xmlns="http://www.w3.org/2000/svg">
<path d="M0 13.6773L5.11883 42.5128H18.8524V3.87305H3.92881L0 13.6773ZM5.08919 6.88292C5.08919 6.51831 5.31217 6.23489 5.65405 6.23489H15.9058C16.2467 6.23489 16.5586 6.51831 16.5586 6.88292V16.0535C16.5517 16.2893 16.4311 16.5041 16.2401 16.6215L11.1072 19.8959C11.0096 19.9568 10.899 19.9893 10.786 19.9893C10.6743 19.9893 10.5647 19.9568 10.4686 19.8959L5.3649 16.6218C5.18431 16.4993 5.0792 16.2823 5.08919 16.0535V6.88292Z" fill="white"/>
<path d="M15.3233 15.6784V7.55811H6.32422V15.6784L10.8237 18.558L15.3233 15.6784Z" fill="white"/>
<path d="M4.11865 0H18.8524V2.55078H4.11865V0Z" fill="white"/>
<path d="M20.0876 18.4224V39.7501L28.0001 18.4224H20.0876Z" fill="white"/>
</svg>
