<svg width="23" height="19" viewBox="0 0 23 19" fill="none" xmlns="http://www.w3.org/2000/svg">
<path d="M20.2729 0.570312H2.77899C1.454 0.570312 0.376221 1.43148 0.376221 2.49017V16.4682C0.376221 17.5267 1.454 18.388 2.77899 18.388H20.2729C21.5977 18.388 22.6757 17.5267 22.6757 16.4682V2.49017C22.6757 1.43148 21.5977 0.570313 20.2729 0.570313V0.570312ZM21.3691 16.4682C21.3691 16.9512 20.8774 17.344 20.2729 17.344H2.77899C2.17451 17.344 1.68283 16.9512 1.68283 16.4682V2.49017C1.68283 2.00718 2.17451 1.61432 2.77899 1.61432H20.2729C20.8774 1.61432 21.3691 2.00718 21.3691 2.49017V16.4682Z" fill="#818181"/>
<path d="M7.14409 7.24349C7.89048 7.24349 8.03096 7.70017 8.05743 8.11286C8.06619 8.38507 8.32068 8.47282 8.62811 8.47282C9.00579 8.47282 9.19901 8.36756 9.19901 7.9284C9.19901 6.87457 8.31192 6.24219 7.10011 6.24219C5.98479 6.24219 5.0802 6.78661 5.0802 8.25334V10.7034C5.0802 12.17 5.97604 12.7144 7.13533 12.7144C8.29442 12.7144 9.19901 12.17 9.19901 10.7034V9.65837C9.19901 9.46516 9.06728 9.28945 8.83905 9.28945H7.34606C7.11783 9.28945 6.99485 9.51789 6.99485 9.73737C6.99485 9.96581 7.11783 10.1853 7.34606 10.1853H8.05743V10.7034C8.05743 11.3884 7.70623 11.7133 7.13533 11.7133C6.55569 11.7133 6.22199 11.3884 6.22199 10.7034V8.25313C6.22199 7.56844 6.55569 7.24349 7.14409 7.24349Z" fill="#818181"/>
<path d="M11.5524 6.24365C11.2627 6.24365 10.9817 6.34891 10.9817 6.59486V12.3029C10.9817 12.5401 11.2629 12.6631 11.5524 12.6631C11.8335 12.6631 12.1233 12.5401 12.1233 12.3029V6.59486C12.1233 6.34891 11.8335 6.24365 11.5524 6.24365Z" fill="#818181"/>
<path d="M17.6189 6.24365H14.5539C14.2994 6.24365 14.0535 6.36641 14.0535 6.60361V12.3029C14.0535 12.5401 14.3345 12.6631 14.6242 12.6631C14.9054 12.6631 15.1951 12.5401 15.1951 12.3029V9.89682H16.5386C16.7846 9.89682 16.8898 9.65962 16.8898 9.45766C16.8898 9.22067 16.7668 9.0012 16.5386 9.0012H15.1951V7.24475H17.6189C17.8471 7.24475 17.9701 7.00755 17.9701 6.73534C17.9701 6.49836 17.8647 6.24365 17.6189 6.24365Z" fill="#818181"/>
</svg>
