<svg width="27" height="19" viewBox="0 0 27 19" fill="none" xmlns="http://www.w3.org/2000/svg">
<path d="M23.9303 0.571289H2.78974C1.62279 0.572663 0.677064 1.51839 0.67569 2.68534V16.2153C0.677064 17.3823 1.62279 18.328 2.78974 18.3294H23.9303C24.0489 18.3298 24.1674 18.3195 24.2842 18.2985C25.3015 18.1282 26.0463 17.2468 26.0443 16.2153V2.68534C26.043 1.51833 25.0973 0.572663 23.9303 0.571289ZM2.78974 17.4837C2.13254 17.4836 1.5842 16.9816 1.52639 16.3269L9.95639 10.8152L18.5293 17.4837H2.78974ZM25.1987 16.2153C25.1994 16.8359 24.7499 17.3654 24.1375 17.4656C24.0691 17.4779 23.9997 17.4839 23.9303 17.4837H19.9064L14.3046 13.1241L19.314 9.11841L25.1987 12.6493V16.2153ZM25.1987 11.6633L19.4971 8.24235C19.3455 8.15118 19.1533 8.16402 19.0151 8.27448L13.6171 12.5914L10.2367 9.96235C10.0943 9.85168 9.89736 9.84348 9.74625 9.94205L1.52131 15.3198V2.68534C1.52131 1.9848 2.0892 1.41691 2.78974 1.41691H23.9303C24.6308 1.41691 25.1987 1.9848 25.1987 2.68534V11.6633Z" fill="#818181"/>
<path d="M13.3591 3.1084C11.958 3.1084 10.8222 4.24417 10.8222 5.64526C10.8236 7.04577 11.9586 8.18076 13.3591 8.18213C14.7602 8.18213 15.896 7.04635 15.896 5.64526C15.896 4.24417 14.7602 3.1084 13.3591 3.1084ZM13.3591 7.33651C12.4251 7.33651 11.6679 6.57931 11.6679 5.64526C11.6679 4.71122 12.4251 3.95402 13.3591 3.95402C14.2931 3.95402 15.0503 4.71122 15.0503 5.64526C15.0503 6.57931 14.2931 7.33651 13.3591 7.33651Z" fill="#818181"/>
</svg>
