<svg width="27" height="19" viewBox="0 0 27 19" fill="none" xmlns="http://www.w3.org/2000/svg">
<path d="M24.4321 8.40946V9.22703C23.5438 8.51368 22.4171 8.08545 21.1918 8.08545C18.3331 8.08545 16.0075 10.4112 16.0075 13.2698C16.0075 16.1285 18.3332 18.4542 21.1918 18.4542C22.4171 18.4542 23.5438 18.0259 24.4321 17.3126V18.1302H26.3762V8.40946H24.4321ZM21.1918 16.51C19.4051 16.51 17.9515 15.0564 17.9515 13.2698C17.9515 11.4831 19.4051 10.0296 21.1918 10.0296C22.9784 10.0296 24.432 11.4832 24.432 13.2698C24.4321 15.0565 22.9785 16.51 21.1918 16.51Z" fill="#818181"/>
<path d="M7.90536 0.45459L0 18.4215H2.12392L4.83281 12.265H10.9779L13.6867 18.4215H15.8107L7.90536 0.45459ZM5.68823 10.3209L7.90531 5.28199L10.1224 10.3209H5.68823Z" fill="#818181"/>
</svg>
