<svg width="13" height="19" viewBox="0 0 13 19" fill="none" xmlns="http://www.w3.org/2000/svg">
<path d="M12.7276 8.9505C12.7276 8.65633 12.4891 8.41797 12.195 8.41797C11.9009 8.41797 11.6625 8.65633 11.6625 8.9505C11.6625 11.86 9.29543 14.227 6.38596 14.227C3.47648 14.227 1.10941 11.8599 1.10941 8.9505C1.10941 8.65633 0.870975 8.41797 0.576875 8.41797C0.282775 8.41797 0.044342 8.65633 0.044342 8.9505C0.044342 12.268 2.6049 14.9982 5.85342 15.2695V17.1537H3.48138C3.18728 17.1537 2.94885 17.3921 2.94885 17.6862C2.94885 17.9804 3.18728 18.2188 3.48138 18.2188H9.29046C9.58456 18.2188 9.82299 17.9804 9.82299 17.6862C9.82299 17.3921 9.58456 17.1537 9.29046 17.1537H6.91842V15.2695C10.1669 14.9982 12.7276 12.268 12.7276 8.9505Z" fill="#818181"/>
<path d="M6.3861 12.3879C8.28135 12.3879 9.82321 10.846 9.82321 8.95083V3.89163C9.82321 1.99645 8.28135 0.45459 6.3861 0.45459C4.49093 0.45459 2.94907 1.99645 2.94907 3.89163V8.95083C2.94907 10.8461 4.49093 12.3879 6.3861 12.3879ZM4.01413 3.89163C4.01413 2.58373 5.0782 1.51966 6.3861 1.51966C7.69408 1.51966 8.75815 2.58373 8.75815 3.89163V8.95083C8.75815 10.2587 7.69408 11.3228 6.3861 11.3228C5.0782 11.3228 4.01413 10.2587 4.01413 8.95083V3.89163Z" fill="#818181"/>
</svg>
