<svg width="51" height="41" viewBox="0 0 51 41" fill="none" xmlns="http://www.w3.org/2000/svg">
<path d="M47.6277 0H2.74836C2.38658 -2.48126e-06 2.02837 0.0714217 1.69426 0.210175C1.36015 0.348928 1.05672 0.552279 0.801381 0.808565C0.546041 1.06485 0.343812 1.36903 0.206295 1.70365C0.0687782 2.03827 -0.00132106 2.39675 1.88517e-05 2.75852V32.0741C1.38828e-05 32.804 0.289245 33.5041 0.804368 34.0211C1.31949 34.5381 2.01852 34.83 2.74836 34.8327H47.6277C48.3586 34.8302 49.0588 34.5388 49.5756 34.022C50.0924 33.5052 50.3838 32.805 50.3862 32.0741V2.75852C50.3857 2.02708 50.0949 1.32575 49.5777 0.808548C49.0605 0.291342 48.3592 0.000539211 47.6277 0Z" fill="white"/>
<path d="M33.5309 39.4705H30.7612V35.8691H19.6253V39.4735H16.8464C16.644 39.4735 16.4498 39.554 16.3066 39.6971C16.1634 39.8403 16.083 40.0345 16.083 40.237C16.083 40.4394 16.1634 40.6336 16.3066 40.7768C16.4498 40.92 16.644 41.0004 16.8464 41.0004H33.5309C33.7334 41.0004 33.9275 40.92 34.0707 40.7768C34.2139 40.6336 34.2943 40.4394 34.2943 40.237C34.2943 40.0345 34.2139 39.8403 34.0707 39.6971C33.9275 39.554 33.7334 39.4735 33.5309 39.4735V39.4705Z" fill="white"/>
</svg>
