<svg width="375" height="350" viewBox="0 0 375 350" fill="none" xmlns="http://www.w3.org/2000/svg">
<path d="M0.576015 26.9099H380.221L385.789 60.1932C385.789 60.1932 365.035 289.796 242.03 340.622C139.989 382.786 -46.5 269.099 -46.5 269.099L0.576015 26.9099Z" fill="#22274B"/>
<path d="M0.576015 0H380.221H403C403 0 365.035 262.886 242.03 313.712C139.989 355.877 -46.5 242.189 -46.5 242.189L0.576015 0Z" fill="#191D42"/>
<path d="M181.576 259.188C259.215 259.188 322.153 256.286 322.153 252.707C322.153 249.127 259.215 246.226 181.576 246.226C103.938 246.226 41 249.127 41 252.707C41 256.286 103.938 259.188 181.576 259.188Z" fill="#3F3D56"/>
<path d="M295.146 250.29C296.071 248.59 295.022 246.507 293.825 244.988C292.627 243.47 291.167 241.902 291.198 239.961C291.242 237.183 294.189 235.544 296.547 234.072C298.293 232.979 299.904 231.683 301.346 230.211C301.951 229.645 302.451 228.977 302.824 228.236C303.309 227.15 303.296 225.915 303.265 224.724C303.162 220.761 302.967 216.803 302.679 212.848" stroke="#3F3D56" stroke-width="4" stroke-miterlimit="10"/>
<path d="M307.157 212.639C307.123 211.914 306.907 211.209 306.529 210.589C306.152 209.969 305.625 209.453 304.997 209.09L304.028 211.009L304.055 208.689C303.393 208.49 302.692 208.454 302.012 208.582C301.332 208.711 300.693 209.001 300.149 209.428C299.604 209.855 299.17 210.407 298.884 211.036C298.597 211.666 298.465 212.355 298.5 213.046C298.554 214.192 299.061 215.27 299.91 216.042C300.33 216.424 300.821 216.72 301.356 216.912C301.89 217.105 302.457 217.19 303.025 217.163C303.592 217.137 304.149 216.998 304.663 216.756C305.177 216.515 305.638 216.174 306.02 215.754C306.403 215.334 306.698 214.842 306.891 214.308C307.083 213.773 307.168 213.206 307.142 212.639H307.157Z" fill="#57B793"/>
<path d="M299.432 241.957C298.979 242.838 298.236 243.537 297.329 243.935C296.422 244.334 295.405 244.409 294.45 244.147C293.494 243.885 292.657 243.303 292.08 242.498C291.502 241.693 291.219 240.713 291.278 239.724C291.336 238.735 291.733 237.796 292.402 237.065C293.07 236.333 293.97 235.854 294.95 235.707C295.93 235.56 296.931 235.754 297.784 236.257C298.638 236.76 299.293 237.542 299.639 238.47L296.936 240.671L299.911 239.979C299.911 240.667 299.747 241.346 299.432 241.957Z" fill="#57B793"/>
<path d="M297.294 233.536C296.725 233.563 296.157 233.478 295.622 233.285C295.087 233.092 294.595 232.796 294.174 232.413C293.754 232.029 293.413 231.567 293.172 231.051C292.931 230.536 292.794 229.978 292.769 229.41C292.735 228.732 292.863 228.056 293.143 227.437C293.402 226.859 293.785 226.344 294.265 225.929C294.745 225.514 295.31 225.209 295.92 225.036L295.899 226.823L296.88 224.879C298.028 224.825 299.15 225.23 300 226.004C300.849 226.778 301.357 227.857 301.411 229.005C301.464 230.153 301.06 231.275 300.286 232.125C299.512 232.975 298.432 233.482 297.284 233.536H297.294Z" fill="#57B793"/>
<path d="M307.808 226.526C306.662 226.58 305.542 226.177 304.693 225.405C303.845 224.633 303.338 223.555 303.284 222.409C303.23 221.264 303.633 220.143 304.405 219.295C305.177 218.446 306.255 217.939 307.401 217.885C308.211 217.845 309.016 218.036 309.722 218.434L308.956 220.533L310.53 219.021C311.375 219.793 311.879 220.868 311.931 222.011C311.951 222.412 311.914 222.813 311.82 223.203C311.604 224.118 311.096 224.937 310.372 225.537C309.648 226.137 308.748 226.484 307.808 226.526Z" fill="#57B793"/>
<path opacity="0.1" d="M306.574 213.781C305.574 213.892 304.602 214.204 303.599 214.265C302.596 214.327 301.494 214.086 300.858 213.306C300.516 212.886 300.346 212.355 300.056 211.898C299.783 211.471 299.408 211.119 298.966 210.871C298.705 211.417 298.561 212.012 298.545 212.617C298.528 213.223 298.639 213.825 298.87 214.384C299.102 214.944 299.448 215.449 299.887 215.866C300.326 216.284 300.847 216.604 301.418 216.807C301.988 217.009 302.595 217.09 303.199 217.043C303.803 216.996 304.39 216.823 304.922 216.534C305.455 216.246 305.921 215.848 306.29 215.368C306.659 214.888 306.923 214.336 307.065 213.747C306.898 213.753 306.734 213.765 306.574 213.781Z" fill="black"/>
<path opacity="0.1" d="M307.808 226.527C307.061 226.565 306.317 226.408 305.649 226.072C304.981 225.736 304.411 225.232 303.996 224.61C303.58 223.988 303.334 223.269 303.28 222.523C303.226 221.777 303.367 221.03 303.688 220.354C304.032 220.586 304.328 220.883 304.559 221.228C304.867 221.694 305.052 222.231 305.417 222.66C306.089 223.453 307.244 223.712 308.29 223.663C309.336 223.613 310.342 223.32 311.376 223.224C311.518 223.224 311.666 223.2 311.811 223.197C311.597 224.111 311.09 224.931 310.368 225.532C309.645 226.133 308.747 226.482 307.808 226.527Z" fill="black"/>
<path opacity="0.1" d="M297.294 233.536C296.725 233.563 296.157 233.478 295.622 233.285C295.087 233.093 294.595 232.796 294.174 232.413C293.754 232.029 293.413 231.567 293.172 231.051C292.931 230.536 292.794 229.978 292.769 229.41C292.735 228.732 292.863 228.056 293.143 227.438C293.502 227.672 293.815 227.97 294.068 228.317C294.405 228.792 294.615 229.339 294.994 229.777C295.726 230.592 296.954 230.879 298.062 230.851C299.17 230.823 300.167 230.564 301.235 230.484C300.971 231.336 300.451 232.086 299.746 232.632C299.041 233.178 298.184 233.494 297.294 233.536Z" fill="black"/>
<path opacity="0.1" d="M299.432 241.958C299.199 242.476 298.866 242.944 298.453 243.334C298.039 243.724 297.552 244.028 297.021 244.23C296.49 244.432 295.924 244.527 295.355 244.511C294.787 244.494 294.228 244.365 293.709 244.132C293.19 243.899 292.723 243.566 292.333 243.152C291.943 242.739 291.638 242.252 291.437 241.721C291.235 241.189 291.139 240.623 291.156 240.055C291.173 239.487 291.302 238.927 291.535 238.409C291.89 238.645 292.21 238.931 292.485 239.257C292.896 239.76 293.167 240.328 293.646 240.8C294.532 241.668 295.96 242.035 297.232 242.06C297.967 242.069 298.702 242.035 299.432 241.958Z" fill="black"/>
<path d="M288.615 248.33C288.615 248.33 292.032 248.226 293.062 247.491C294.093 246.756 298.309 245.88 298.577 247.059C298.846 248.238 303.716 252.923 299.855 252.941C295.994 252.96 290.887 252.324 289.859 251.707C288.831 251.09 288.615 248.33 288.615 248.33Z" fill="#656380"/>
<path opacity="0.2" d="M299.923 252.531C296.065 252.562 290.955 251.914 289.927 251.297C289.146 250.821 288.831 249.108 288.729 248.318H288.615C288.615 248.318 288.831 251.074 289.85 251.713C290.868 252.352 295.985 252.972 299.846 252.948C300.96 252.948 301.346 252.54 301.324 251.954C301.179 252.303 300.753 252.525 299.923 252.531Z" fill="black"/>
<path d="M100.999 240.769C98.7583 236.622 101.307 231.542 104.221 227.844C107.134 224.147 110.702 220.302 110.625 215.589C110.514 208.818 103.329 204.821 97.5886 201.232C93.329 198.568 89.3997 195.41 85.8826 191.822C84.4722 190.381 83.1051 188.844 82.2841 187.005C81.099 184.357 81.1299 181.348 81.207 178.447C81.4539 168.777 81.9313 159.125 82.639 149.492" stroke="#3F3D56" stroke-width="4" stroke-miterlimit="10"/>
<path d="M71.7232 148.964C71.8077 147.198 72.3347 145.481 73.2557 143.971C74.1767 142.461 75.4623 141.206 76.9944 140.323L79.3585 144.998L79.2875 139.338C81.4352 138.706 83.7284 138.772 85.836 139.527C87.9437 140.283 89.7567 141.688 91.0133 143.541C92.27 145.394 92.9051 147.599 92.8271 149.837C92.7491 152.074 91.962 154.229 90.5794 155.99C89.1969 157.751 87.2904 159.027 85.1352 159.634C82.9801 160.241 80.6878 160.147 78.5894 159.367C76.491 158.586 74.6951 157.158 73.4609 155.29C72.2267 153.422 71.6182 151.21 71.7232 148.973V148.964Z" fill="#57B793"/>
<path d="M90.5552 220.429C91.6168 222.498 93.3322 224.158 95.4346 225.152C97.5371 226.146 99.9089 226.418 102.182 225.925C104.455 225.433 106.501 224.203 108.003 222.428C109.505 220.653 110.379 218.431 110.489 216.108C110.563 214.648 110.328 213.188 109.801 211.824C109.03 209.824 107.668 208.106 105.897 206.898C104.126 205.69 102.029 205.05 99.8854 205.062C97.7417 205.074 95.6525 205.739 93.8955 206.967C92.1385 208.195 90.7969 209.929 90.049 211.938L96.6442 217.302L89.3886 215.614C89.3856 217.289 89.7857 218.941 90.5552 220.429Z" fill="#57B793"/>
<path d="M95.7677 199.93C98.3569 200.049 100.899 199.211 102.911 197.576C104.922 195.942 106.262 193.624 106.676 191.066C107.089 188.507 106.548 185.886 105.154 183.7C103.76 181.515 101.611 179.919 99.1163 179.216L99.1718 183.564L96.7954 178.833H96.7677C93.9696 178.702 91.2342 179.689 89.1634 181.575C87.0925 183.461 85.8558 186.093 85.7252 188.891C85.5947 191.689 86.581 194.424 88.4672 196.495C90.3535 198.566 92.9851 199.803 95.7832 199.933L95.7677 199.93Z" fill="#57B793"/>
<path d="M70.1337 182.873C71.7686 182.952 73.3995 182.651 74.8979 181.992C76.3962 181.333 77.721 180.335 78.7676 179.077C79.8141 177.819 80.5539 176.334 80.9284 174.741C81.303 173.147 81.302 171.489 80.9257 169.896C80.5494 168.303 79.808 166.819 78.76 165.562C77.712 164.305 76.3861 163.308 74.887 162.651C73.3879 161.994 71.7566 161.695 70.1219 161.776C68.4872 161.858 66.8937 162.318 65.4674 163.121L67.3191 168.235L63.4953 164.541C62.4731 165.471 61.6444 166.593 61.0566 167.844C60.4688 169.095 60.1334 170.45 60.0696 171.83C60.0206 172.807 60.111 173.786 60.3381 174.737C60.8631 176.975 62.1036 178.98 63.8715 180.448C65.6394 181.916 67.8381 182.767 70.1337 182.873Z" fill="#57B793"/>
<path opacity="0.1" d="M73.1427 151.779C75.5808 152.048 77.951 152.804 80.3953 152.955C82.8396 153.106 85.5277 152.523 87.0739 150.622C87.9071 149.597 88.3238 148.301 89.0274 147.184C89.6942 146.143 90.6081 145.283 91.6877 144.681C92.36 146.019 92.74 147.485 92.8024 148.982C92.8649 150.478 92.6083 151.97 92.0498 153.36C91.4914 154.75 90.6437 156.005 89.5631 157.042C88.4826 158.079 87.1938 158.874 85.7824 159.375C84.3709 159.876 82.8691 160.07 81.3766 159.947C79.8841 159.823 78.435 159.383 77.1255 158.656C75.816 157.929 74.6761 156.932 73.7814 155.731C72.8867 154.53 72.2576 153.152 71.936 151.69C72.3465 151.708 72.7477 151.736 73.1427 151.779Z" fill="black"/>
<path opacity="0.1" d="M70.1337 182.872C71.9534 182.956 73.7639 182.568 75.3895 181.746C77.0151 180.924 78.4005 179.696 79.4114 178.18C80.4222 176.665 81.0241 174.914 81.1587 173.097C81.2932 171.28 80.9558 169.46 80.1792 167.812C79.3408 168.376 78.6197 169.097 78.0559 169.935C77.3029 171.071 76.8492 172.382 75.9635 173.426C74.3186 175.358 71.5101 175.99 68.9609 175.876C66.4117 175.762 63.952 175.033 61.4151 174.802C61.0633 174.771 60.7053 174.746 60.3504 174.737C60.8747 176.973 62.1135 178.976 63.8789 180.444C65.6443 181.912 67.8402 182.765 70.1337 182.872Z" fill="black"/>
<path opacity="0.1" d="M95.7677 199.93C97.5697 200.015 99.3633 199.636 100.977 198.831C102.592 198.025 103.972 196.819 104.988 195.328C106.004 193.838 106.621 192.111 106.78 190.314C106.939 188.517 106.635 186.71 105.897 185.064C105.027 185.641 104.271 186.374 103.665 187.224C102.844 188.381 102.332 189.715 101.372 190.782C99.5915 192.767 96.5979 193.467 93.8975 193.403C91.2835 193.347 88.7651 192.705 86.1666 192.505C86.8099 194.579 88.0768 196.405 89.7947 197.733C91.5127 199.062 93.5983 199.829 95.7677 199.93Z" fill="black"/>
<path opacity="0.1" d="M90.5551 220.428C91.6168 222.497 93.3321 224.158 95.4345 225.152C97.537 226.146 99.9089 226.418 102.182 225.925C104.454 225.432 106.501 224.203 108.003 222.428C109.505 220.652 110.379 218.431 110.489 216.108C110.563 214.647 110.328 213.188 109.801 211.824C108.932 212.395 108.152 213.09 107.486 213.889C106.483 215.123 105.819 216.5 104.659 217.641C102.499 219.759 99.0144 220.635 95.9127 220.728C94.1225 220.734 92.3335 220.634 90.5551 220.428Z" fill="black"/>
<path d="M174.083 246.936L133.345 255.268L132.42 255.176L96.6196 251.565V206.198L140.444 198.791L172.232 202.494L172.241 202.695L172.244 202.794L174.083 246.936Z" fill="#050A30"/>
<path opacity="0.1" d="M174.083 246.936L133.345 255.269L132.419 255.176V208.667L172.241 202.695L174.083 246.936Z" fill="black"/>
<path opacity="0.05" d="M172.244 202.794L172.232 202.803L132.42 208.667L96.6196 206.198L140.444 198.791L172.232 202.494L172.241 202.695L172.244 202.794Z" fill="black"/>
<path d="M218.833 248.788L178.095 257.12L177.169 257.028L141.369 253.417V208.05L185.193 200.643L216.981 204.346L216.991 204.547L216.994 204.646L218.833 248.788Z" fill="#3F3D56"/>
<path opacity="0.1" d="M218.833 248.788L178.095 257.12L177.169 257.028V210.519L216.991 204.547L218.833 248.788Z" fill="black"/>
<path opacity="0.05" d="M216.994 204.646L216.981 204.655L177.169 210.519L141.369 208.05L185.193 200.643L216.981 204.346L216.991 204.547L216.994 204.646Z" fill="black"/>
<path d="M190.749 204.346L150.011 212.679L149.085 212.586L113.285 208.975V163.608L157.109 156.201L188.897 159.905L188.906 160.105L188.909 160.204L190.749 204.346Z" fill="#3F3D56"/>
<path opacity="0.1" d="M190.749 204.346L150.011 212.679L149.085 212.586V166.077L188.906 160.105L190.749 204.346Z" fill="black"/>
<path opacity="0.05" d="M188.909 160.204L188.897 160.213L149.085 166.077L113.285 163.608L157.109 156.201L188.897 159.905L188.906 160.105L188.909 160.204Z" fill="black"/>
<path d="M213.895 206.247L192.634 210.599L192.15 210.55L173.466 208.664V184.987L196.338 181.12L212.929 183.055L212.935 183.16V183.209L213.895 206.247Z" fill="#3F3D56"/>
<path opacity="0.1" d="M213.895 206.248L192.634 210.599L192.15 210.55V186.277L212.935 183.16L213.895 206.248Z" fill="black"/>
<path opacity="0.05" d="M212.935 183.209L212.929 183.215L192.15 186.277L173.466 184.987L196.338 181.12L212.929 183.055L212.935 183.16V183.209Z" fill="black"/>
<path d="M156.8 160.263L135.54 164.612L135.055 164.565L116.371 162.68V139.002L139.243 135.135L155.834 137.07L155.841 137.175V137.225L156.8 160.263Z" fill="#3F3D56"/>
<path opacity="0.1" d="M156.8 160.263L135.54 164.611L135.055 164.565V140.292L155.841 137.175L156.8 160.263Z" fill="black"/>
<path opacity="0.05" d="M155.841 137.225L155.835 137.231L135.055 140.292L116.371 139.002L139.243 135.135L155.835 137.07L155.841 137.175V137.225Z" fill="black"/>
<path d="M194.143 159.337L172.883 163.686L172.398 163.639L153.714 161.754V138.076L176.586 134.209L193.177 136.145L193.184 136.249V136.299L194.143 159.337Z" fill="#050A30"/>
<path opacity="0.1" d="M194.143 159.337L172.883 163.685L172.398 163.639V139.366L193.184 136.249L194.143 159.337Z" fill="black"/>
<path opacity="0.05" d="M193.184 136.299L193.177 136.305L172.398 139.367L153.714 138.076L176.586 134.209L193.177 136.145L193.184 136.249V136.299Z" fill="black"/>
<path d="M205.254 135.574L183.993 139.922L183.508 139.876L164.825 137.99V114.313L187.696 110.446L204.288 112.381L204.294 112.486V112.535L205.254 135.574Z" fill="#3F3D56"/>
<path opacity="0.1" d="M205.254 135.573L183.993 139.922L183.508 139.875V115.602L204.294 112.485L205.254 135.573Z" fill="black"/>
<path opacity="0.05" d="M204.294 112.535L204.288 112.541L183.508 115.603L164.825 114.313L187.696 110.446L204.288 112.381L204.294 112.486V112.535Z" fill="black"/>
<path d="M219.734 87.1696C219.509 89.1756 217.978 90.7928 217.41 92.7248C216.559 95.6412 218.028 98.7737 220.052 101.057C221.684 102.872 223.659 104.345 225.864 105.391C228.069 106.436 230.459 107.034 232.897 107.15C233.613 107.211 234.334 107.133 235.02 106.918C235.631 106.67 236.182 106.293 236.634 105.813C238.153 104.286 238.971 102.172 239.295 100.039C239.619 97.9065 239.495 95.7369 239.369 93.5858C239.369 93.1406 239.287 92.6992 239.128 92.2834C238.921 91.888 238.637 91.5384 238.292 91.2557C237.197 90.2498 235.991 89.3727 234.696 88.6417C234.141 88.3331 233.545 88.0245 233.19 87.4906C232.947 87.0654 232.788 86.5968 232.724 86.111L232.326 84.0865C232.256 83.5027 232.056 82.9419 231.743 82.4446C231.042 81.5002 229.7 81.3706 228.524 81.3243L224.203 81.1546C222.861 81.1021 221.095 80.7163 219.784 80.9818C218.549 81.2256 218.966 82.3551 219.188 83.3797C219.51 84.619 219.693 85.89 219.734 87.1696Z" fill="#FFC0C6"/>
<path opacity="0.1" d="M219.734 87.1696C219.509 89.1756 217.978 90.7928 217.41 92.7248C216.559 95.6412 218.028 98.7737 220.052 101.057C221.684 102.872 223.659 104.345 225.864 105.391C228.069 106.436 230.459 107.034 232.897 107.15C233.613 107.211 234.334 107.133 235.02 106.918C235.631 106.67 236.182 106.293 236.634 105.813C238.153 104.286 238.971 102.172 239.295 100.039C239.619 97.9065 239.495 95.7369 239.369 93.5858C239.369 93.1406 239.287 92.6992 239.128 92.2834C238.921 91.888 238.637 91.5384 238.292 91.2557C237.197 90.2498 235.991 89.3727 234.696 88.6417C234.141 88.3331 233.545 88.0245 233.19 87.4906C232.947 87.0654 232.788 86.5968 232.724 86.111L232.326 84.0865C232.256 83.5027 232.056 82.9419 231.743 82.4446C231.042 81.5002 229.7 81.3706 228.524 81.3243L224.203 81.1546C222.861 81.1021 221.095 80.7163 219.784 80.9818C218.549 81.2256 218.966 82.3551 219.188 83.3797C219.51 84.619 219.693 85.89 219.734 87.1696Z" fill="black"/>
<path d="M247.174 177.521L245.34 197.618C244.862 202.889 244.375 208.182 243.436 213.386C243.128 215.179 242.733 216.963 242.282 218.731C241.029 223.641 239.211 228.44 238.625 233.474C238.606 233.619 238.591 233.782 238.576 233.915C238.455 235.026 238.35 236.149 237.958 237.186C237.65 237.955 237.215 238.655 236.897 239.415C236.279 240.933 236.181 242.612 236.103 244.257C233.879 243.001 231.443 242.164 228.916 241.788C227.681 241.606 226.339 241.479 225.521 240.553C224.595 239.547 224.703 238.007 224.857 236.656C225.343 232.458 225.826 228.263 226.308 224.07C226.468 222.266 226.778 220.478 227.234 218.725C227.4 218.141 227.601 217.567 227.805 216.993C228.086 216.203 228.369 215.413 228.582 214.602C228.878 213.297 229.082 211.974 229.193 210.642C229.69 206.42 230.289 202.207 230.814 197.989L230.842 197.766C231.629 191.372 232.227 184.946 232.054 178.505C232.03 177.552 231.99 176.598 231.928 175.641C231.841 174.256 231.715 173.521 232.854 172.654C234.122 171.697 235.792 171.028 237.242 170.401C238.023 170.062 246.621 167.006 246.81 167.679C247.209 169.108 247.416 170.584 247.427 172.068C247.444 173.889 247.36 175.709 247.174 177.521Z" fill="#605D82"/>
<path opacity="0.1" d="M243.436 213.386C243.128 215.179 242.733 216.963 242.282 218.731C241.029 223.642 239.211 228.441 238.625 233.474C238.606 233.619 238.591 233.783 238.576 233.916C234.742 228.441 231.514 222.552 227.774 217.019C228.055 216.229 228.339 215.438 228.552 214.627C228.858 213.315 229.073 211.984 229.193 210.642C229.69 206.421 230.289 202.208 230.814 197.989L230.841 197.767C231.058 198.662 231.368 199.532 231.767 200.362C234.28 205.467 240.248 208.047 243.168 212.932C243.264 213.085 243.354 213.236 243.436 213.386Z" fill="black"/>
<path d="M212.334 168.506C212.46 172.598 213.114 176.657 213.769 180.7L215.117 189.032C215.855 193.6 216.626 198.257 218.787 202.346C220.404 205.408 222.731 208.019 224.839 210.762C230.017 217.509 233.909 225.153 238.819 232.097C240.248 234.116 242.288 236.301 244.723 235.878C246.322 235.603 247.482 234.27 248.735 233.245C250.217 232.035 252 231.15 253.167 229.631C254.334 228.113 254.562 225.595 252.982 224.514C252.442 224.147 251.784 224.008 251.173 223.774C248.726 222.848 247.14 220.453 246.134 218.033C245.128 215.614 244.513 213.018 243.171 210.768C240.251 205.883 234.28 203.303 231.767 198.195C230.36 195.337 230.224 192.023 230.119 188.853L229.845 180.734C229.814 179.845 229.792 178.922 230.153 178.11C231.113 175.95 234.014 175.746 236.366 175.472C239.033 175.16 241.616 174.345 243.979 173.07C245.334 172.339 246.655 171.407 247.374 170.049C248.035 168.815 248.124 167.361 248.201 165.96L249.016 151.242C249.087 149.976 249.149 148.665 248.707 147.48C247.587 144.498 243.822 143.523 240.64 143.665C234.721 143.931 229.258 146.477 223.666 148.199C222.28 148.625 220.888 149.007 219.46 149.294C218.225 149.544 216.682 149.443 215.497 149.844C213.374 150.56 213.426 155.208 213.127 157.133C212.509 160.891 212.243 164.699 212.334 168.506Z" fill="#605D82"/>
<path d="M243.921 236.501C244.442 237.029 244.612 237.801 244.748 238.529C245.502 242.571 245.895 246.673 245.921 250.784C245.887 251.168 245.963 251.553 246.14 251.895C246.288 252.098 246.487 252.258 246.717 252.358C248.226 253.077 249.976 252.074 251.235 250.973C253.565 248.933 255.537 246.192 255.67 243.097C255.704 242.3 255.614 241.495 255.753 240.708C255.957 239.541 256.639 238.526 257.238 237.508C258.262 235.772 259.09 233.927 259.707 232.008C259.935 231.286 260.089 230.378 259.522 229.875C259.323 229.717 259.095 229.599 258.852 229.527L252.031 226.996C251.439 226.777 249.97 230.551 249.738 230.965C249.167 231.974 248.6 232.545 247.455 232.78C246.31 233.014 244.896 232.675 243.804 233.258C241.952 234.242 242.875 235.449 243.921 236.501Z" fill="#535070"/>
<path d="M233.403 238.832C233.277 238.579 233.1 238.356 232.885 238.174C232.57 237.973 232.211 237.852 231.838 237.819C230.542 237.597 229.005 237.452 228.107 238.418C227.268 239.322 227.413 240.794 226.712 241.813C226.49 242.121 226.188 242.399 225.996 242.739C225.758 243.258 225.652 243.829 225.688 244.399C225.651 245.97 225.614 247.547 225.725 249.115C225.814 250.429 226.033 251.809 226.857 252.84C228.178 254.494 230.561 254.732 232.672 254.837L234.385 254.926C234.856 254.981 235.333 254.937 235.786 254.796C236.066 254.667 236.318 254.483 236.526 254.255C236.734 254.026 236.894 253.758 236.995 253.466C237.887 251.25 236.477 248.865 235.607 246.643C234.604 244.084 234.783 241.248 233.403 238.832Z" fill="#535070"/>
<path d="M219.24 75.8586C219.219 75.6339 219.251 75.4073 219.336 75.1981C219.586 74.7568 220.24 74.8895 220.734 75.0006C222.719 75.5006 224.811 75.0469 226.857 75.1642C228.903 75.2815 231.206 76.303 231.616 78.309C233.101 77.2585 234.38 75.9447 235.391 74.4328C235.958 73.584 236.452 72.6119 236.375 71.5934C236.264 70.1244 235.033 69.0257 233.906 68.0937L230.511 65.3161C230.064 64.9059 229.548 64.5779 228.987 64.347C228.203 64.0785 227.345 64.2082 226.518 64.2082C224.049 64.2082 221.401 63.0817 219.2 64.2082C218.274 64.6804 217.586 65.492 216.92 66.2821L213.886 69.8744C213.656 70.1034 213.488 70.3869 213.398 70.6985C213.312 71.1367 213.537 71.5688 213.617 72.0101C213.759 72.8125 213.414 73.6705 213.679 74.442C214.12 75.7197 215.676 75.9018 216.626 76.6363C216.978 76.9079 217.534 77.8368 217.957 77.8245C218.7 77.8091 219.219 76.4511 219.24 75.8586Z" fill="#3F3D56"/>
<path d="M224.388 86.4531C229.757 86.4531 234.11 82.1006 234.11 76.7315C234.11 71.3625 229.757 67.01 224.388 67.01C219.019 67.01 214.667 71.3625 214.667 76.7315C214.667 82.1006 219.019 86.4531 224.388 86.4531Z" fill="#FFC0C6"/>
<path d="M226.666 98.0054C226.337 97.0632 225.716 96.2499 224.895 95.683C224.073 95.1161 223.093 94.8249 222.095 94.8513C221.809 94.9059 221.513 94.8681 221.25 94.7433C221.1 94.6293 220.981 94.4812 220.901 94.3112C220.312 93.2473 219.837 92.1238 219.484 90.9596C219.33 90.4442 219.117 89.8362 218.595 89.7035C218.176 89.5955 217.747 89.8671 217.466 90.1973C217.217 90.5517 216.947 90.8907 216.657 91.2127C215.423 92.3052 213.263 91.3083 211.969 92.3114C211.756 92.4749 211.581 92.6848 211.352 92.836C211.13 92.9714 210.89 93.0753 210.639 93.1446C208.129 93.9613 205.668 94.9227 203.269 96.0241C204.134 101.221 205.016 106.517 207.041 111.378C208.004 113.693 209.093 115.961 209.865 118.347C211.574 123.633 211.648 129.29 211.67 134.848C211.67 138.651 211.67 142.533 210.436 146.132C210.158 146.946 209.818 147.755 209.741 148.601C209.664 149.446 209.917 150.403 210.611 150.909C211.013 151.174 211.475 151.336 211.954 151.381C214.087 151.69 216.235 151.128 218.333 150.641C223.959 149.338 229.7 148.591 235.425 147.863L245.023 146.629C245.711 146.58 246.385 146.406 247.01 146.113C248.766 145.153 248.933 142.512 247.84 140.833C247.319 140.027 246.581 139.367 246.14 138.515C245.699 137.663 245.665 136.466 246.421 135.876C247.964 134.673 247.501 132.441 247.575 130.491C247.781 125.034 247.753 119.582 247.492 114.134C247.413 113.004 247.394 111.871 247.436 110.739C247.544 108.819 248.019 106.94 248.495 105.073L251.411 93.5921C250.649 92.3885 249.189 91.6231 247.809 91.2775C246.43 90.9318 244.989 90.83 243.628 90.4072C240.85 89.543 238.356 87.3518 235.446 87.5555C235.225 87.5595 235.008 87.6122 234.81 87.7098C234.156 88.0833 234.258 89.0277 234.218 89.7807C234.125 91.4503 232.897 92.8422 231.545 93.8205C230.193 94.7988 228.644 95.5087 227.4 96.6228C227.184 96.7856 227.007 96.9938 226.88 97.2327C226.753 97.4715 226.68 97.7353 226.666 98.0054Z" fill="#3F3D56"/>
<path d="M188.147 108.896C187.503 109.315 186.819 109.668 186.104 109.949C185.425 110.217 184.7 110.43 184.144 110.899C183.869 111.138 183.638 111.423 183.462 111.742C183.133 112.325 182.967 112.987 182.981 113.656C182.994 114.326 183.187 114.98 183.54 115.55C183.892 116.119 184.391 116.584 184.984 116.895C185.578 117.206 186.244 117.352 186.913 117.319C187.804 117.272 188.647 116.911 189.465 116.556L196.322 113.572C197.483 113.069 198.736 112.483 199.285 111.341C199.348 111.234 199.372 111.108 199.353 110.986C199.3 110.851 199.199 110.741 199.069 110.677C197.524 109.672 196.172 108.396 195.079 106.912C194.798 106.529 194.461 105.628 194.054 105.397C192.603 104.591 189.311 108.143 188.147 108.896Z" fill="#FFC0C6"/>
<path d="M261.45 106.473L263.978 109.362C264.521 109.979 265.064 110.597 265.558 111.263C266.773 112.937 267.748 114.772 268.453 116.716C269.002 118.158 269.459 119.695 269.268 121.225C269.14 122.01 268.927 122.779 268.635 123.518C268.172 124.94 267.597 126.323 266.916 127.654C266.347 128.664 265.705 129.63 264.993 130.546C263.036 133.14 260.893 135.589 258.583 137.875C257.719 138.73 257.349 140.116 256.982 141.27C256.287 143.403 254.636 145.066 253.04 146.64C252.527 147.183 251.96 147.671 251.346 148.097C250.428 148.69 249.353 148.995 248.26 148.973C247.783 148.976 247.311 148.878 246.874 148.686C245.782 148.168 245.226 146.906 245.112 145.702C245.011 144.608 245.194 143.507 245.643 142.505C247.093 139.292 250.818 137.9 253.451 135.555C254.994 134.181 256.176 132.453 257.343 130.746C258.133 129.68 258.793 128.522 259.309 127.299C259.895 125.728 259.667 123.87 260.182 122.278C260.398 121.602 260.799 120.994 261.018 120.324C261.237 119.655 261.312 118.861 260.901 118.284C260.593 117.915 260.2 117.627 259.756 117.445C258.074 116.593 256.191 115.494 255.871 113.633C255.742 112.603 256.011 111.562 256.624 110.723C257.233 109.895 257.945 109.148 258.744 108.501C259.475 107.841 260.713 107.109 261.45 106.473Z" fill="#FFC0C6"/>
<path d="M186.524 112.927C186.079 112.026 185.521 111.106 184.619 110.658C184.181 110.469 183.708 110.372 183.231 110.372C182.753 110.372 182.28 110.469 181.842 110.658C180.969 111.036 180.151 111.53 179.41 112.127L177.231 113.735C176.737 114.059 176.3 114.463 175.938 114.93C175.592 115.496 175.364 116.125 175.265 116.781C174.957 118.284 174.707 119.831 174.923 121.352C175.268 123.821 176.75 125.957 178.379 127.833C179.398 129 180.657 130.179 182.206 130.231C182.876 130.253 183.62 129.987 183.897 129.379C183.994 129.138 184.045 128.88 184.049 128.62C184.215 125.88 183.234 123.204 182.092 120.707C181.783 120.028 181.45 119.324 181.475 118.581C181.465 118.454 181.498 118.329 181.567 118.223C181.665 118.12 181.796 118.055 181.938 118.041C183.502 117.732 186.2 118.948 187.295 117.21C188.005 116.062 187.03 113.948 186.524 112.927Z" fill="#FFC0C6"/>
<path d="M218.728 72.7997C218.709 72.5749 218.743 72.3486 218.827 72.1393C219.077 71.6949 219.731 71.8307 220.225 71.9418C222.209 72.4417 224.302 71.9881 226.348 72.1053C228.394 72.2226 230.693 73.2442 231.107 75.2502C232.59 74.1979 233.869 72.8844 234.881 71.3739C235.449 70.5221 235.943 69.55 235.866 68.5315C235.755 67.0625 234.52 65.9638 233.397 65.0349L230.002 62.2573C229.556 61.8471 229.041 61.519 228.481 61.2882C227.694 61.0197 226.839 61.1493 226.012 61.1493C223.543 61.1493 220.895 60.0229 218.694 61.1493C217.768 61.6215 217.08 62.4332 216.414 63.2233L213.377 66.8156C213.148 67.0451 212.982 67.3285 212.892 67.6396C212.806 68.0779 213.031 68.5099 213.111 68.9512C213.253 69.7537 212.908 70.6116 213.173 71.3801C213.614 72.6609 215.17 72.843 216.12 73.5775C216.472 73.8491 217.028 74.778 217.45 74.7657C218.182 74.7502 218.7 73.3923 218.728 72.7997Z" fill="#3F3D56"/>
<path d="M198.082 99.4401C197.69 99.6945 197.345 100.015 197.063 100.388C196.708 100.928 196.634 101.622 196.329 102.178C195.674 103.394 194.14 103.829 193.187 104.826C193.032 104.962 192.924 105.143 192.878 105.344C192.872 105.615 192.963 105.88 193.134 106.091L197.745 113.337C199.288 113.473 200.751 112.51 202.288 112.64C202.859 112.686 203.448 112.884 203.998 112.714C204.39 112.539 204.759 112.314 205.093 112.044C206.019 111.464 207.229 111.396 207.998 110.634C208.766 109.871 208.831 108.751 208.822 107.711C208.835 106.808 208.743 105.907 208.547 105.026C207.868 102.249 205.742 100.107 204.408 97.644C203.757 96.4434 203.405 95.7429 202.032 96.5669C200.659 97.3909 199.381 98.4896 198.082 99.4401Z" fill="#3F3D56"/>
<path d="M254.068 95.7769C254.935 96.3396 255.716 97.0234 256.389 97.8077C257.09 98.7119 257.488 99.8229 258.164 100.749C258.839 101.675 259.707 102.341 260.447 103.168C261.574 104.421 262.336 105.946 263.083 107.461C261.255 109.84 259.262 112.088 257.12 114.189C256.882 114.47 256.566 114.676 256.213 114.782C255.974 114.808 255.731 114.773 255.508 114.682C255.285 114.591 255.088 114.446 254.935 114.26C254.602 113.915 254.368 113.482 254.05 113.121C253.301 112.349 252.303 111.867 251.232 111.76C250.17 111.657 249.102 111.641 248.038 111.714C247.804 111.742 247.568 111.702 247.356 111.6C247.198 111.492 247.071 111.345 246.985 111.174C245.751 109.051 246.137 106.384 246.578 103.958L247.587 98.4033C247.734 97.3427 248.018 96.3054 248.43 95.3171C248.812 94.4992 249.664 93.1105 250.72 93.3573C251.775 93.6042 253.176 95.135 254.068 95.7769Z" fill="#3F3D56"/>
<path d="M166.059 136.499L144.798 140.848L144.314 140.802L125.63 138.916V115.239L148.502 111.372L165.093 113.307L165.099 113.412V113.461L166.059 136.499Z" fill="#050A30"/>
<path opacity="0.1" d="M166.059 136.499L144.798 140.847L144.314 140.801V116.528L165.099 113.411L166.059 136.499Z" fill="black"/>
<path opacity="0.05" d="M165.099 113.461L165.093 113.467L144.314 116.529L125.63 115.239L148.502 111.372L165.093 113.307L165.099 113.412V113.461Z" fill="black"/>
<path d="M177.169 113.044L155.909 117.396L155.424 117.347L136.74 115.461V91.7835L159.612 87.9165L176.203 89.8516L176.21 89.9565V90.0059L177.169 113.044Z" fill="#3F3D56"/>
<path opacity="0.1" d="M177.169 113.044L155.909 117.395L155.424 117.346V93.0731L176.21 89.9561L177.169 113.044Z" fill="black"/>
<path opacity="0.05" d="M176.21 90.0059L176.203 90.012L155.424 93.0735L136.74 91.7835L159.612 87.9165L176.203 89.8516L176.21 89.9565V90.0059Z" fill="black"/>
<path d="M251.886 170.855L254.192 169.432C254.411 169.293 254.627 169.145 254.849 169.006C249.905 168.156 245.399 165.643 242.077 161.882C238.756 158.122 236.818 153.34 236.585 148.329C236.416 144.882 237.067 141.444 238.486 138.298C239.807 135.355 241.758 132.738 244.201 130.63C246.643 128.523 249.519 126.977 252.624 126.102L252.51 135.175L257.494 125.299C257.514 125.296 257.535 125.296 257.556 125.299C260.444 125.164 263.331 125.6 266.051 126.581C268.771 127.561 271.271 129.068 273.408 131.015C275.546 132.962 277.279 135.311 278.509 137.928C279.739 140.545 280.441 143.379 280.576 146.267C280.594 146.687 280.576 147.1 280.576 147.501C282.31 145.523 283.884 143.403 284.927 141.079C287.038 136.373 287.088 131.043 286.912 124.565C286.578 111.726 286.026 98.792 285.304 85.8947C280.1 85.3168 275.272 82.902 271.689 79.0843C268.105 75.2666 266 70.2962 265.753 65.066C265.722 64.3901 265.731 63.7266 265.753 63.0661C265.753 62.9025 265.753 62.7359 265.777 62.5723C265.82 61.9335 265.879 61.3008 265.978 60.6774C265.978 60.5725 266.015 60.4737 266.033 60.3688C266.124 59.84 266.232 59.3174 266.358 58.801C266.407 58.6096 266.453 58.4152 266.506 58.2239C266.66 57.6622 266.814 57.1097 267.027 56.5635C267.092 56.3814 267.169 56.2055 267.237 56.0265C267.394 55.6253 267.564 55.2302 267.743 54.8383C267.839 54.6315 267.931 54.4278 268.033 54.2211C268.058 54.1686 268.08 54.1161 268.107 54.0637C270.431 49.474 274.29 45.8437 279.012 43.8037C283.735 41.7638 289.023 41.4432 293.957 42.8978L293.809 54.7056L298.747 44.9532C302.798 47.2716 306.001 50.8243 307.888 55.0924C309.776 59.3605 310.25 64.1204 309.24 68.6768H309.265C309.231 68.8342 309.182 68.9854 309.145 69.1397C309.077 69.4299 309.003 69.7169 308.922 70.0039C308.817 70.3711 308.7 70.7322 308.58 71.0933C308.487 71.3618 308.398 71.6365 308.296 71.9019C308.148 72.2908 307.987 72.6704 307.808 73.05C307.71 73.2722 307.62 73.4975 307.5 73.7166C307.218 74.2844 306.909 74.84 306.574 75.3831C306.46 75.5714 306.33 75.7504 306.21 75.9387C305.975 76.3028 305.737 76.6639 305.481 77.0157C305.324 77.2318 305.154 77.4385 304.988 77.6515C304.747 77.9601 304.5 78.2687 304.244 78.5496C304.062 78.7564 303.876 78.96 303.685 79.1668C303.417 79.4507 303.139 79.7254 302.852 79.997C302.664 80.1791 302.472 80.3612 302.275 80.534C301.951 80.821 301.611 81.0957 301.269 81.3642C301.096 81.5 300.929 81.642 300.75 81.7716C300.23 82.1584 299.692 82.5215 299.136 82.861C299.031 82.9227 298.92 82.9752 298.827 83.0369C298.365 83.3116 297.902 83.5677 297.405 83.8085C297.198 83.9103 296.982 83.9998 296.769 84.0955C296.371 84.2745 295.97 84.4473 295.559 84.6047C295.322 84.6942 295.078 84.7775 294.834 84.8609C294.43 84.9997 294.019 85.1263 293.599 85.2405C293.353 85.3084 293.109 85.3763 292.859 85.4349C292.408 85.5429 291.948 85.6324 291.485 85.7096C291.455 85.7096 291.427 85.7096 291.396 85.7281C291.7 91.168 291.971 96.6111 292.208 102.057C293.52 99.3624 295.37 96.9642 297.642 95.0098C299.915 93.0553 302.563 91.5858 305.424 90.6914C308.285 89.797 311.299 89.4965 314.28 89.8085C317.261 90.1204 320.147 91.0381 322.761 92.5054L318.869 103.168L326.875 95.4805C331.16 99.4085 333.713 104.876 333.973 110.683C334.075 112.721 333.887 114.763 333.414 116.747C332.409 121.043 330.136 124.937 326.89 127.924C323.644 130.911 319.575 132.854 315.211 133.5C310.847 134.147 306.39 133.467 302.417 131.549C298.445 129.631 295.14 126.563 292.933 122.744C292.933 123.296 292.973 123.852 292.988 124.404C293.133 130.12 293.315 137.231 290.467 143.582C288.538 147.887 285.43 151.384 282.359 154.516C280.363 156.556 278.292 158.528 276.169 160.439C274.081 163.242 271.356 165.508 268.218 167.049C264.731 169.737 261.12 172.253 257.386 174.598L255.118 176.061C253.022 177.36 250.874 178.694 248.766 180.073C249.136 180.036 249.504 179.996 249.88 179.981C254.546 179.762 259.161 181.032 263.057 183.608C266.954 186.184 269.931 189.932 271.558 194.31L257.799 205.51L272.922 202.001C272.918 205.724 271.97 209.385 270.167 212.643C268.364 215.9 265.765 218.647 262.612 220.628C259.459 222.608 255.856 223.757 252.139 223.967C248.422 224.178 244.712 223.442 241.356 221.83C241.696 222.255 242.038 222.678 242.378 223.101C243.054 223.944 243.726 224.78 244.384 225.61C253.334 236.946 255.827 247.71 251.393 255.917L246.004 253.003C250.325 245.016 243.844 234.795 239.575 229.406C238.93 228.591 238.27 227.771 237.603 226.937C231.885 219.839 225.404 211.778 225.567 201.899C225.799 187.023 240.27 178.052 251.886 170.855Z" fill="#F2F2F2"/>
</svg>
