<svg width="18" height="18" viewBox="0 0 18 18" fill="none" xmlns="http://www.w3.org/2000/svg">
<g clip-path="url(#clip0_124:454)">
<path d="M12.2996 2.18645C11.92 2.02062 11.4779 2.19391 11.312 2.57349C11.1462 2.95308 11.3195 3.3952 11.6991 3.56104C14.1394 4.62712 15.7501 7.04073 15.7501 9.74982C15.7501 13.4776 12.7276 16.4999 9.00004 16.4999C5.27197 16.4999 2.24999 13.4779 2.24999 9.74982C2.24999 7.04132 3.86016 4.62772 6.29974 3.56093C6.67925 3.39499 6.8524 2.95279 6.68643 2.57328C6.52049 2.19376 6.07829 2.02062 5.69877 2.18659C2.71789 3.49002 0.75 6.43987 0.75 9.74978C0.75 14.3063 4.44358 17.9999 9.00008 17.9999C13.5561 17.9999 17.2502 14.306 17.2502 9.74978C17.2502 6.43909 15.2815 3.48911 12.2996 2.18645Z" fill="#11163A"/>
<path d="M8.99951 8.25008C9.41372 8.25008 9.7495 7.9143 9.7495 7.50008V0.750029C9.74953 0.33578 9.41372 0 8.99951 0C8.58529 0 8.24951 0.33578 8.24951 0.749994V7.50005C8.24951 7.91426 8.58529 8.25008 8.99951 8.25008Z" fill="#11163A"/>
</g>
<defs>
<clipPath id="clip0_124:454">
<rect width="18" height="18" fill="white"/>
</clipPath>
</defs>
</svg>
