<svg xmlns="http://www.w3.org/2000/svg" width="270" height="170" viewBox="0 0 270 170">
  <g id="Group_4141" data-name="Group 4141" transform="translate(1602 -4549)">
    <rect id="Rectangle_17518" data-name="Rectangle 17518" width="270" height="170" transform="translate(-1602 4549)" fill="none"/>
    <g id="Group_4009" data-name="Group 4009" transform="translate(-1692 4447.93)">
      <g id="Group_3396" data-name="Group 3396" transform="translate(94 226.789)">
        <path id="Path_25" data-name="Path 25" d="M165.352,66.675h-9.2L144.577,80.557h-3.7a37.22,37.22,0,0,0-9.7,1.185q-5.613,1.528-8.383,4.716a6.2,6.2,0,0,0-1.718,4.068,4.006,4.006,0,0,0,2.31,3.7,9.357,9.357,0,0,0,4.506.993q9.185,0,18.81-11.61h5.862l-3.59,9.93H155.8l3.589-9.93h.542q3.685,0,4.66-3.056h-4.171ZM137.206,88.291q-3.552,2.673-5.92,2.673-1.719,0-1.719-1.642,0-1.93,2.387-3.648,2.884-2.061,10.044-2.062A21.556,21.556,0,0,1,137.206,88.291Zm16.287-7.734h-4.257l5.8-7.428,2.565-3.284-1.758,4.583Z" transform="translate(12.522 -66.635)" fill="#d2181b"/>
        <path id="Path_26" data-name="Path 26" d="M188.721,73.385q0,5.974-8.254,10.252a48.209,48.209,0,0,1-13.118,4.38l-2.462,7.023h-7.367l7.367-20.707h7.305l-3.47,9.708a22.558,22.558,0,0,0,6.942-2.765q4.219-2.644,4.38-6.155a2.746,2.746,0,0,0-1.514-2.967,9.777,9.777,0,0,0-3.491-.424H154.412l3.149-5.087h20.786a16.883,16.883,0,0,1,6.963,1.131A5.685,5.685,0,0,1,188.721,73.385Z" transform="translate(22.115 -66.644)" fill="#d2181b"/>
        <path id="Path_27" data-name="Path 27" d="M215.6,73.385q0,5.974-8.256,10.252a48.208,48.208,0,0,1-13.118,4.38l-2.462,7.023H184.4l7.366-20.707h7.307L195.6,84.041a22.545,22.545,0,0,0,6.942-2.765q4.219-2.644,4.38-6.155a2.743,2.743,0,0,0-1.513-2.967,9.781,9.781,0,0,0-3.491-.424H181.294l3.148-5.087H205.23a16.892,16.892,0,0,1,6.963,1.131A5.685,5.685,0,0,1,215.6,73.385Z" transform="translate(29.849 -66.644)" fill="#d2181b"/>
        <path id="Path_28" data-name="Path 28" d="M213.986,68.1q2.235-.583,4.5-.956a27.229,27.229,0,0,1,2.721-.373c.215,0,.323.088.323.26a2.239,2.239,0,0,1-.259,1,8.675,8.675,0,0,0-.518,2.848q0,1.684,1.946,4.6a9.94,9.94,0,0,1,1.941,5.411q0,4.956-4.745,9.556t-9.832,4.6a7.269,7.269,0,0,1-4.016-1.167q-1.816-1.167-1.814-2.494,0-.778,1.8-2.948t2.575-2.171q1.037,0,1.847,2.657t2.785,2.657a5.09,5.09,0,0,0,3.71-1.83,5.653,5.653,0,0,0,1.733-3.938q0-2.04-2.2-5.441a24.515,24.515,0,0,1-2.917-5.7,86.408,86.408,0,0,1-9.524,12.407H203.3V84.164Q211.232,75.709,213.986,68.1Z" transform="translate(36.18 -66.608)" fill="#d2181b"/>
        <g id="Group_8" data-name="Group 8" transform="translate(0 0)">
          <path id="Path_29" data-name="Path 29" d="M57.186,66.644l-3.119,5.1H46.9l-3.361,9.621h6.521q-.284,3.2-3.868,3.24l-3.808.041L40.8,89.125Q38.7,95.14,32.458,95.14H18.28a16.687,16.687,0,0,1,1.559-3.221A3.114,3.114,0,0,1,23.1,90.279l9.457,1.5,7.008-20.031H27.981a7.79,7.79,0,0,0-4.7,1.52,5,5,0,0,0-2.268,4.172q0,1.742,1.174,1.984a4.748,4.748,0,0,1,1.984-3.017,5.691,5.691,0,0,1,3.443-1.093,5.481,5.481,0,0,1,3.646,1.3,4.419,4.419,0,0,1,1.66,3.564,4.334,4.334,0,0,1-1.984,3.787,7.275,7.275,0,0,1-4.233,1.174,11.032,11.032,0,0,1-6.5-1.822,6.537,6.537,0,0,1-2.877-5.63A9.71,9.71,0,0,1,21.581,69.3,15.723,15.723,0,0,1,30.9,66.644Z" transform="translate(-17.328 -66.644)" fill="#d2181b"/>
          <path id="Path_30" data-name="Path 30" d="M129.109,76.1a14.925,14.925,0,0,1-2.572,7.837,22.338,22.338,0,0,1-9.883,8.446,30.3,30.3,0,0,1-12.84,2.754H97.131l7.331-20.78h7.312L105.557,91.9a14.782,14.782,0,0,0,7.908-2.451,15.151,15.151,0,0,0,5.721-6.055,12.328,12.328,0,0,0,1.62-5.307q0-3.483-1.944-5a8.75,8.75,0,0,0-5.347-1.337H93.931l3.119-5.1h19.6a15.516,15.516,0,0,1,8.466,2.147A8.146,8.146,0,0,1,129.109,76.1Z" transform="translate(4.713 -66.644)" fill="#d2181b"/>
          <g id="Group_6" data-name="Group 6" transform="translate(37.163 0.023)">
            <path id="Path_31" data-name="Path 31" d="M75.976,76.979a17.207,17.207,0,0,1-5.841,12.927,18.126,18.126,0,0,1-12.727,5.32A11.556,11.556,0,0,1,49.2,92.415a10.031,10.031,0,0,1-3.011-7.708,14.342,14.342,0,0,1,1.185-5.419c.749-1.834,4.635-6.678,5.866-8.163H62.07c-1.512,1.338-5.658,6.235-6.649,8.323a14.5,14.5,0,0,0-1.505,6.163,7.911,7.911,0,0,0,1,4.116,3.827,3.827,0,0,0,3.473,2.006q3.774,0,6.825-4.878a15.989,15.989,0,0,0,2.709-8.39A6.572,6.572,0,0,0,66.08,73.5a7.052,7.052,0,0,0-5.1-1.776H48.407l3.071-5.058H62.707a16.469,16.469,0,0,1,9.134,2.288A8.976,8.976,0,0,1,75.976,76.979Z" transform="translate(-46.187 -66.662)" fill="#d2181b"/>
          </g>
          <g id="Group_7" data-name="Group 7" transform="translate(67.988 0.023)">
            <path id="Path_32" data-name="Path 32" d="M99.914,76.979a17.207,17.207,0,0,1-5.841,12.927,18.123,18.123,0,0,1-12.727,5.32,11.553,11.553,0,0,1-8.209-2.811,10.027,10.027,0,0,1-3.012-7.708,14.342,14.342,0,0,1,1.185-5.419c.749-1.834,4.635-6.678,5.866-8.163h8.833c-1.512,1.338-5.658,6.235-6.649,8.323a14.519,14.519,0,0,0-1.505,6.163,7.911,7.911,0,0,0,1,4.116,3.828,3.828,0,0,0,3.473,2.006q3.774,0,6.825-4.878a15.988,15.988,0,0,0,2.709-8.39A6.572,6.572,0,0,0,90.018,73.5a7.052,7.052,0,0,0-5.1-1.776H72.345l3.071-5.058h11.23a16.464,16.464,0,0,1,9.133,2.288A8.976,8.976,0,0,1,99.914,76.979Z" transform="translate(-70.125 -66.662)" fill="#d2181b"/>
          </g>
        </g>
      </g>
      <g id="Group_3463" data-name="Group 3463" transform="translate(137.507 110.07)">
        <path id="Path_4864" data-name="Path 4864" d="M-791.307,25.451l-56.372-8.932.036-.362h20.219c3.087,0,6.18-.12,9.259.039,2.4.123,4.459-.262,6.111-2.142a4.559,4.559,0,0,1,3.771-1.343c8.741.059,17.483.025,26.225.022a4.892,4.892,0,0,0,2.219-.359l-55.078-8.728.024-.376q8.226,0,16.451,0,11.686,0,23.372.023a7,7,0,0,0,2.766-.575,82.282,82.282,0,0,1,21.263-5.462c1.04-.131,1.867-.321,2.181-1.421s1.195-1.107,2.1-1.184c2.236-.189,2.64-1.117,1.387-3.085-1.769-2.778-.422-5.9,2.793-6.852a3.482,3.482,0,0,1,4.108,1.167,3.622,3.622,0,0,1,.112,4.339,20.17,20.17,0,0,1-1.56,1.826c-1.054,1.369-.624,2.421,1.041,2.624.562.068,1.466-.154,1.561.487.422,2.848,2.786,2.123,4.432,2.4,14.282,2.381,26.8,8.095,36.456,19.191a58.638,58.638,0,0,1,13.383,28.508,65.424,65.424,0,0,1,.67,18.2,2.51,2.51,0,0,0,.675,2.111c1.331,1.614,2.328,3.11,4.843,3.517a4.407,4.407,0,0,1,3.525,5.316,5.594,5.594,0,0,1-5.679,4.648q-24.032,0-48.064.03c-1.638,0-2.235-.136-1.942-2.146,2.755-18.882,5.361-37.786,8-56.685a11.917,11.917,0,0,0,.008-1.471c-5.227,1.455-7.831,5.186-9.13,9.922-2.181,7.95-3.119,16.128-4.045,24.3-.148,1.313-.236,2.635-.408,3.944a15.16,15.16,0,0,0,1.337,9c2.05,4.093.817,8.179-.071,12.268-.172.788-.686.84-1.3.84q-10.583,0-21.165.012c-.909,0-1.4-.273-1.273-1.269,1.058-8.516.772-17.177,2.787-25.593a7.57,7.57,0,0,1,4-5.394c4.1-2.2,5.774-6.167,6.294-10.556a20.707,20.707,0,0,0-2.794-13.772c-2.6-4.155-5.877-4.638-9.476-1.3a25.266,25.266,0,0,0-8.267,17.478c-.227,3.661.995,6.843,4.362,8.784,1.565.9,1.612,2.349,1.647,3.806.11,4.592-.9,9.043-1.8,13.505-.844,4.172-1.742,8.335-2.472,12.527-.241,1.384-.789,1.808-2.144,1.806q-33.182-.058-66.365-.056c-2.591,0-4.359-3.895-2.816-6.407a7.477,7.477,0,0,1,6.441-3.954,3.5,3.5,0,0,0,.658.008c.635-.137,4.51-4.874,4.585-5.573.354-3.309.417-3.355,3.754-3.353,9.616.005,19.231,0,28.89-.332-9.617-1.507-19.25-2.923-28.848-4.549-9.361-1.585-18.835-2.479-28.737-4.715,9.24,0,17.849-.032,26.457.03a2.591,2.591,0,0,0,2.929-1.875c2.307-5.817,2.379-5.788,8.51-5.788,9.773,0,19.546,0,29.381-.387l-55.915-8.884.035-.336c8.137,0,16.274-.033,24.41.034,1.318.011,2.273-.241,2.88-1.454,2.367-4.729,6.025-6.2,11.381-5.864,8.623.536,17.3.144,25.958.144Z" transform="translate(867.375 15.51)" fill="#d2181b"/>
      </g>
    </g>
  </g>
</svg>
