<svg width="12" height="20" viewBox="0 0 12 20" fill="none" xmlns="http://www.w3.org/2000/svg">
<path d="M6.64207 8.01886V2.27111L8.16505 3.79629C8.4244 4.05607 8.84497 4.05612 9.10437 3.79629C9.36376 3.53652 9.36376 3.11536 9.10437 2.85558L6.44754 0.194833C6.18819 -0.0649445 5.76762 -0.0649445 5.50822 0.194833L2.8514 2.85558C2.592 3.11536 2.592 3.53652 2.8514 3.79629C3.11075 4.05607 3.53132 4.05607 3.79072 3.79629L5.31365 2.27111V8.01944C2.32889 8.35141 0 10.8927 0 13.969C0 17.2945 2.68167 20 5.97786 20C9.283 20 12 17.2781 12 13.969C12 10.8911 9.65128 8.34862 6.64207 8.01886ZM5.97786 18.6696C3.41416 18.6696 1.32841 16.5609 1.32841 13.969C1.32841 11.4015 3.41416 9.31265 5.97786 9.31265C8.56596 9.31265 10.6716 11.4015 10.6716 13.969C10.6716 16.5609 8.56596 18.6696 5.97786 18.6696Z" fill="white"/>
</svg>
