<?xml version="1.0" encoding="utf-8"?>
<!-- Generator: Adobe Illustrator 25.1.0, SVG Export Plug-In . SVG Version: 6.00 Build 0)  -->
<svg version="1.1" id="Layer_1" xmlns="http://www.w3.org/2000/svg" xmlns:xlink="http://www.w3.org/1999/xlink" x="0px" y="0px"
	 viewBox="0 0 595.28 841.89" style="enable-background:new 0 0 595.28 841.89;" xml:space="preserve">
<style type="text/css">
	.st0{fill:#676767;stroke:#676767;stroke-miterlimit:10;}
	.st1{fill:#FFFFFF;stroke:#FFFFFF;stroke-miterlimit:10;}
</style>
<g>
	<path class="st0" d="M267.79,401.4c0-0.32,0.04-1.71,1.13-2.86c0.86-0.91,1.88-1.15,2.25-1.22c5.77,0,11.54,0,17.32,0l5.35,5.91
		h30.69c0.97-0.21,1.98,0.11,2.63,0.84c0.89,1,0.64,2.26,0.61,2.39c0,11.54,0,23.09,0,34.63c0.02,0.15,0.3,2-1.08,3.28
		c-1.04,0.96-2.31,0.95-2.58,0.94c-17.46,0-34.91,0-52.37,0c-0.24,0.04-1.43,0.19-2.53-0.61c-1.24-0.9-1.39-2.28-1.41-2.49
		C267.79,428.62,267.79,415.01,267.79,401.4z"/>
	<polygon class="st1" points="273.85,403.23 286.73,403.23 291.79,409.29 321.78,409.29 321.78,439.34 273.85,439.34 	"/>
	<path class="st0" d="M297.79,418.57c0.37-0.51,1-1.23,1.97-1.83c0.52-0.32,1.02-0.53,1.43-0.67c0.39-0.12,0.86-0.24,1.39-0.31
		c0.89-0.12,1.67-0.08,2.26,0c0.24,0.01,1.11,0.09,1.86,0.8c0.83,0.8,0.89,1.8,0.89,2.01c0.18,0.79,0.31,1.95,0,3.26
		c0,0-0.12,0.49-0.31,0.98c-0.58,1.45-4.18,5.02-9.48,9.29c-4.91-3.99-8.16-7.28-8.54-8.04c-0.16-0.33-0.31-0.65-0.45-0.98
		c-0.15-0.33-0.29-0.72-0.4-1.16c-0.33-1.33-0.17-2.49,0-3.21c0.18-0.44,0.53-1.15,1.21-1.83c0.59-0.59,1.2-0.93,1.61-1.12
		c0.48-0.12,1.33-0.25,2.33,0c0.46,0.12,0.83,0.29,1.12,0.45c0.32,0.11,0.67,0.25,1.03,0.45
		C296.74,417.24,297.41,418.02,297.79,418.57z"/>
</g>
</svg>
