<svg width="18" height="17" viewBox="0 0 18 17" fill="none" xmlns="http://www.w3.org/2000/svg">
<path d="M9.00001 0C4.03742 0 2.41897e-05 3.61235 2.41897e-05 8.05263C2.41897e-05 9.6047 0.493824 11.1082 1.43042 12.4082C1.25312 14.3578 0.777923 15.8052 0.0879241 16.4909C-0.0032758 16.5816 -0.0260758 16.7202 0.0315241 16.8348C0.0825241 16.9371 0.187524 17 0.300024 17C0.313824 17 0.327624 16.9991 0.341724 16.997C0.463224 16.98 3.28562 16.5762 5.32712 15.4047C6.48632 15.8696 7.72111 16.1053 9.00001 16.1053C13.9626 16.1053 18 12.4929 18 8.05263C18 3.61235 13.9626 0 9.00001 0ZM4.80002 9.24561C4.13822 9.24561 3.60002 8.71056 3.60002 8.05263C3.60002 7.3947 4.13822 6.85965 4.80002 6.85965C5.46182 6.85965 6.00002 7.3947 6.00002 8.05263C6.00002 8.71056 5.46182 9.24561 4.80002 9.24561ZM9.00001 9.24561C8.33821 9.24561 7.80001 8.71056 7.80001 8.05263C7.80001 7.3947 8.33821 6.85965 9.00001 6.85965C9.66181 6.85965 10.2 7.3947 10.2 8.05263C10.2 8.71056 9.66181 9.24561 9.00001 9.24561ZM13.2 9.24561C12.5382 9.24561 12 8.71056 12 8.05263C12 7.3947 12.5382 6.85965 13.2 6.85965C13.8618 6.85965 14.4 7.3947 14.4 8.05263C14.4 8.71056 13.8618 9.24561 13.2 9.24561Z" fill="#818181"/>
</svg>
