<?xml version="1.0" encoding="utf-8"?>
<!-- Generator: Adobe Illustrator 25.1.0, SVG Export Plug-In . SVG Version: 6.00 Build 0)  -->
<svg version="1.1" id="Layer_1" xmlns="http://www.w3.org/2000/svg" xmlns:xlink="http://www.w3.org/1999/xlink" x="0px" y="0px"
	 viewBox="0 0 595.28 841.89" style="enable-background:new 0 0 595.28 841.89;" xml:space="preserve">
<style type="text/css">
	.st0{clip-path:url(#SVGID_2_);fill:#676767;stroke:#FFFFFF;stroke-miterlimit:10;}
	.st1{fill:none;stroke:#676767;stroke-miterlimit:10;}
	.st2{clip-path:url(#SVGID_4_);}
	.st3{fill:#676767;}
	.st4{fill:#FFFFFF;stroke:#FFFFFF;stroke-miterlimit:10;}
	.st5{fill:none;}
</style>
<g>
	<g>
		<defs>
			<path id="SVGID_1_" d="M206.65,308.89v-55.75c-0.03-0.14-0.28-1.66,0.84-2.82c1.02-1.04,2.35-0.95,2.53-0.94h53.61
				c0.31,0.07,1.28,0.31,2.04,1.22c0.67,0.79,0.81,1.64,0.84,1.97c0,13.89,0,27.78,0,41.67c0.02,0.16,0.18,1.3-0.66,2.25
				c-0.87,0.99-2.08,0.95-2.23,0.94c-15.12-0.06-30.23-0.13-45.35-0.19L206.65,308.89z"/>
		</defs>
		<use xlink:href="#SVGID_1_"  style="overflow:visible;fill:#676767;"/>
		<clipPath id="SVGID_2_">
			<use xlink:href="#SVGID_1_"  style="overflow:visible;"/>
		</clipPath>
		<rect x="201.11" y="245.64" class="st0" width="73.49" height="65.6"/>
	</g>
	<path class="st1" d="M214.91,242.35"/>
	<g>
		<defs>
			<rect id="SVGID_3_" x="211.89" y="254.71" width="49.41" height="40.81"/>
		</defs>
		<clipPath id="SVGID_4_">
			<use xlink:href="#SVGID_3_"  style="overflow:visible;"/>
		</clipPath>
		<g class="st2">
			<polygon class="st1" points="212.59,255.35 260.52,255.35 260.52,291.32 215.75,291.32 212.59,294.42 			"/>
			<circle class="st3" cx="224.7" cy="273.4" r="2.92"/>
			<circle class="st3" cx="236.59" cy="273.4" r="2.92"/>
			<circle class="st3" cx="248.56" cy="273.4" r="2.92"/>
		</g>
	</g>
	<polygon class="st4" points="212.86,254.92 260.79,254.92 260.79,290.89 216.03,290.89 212.86,293.99 	"/>
	<circle class="st3" cx="224.98" cy="272.98" r="2.92"/>
	<circle class="st3" cx="236.86" cy="272.98" r="2.92"/>
	<circle class="st3" cx="248.83" cy="272.98" r="2.92"/>
	<rect x="212.16" y="254.28" class="st5" width="49.41" height="40.81"/>
</g>
</svg>
