<svg width="20" height="18" viewBox="0 0 20 18" fill="none" xmlns="http://www.w3.org/2000/svg">
<path d="M10 0.846191C4.95263 0.846191 0.846216 4.45854 0.846216 8.89882C0.846216 10.4509 1.34846 11.9543 2.30107 13.2544C2.12073 15.204 1.63741 16.6514 0.935618 17.3371C0.84286 17.4278 0.81967 17.5664 0.878254 17.681C0.930126 17.7833 1.03692 17.8462 1.15134 17.8462C1.16538 17.8462 1.17942 17.8453 1.19376 17.8432C1.31733 17.8262 4.18798 17.4224 6.26437 16.2509C7.44338 16.7158 8.69929 16.9515 10 16.9515C15.0475 16.9515 19.1539 13.3391 19.1539 8.89882C19.1539 4.45854 15.0475 0.846191 10 0.846191ZM5.72826 10.0918C5.05515 10.0918 4.50775 9.55675 4.50775 8.89882C4.50775 8.24089 5.05515 7.70584 5.72826 7.70584C6.40137 7.70584 6.94877 8.24089 6.94877 8.89882C6.94877 9.55675 6.40137 10.0918 5.72826 10.0918ZM10 10.0918C9.32694 10.0918 8.77954 9.55675 8.77954 8.89882C8.77954 8.24089 9.32694 7.70584 10 7.70584C10.6732 7.70584 11.2206 8.24089 11.2206 8.89882C11.2206 9.55675 10.6732 10.0918 10 10.0918ZM14.2718 10.0918C13.5987 10.0918 13.0513 9.55675 13.0513 8.89882C13.0513 8.24089 13.5987 7.70584 14.2718 7.70584C14.945 7.70584 15.4924 8.24089 15.4924 8.89882C15.4924 9.55675 14.945 10.0918 14.2718 10.0918Z" fill="#F4F4F4"/>
</svg>
