<svg width="15" height="24" viewBox="0 0 15 24" fill="none" xmlns="http://www.w3.org/2000/svg">
<path fill-rule="evenodd" clip-rule="evenodd" d="M1.25 8.50052C1.68147 8.50052 2.03125 8.89227 2.03125 9.37552V11.1255C2.03125 14.4923 4.49397 17.2505 7.5 17.2505C10.506 17.2505 12.9688 14.4923 12.9688 11.1255V9.37552C12.9688 8.89227 13.3185 8.50052 13.75 8.50052C14.1815 8.50052 14.5312 8.89227 14.5312 9.37552V11.1255C14.5312 15.1631 11.7858 18.5136 8.28125 18.9519V21.6255H10.625C11.0565 21.6255 11.4062 22.0173 11.4062 22.5005C11.4062 22.9838 11.0565 23.3755 10.625 23.3755H4.375C3.94353 23.3755 3.59375 22.9838 3.59375 22.5005C3.59375 22.0173 3.94353 21.6255 4.375 21.6255H6.71875V18.9519C3.21425 18.5136 0.46875 15.1631 0.46875 11.1255V9.37552C0.46875 8.89227 0.818528 8.50052 1.25 8.50052Z" fill="#B7B7B7"/>
<path d="M7.5 15.5005C6.98439 15.4992 6.47429 15.3818 5.99996 15.1554C5.52563 14.929 5.09674 14.5982 4.73877 14.1826C4.00594 13.3548 3.59445 12.2365 3.59375 11.0708V5.00052C3.59175 4.42536 3.69142 3.85544 3.88702 3.32363C4.08262 2.79182 4.37027 2.30863 4.7334 1.90193C5.09653 1.49523 5.52795 1.17305 6.00278 0.953982C6.47761 0.734912 6.98646 0.62328 7.5 0.625521C9.69043 0.625521 11.4062 2.54724 11.4062 5.00052V11.0708C11.4062 13.5132 9.65381 15.5005 7.5 15.5005Z" fill="#B7B7B7"/>
</svg>
