<svg width="13" height="13" viewBox="0 0 13 13" fill="none" xmlns="http://www.w3.org/2000/svg">
<path d="M11.5104 0H1.48958C0.667875 0 0 0.667875 0 1.48958V11.5104C0 12.3321 0.667875 13 1.48958 13H11.5104C12.3321 13 13 12.3321 13 11.5104V1.48958C13 0.667875 12.3321 0 11.5104 0ZM9.34375 7.04167H3.65625C3.35671 7.04167 3.11458 6.799 3.11458 6.5C3.11458 6.201 3.35671 5.95833 3.65625 5.95833H9.34375C9.64329 5.95833 9.88542 6.201 9.88542 6.5C9.88542 6.799 9.64329 7.04167 9.34375 7.04167Z" fill="#9B9B9B"/>
</svg>
