<svg width="22" height="41" viewBox="0 0 22 41" fill="none" xmlns="http://www.w3.org/2000/svg">
<path d="M19.2451 0H2.29016C1.02733 0 0 1.1 0 2.45161V4.06906H21.5345V2.45161C21.5346 1.1 20.5073 0 19.2451 0ZM13.9346 3.39091H7.60132C7.25175 3.39091 6.96801 3.08708 6.96801 2.71276C6.96801 2.33844 7.25175 2.03461 7.60132 2.03461H13.9346C14.2842 2.03461 14.5679 2.33844 14.5679 2.71276C14.5679 3.08708 14.2842 3.39091 13.9346 3.39091ZM18.3679 3.39091H17.7346C17.385 3.39091 17.1013 3.08708 17.1013 2.71276C17.1013 2.33844 17.385 2.03461 17.7346 2.03461H18.3679C18.7175 2.03461 19.0012 2.33844 19.0012 2.71276C19.0013 3.08708 18.7175 3.39091 18.3679 3.39091Z" fill="#F4F4F4"/>
<path d="M11.5538 35.9434H9.98121C9.71647 35.9434 9.50049 36.1739 9.50049 36.4581V36.7857C9.50049 37.0692 9.7158 37.2997 9.98121 37.2997H11.5538C11.8185 37.2997 12.0338 37.0692 12.0338 36.7857V36.4581C12.0345 36.1739 11.8185 35.9434 11.5538 35.9434Z" fill="#F4F4F4"/>
<path d="M21.5347 5.4248H0.00146484V32.552H21.5347V5.4248Z" fill="#F4F4F4"/>
<path d="M0.00146484 33.9087V38.2388C0.00146484 39.5904 1.02872 40.6904 2.29096 40.6904H19.2459C20.5081 40.6904 21.5354 39.5904 21.5354 38.2388V33.9087H0.00146484ZM13.3014 36.7855C13.3014 37.817 12.518 38.6559 11.5547 38.6559H9.98215C9.01886 38.6559 8.23482 37.817 8.23482 36.7855V36.4579C8.23482 35.4264 9.01886 34.5868 9.98215 34.5868H11.5547C12.518 34.5868 13.3014 35.4264 13.3014 36.4579V36.7855Z" fill="#F4F4F4"/>
</svg>
