<svg width="51" height="51" viewBox="0 0 51 51" fill="none" xmlns="http://www.w3.org/2000/svg">
<path d="M25.5 18.5938C24.3249 18.5938 23.375 17.6439 23.375 16.4688V10.625C23.375 7.11026 20.5148 4.25001 17 4.25001C13.4853 4.25001 10.625 7.11026 10.625 10.625V16.4688C10.625 17.6439 9.67513 18.5938 8.5 18.5938C7.32488 18.5938 6.375 17.6439 6.375 16.4688V10.625C6.375 4.76638 11.1414 0 17 0C22.8587 0 27.625 4.76638 27.625 10.625V16.4688C27.625 17.6439 26.6752 18.5938 25.5 18.5938Z" fill="#90A4AE"/>
<path d="M29.2188 42.5H4.78126C2.14625 42.5 0 40.3538 0 37.7188V19.6563C0 17.0213 2.14625 14.875 4.78126 14.875H29.2188C31.8538 14.875 34 17.0213 34 19.6563V37.7188C34 40.3538 31.8538 42.5 29.2188 42.5Z" fill="#FFC107"/>
<path d="M17 0C11.1414 0 6.375 4.76638 6.375 10.625V14.875H10.625V10.625C10.625 7.11026 13.4853 4.25001 17 4.25001V0Z" fill="#7D8F97"/>
<path d="M17 14.875H10.625H6.37501H4.78126C2.14625 14.875 0 17.0213 0 19.6563V37.7188C0 40.3538 2.14625 42.5 4.78126 42.5H17V14.875Z" fill="#DEA806"/>
<path d="M42.5 40.375C40.1561 40.375 38.25 38.471 38.25 36.125C38.25 33.779 40.1561 31.875 42.5 31.875C44.8439 31.875 46.75 33.779 46.75 36.125C46.75 38.471 44.8439 40.375 42.5 40.375Z" fill="#565F9D"/>
<path d="M49.4063 51H35.5938C34.714 51 34 50.286 34 49.4063V48.3438C34 45.1201 36.6201 42.5 39.8438 42.5H45.1563C48.3799 42.5 51 45.1201 51 48.3438V49.4063C51 50.286 50.286 51 49.4063 51Z" fill="#565F9D"/>
<path d="M42.5 31.875C40.1561 31.875 38.25 33.779 38.25 36.125C38.25 38.471 40.1561 40.375 42.5 40.375V31.875Z" fill="#3A4385"/>
<path d="M42.5 42.5H39.8438C36.6201 42.5 34 45.1201 34 48.3438V49.4063C34 50.286 34.714 51 35.5938 51H42.5V42.5Z" fill="#3A4385"/>
</svg>
