<svg width="15" height="18" viewBox="0 0 15 18" fill="none" xmlns="http://www.w3.org/2000/svg">
<path d="M14.2113 12.4029C13.1025 11.4657 12.4667 10.0958 12.4667 8.64454V6.6C12.4667 4.0194 10.5497 1.8832 8.06667 1.52533V0.733334C8.06667 0.3278 7.73814 0 7.33334 0C6.92854 0 6.6 0.3278 6.6 0.733334V1.52533C4.1162 1.8832 2.2 4.0194 2.2 6.6V8.64454C2.2 10.0958 1.5642 11.4657 0.4488 12.4087C0.163533 12.6529 0 13.0079 0 13.3833C0 14.091 0.575667 14.6667 1.28333 14.6667H13.3833C14.091 14.6667 14.6667 14.091 14.6667 13.3833C14.6667 13.0079 14.5031 12.6529 14.2113 12.4029Z" fill="#818181"/>
<path d="M7.33343 17.5999C8.6615 17.5999 9.7725 16.6532 10.0277 15.3999H4.63916C4.89436 16.6532 6.00536 17.5999 7.33343 17.5999Z" fill="#818181"/>
</svg>
