<svg width="375" height="437" viewBox="0 0 375 437" fill="none" xmlns="http://www.w3.org/2000/svg">
<path d="M0.576015 26.9099H380.221L385.789 60.1932C385.789 60.1932 365.035 289.796 242.03 340.622C139.989 382.786 -46.5 269.099 -46.5 269.099L0.576015 26.9099Z" fill="#22274B"/>
<path d="M0.576015 0H380.221H403C403 0 365.035 262.886 242.03 313.712C139.989 355.877 -46.5 242.189 -46.5 242.189L0.576015 0Z" fill="#191D42"/>
<path d="M236.109 257.372C241.502 254.383 246.979 251.181 250.789 246.334C254.768 241.273 256.467 233.702 252.779 228.424C249.681 223.991 243.513 222.432 238.258 223.713C233.004 224.995 228.605 228.645 225.189 232.838C226.307 227.684 220.872 222.709 215.619 223.165C210.365 223.621 206.15 228.213 204.747 233.296C203.345 238.379 204.257 243.819 205.763 248.873C208.297 257.346 212.439 265.253 217.962 272.161C218.809 270.627 219.832 269.197 221.011 267.901C225.159 263.339 230.717 260.361 236.109 257.372Z" fill="#050A30"/>
<path d="M217.47 272.408C210.413 264.628 205.245 255.326 202.366 245.224C200.887 239.977 200.02 234.011 202.237 228.834C203.952 224.83 207.607 221.207 212.138 220.872C216.92 220.518 222.228 224.946 221.203 230.009C221.127 230.387 221.625 230.786 221.92 230.426C225.747 225.754 231.008 221.451 237.277 221.03C242.861 220.654 248.727 223.444 250.354 229.117C252.048 235.025 249.125 241.276 245.031 245.454C240.49 250.088 234.579 252.98 229 256.136C223.511 259.242 217.927 262.828 214.551 268.318C212.947 270.857 211.955 273.734 211.655 276.723C211.39 279.807 212.162 282.724 213.655 285.414C215.241 288.271 217.203 290.875 218.635 293.825C220.044 296.741 221.115 299.807 221.829 302.966C223.27 309.262 223.279 315.801 221.856 322.1C219.224 333.582 211.545 343.687 201.324 349.5C200.089 350.201 198.82 350.84 197.521 351.413C197.017 351.635 197.453 352.374 197.953 352.153C203.367 349.723 208.234 346.224 212.262 341.866C216.289 337.508 219.394 332.381 221.39 326.792C225.715 314.517 224.057 300.374 217.14 289.37C215.329 286.49 213.238 283.697 212.642 280.266C212.095 277.122 212.768 273.843 214.096 270.974C216.939 264.832 222.574 260.839 228.266 257.543C233.957 254.249 240.036 251.396 244.858 246.826C249.151 242.758 252.318 236.954 251.575 230.873C251.268 228.094 249.974 225.518 247.929 223.612C245.867 221.798 243.309 220.644 240.585 220.299C234.508 219.442 228.811 222.326 224.48 226.401C223.352 227.471 222.294 228.613 221.314 229.82L222.03 230.237C222.955 225.667 219.322 221.468 215.068 220.312C210.442 219.055 205.856 221.76 203.191 225.426C199.861 230.005 199.589 235.878 200.562 241.278C201.572 246.879 203.662 252.363 206.2 257.441C209.031 263.092 212.618 268.332 216.863 273.014C217.235 273.424 217.839 272.816 217.47 272.408L217.47 272.408Z" fill="#3F3D56"/>
<path d="M214.486 426.698L210.441 427.846L194.545 377.228L206.209 375.217L214.486 426.698Z" fill="#9F616A"/>
<path d="M167.005 426.988L163.004 426.131L173.353 374.26L184.606 377.927L167.005 426.988Z" fill="#9F616A"/>
<path d="M209.611 436.53C210.718 437.036 211.646 433.902 212.581 434.821C215.194 437.389 221.464 436.813 221.464 436.813C221.675 436.746 221.869 436.636 222.036 436.491C222.203 436.346 222.339 436.168 222.435 435.969C222.531 435.77 222.586 435.554 222.596 435.333C222.606 435.112 222.571 434.891 222.494 434.684C222.401 434.436 222.249 434.215 222.052 434.039C221.854 433.863 221.617 433.737 221.36 433.673L218.581 432.978L214.217 425.303L209.46 424.701L209.34 424.897C208.421 426.379 207.828 428.04 207.601 429.77C207.375 431.499 207.519 433.256 208.026 434.925C208.421 436.193 208.96 436.233 209.611 436.53Z" fill="#2F2E41"/>
<path d="M161.194 434.297C162.19 434.997 163.675 432.086 164.426 433.159C166.526 436.162 172.796 436.742 172.796 436.742C173.015 436.714 173.226 436.642 173.417 436.529C173.607 436.417 173.773 436.268 173.904 436.09C174.035 435.911 174.129 435.709 174.179 435.493C174.229 435.278 174.236 435.055 174.197 434.837C174.151 434.576 174.042 434.331 173.88 434.122C173.718 433.912 173.508 433.745 173.267 433.635L170.662 432.444L167.774 424.101L163.207 422.64L163.053 422.811C161.879 424.1 160.992 425.625 160.453 427.283C159.915 428.942 159.736 430.697 159.929 432.43C160.086 433.748 160.608 433.886 161.194 434.297Z" fill="#2F2E41"/>
<path d="M201.005 338.671C203.136 341.947 205.201 345.256 206.114 349.021C208.323 358.238 209.9 367.594 210.835 377.026C203.434 381.272 197.013 383.71 190.74 384.13C190.448 384.149 190.157 384.163 189.866 384.174L187.58 371.265L185.756 384.032C184.852 383.936 183.948 383.799 183.039 383.616C179.107 382.827 175.103 381.215 170.825 378.74C169.292 372.64 168.648 366.35 168.914 360.066C169.265 351.662 171.165 344.466 173.006 338.688L201.005 338.671Z" fill="#605D82"/>
<path d="M185.295 300.61L175.24 297.192C178.878 293.631 180.363 289.721 178.86 285.327L190.121 287.338C187.449 292.488 183.951 295.589 185.295 300.61Z" fill="#9F616A"/>
<path d="M201.005 338.671C191.859 345.947 182.547 346.786 173.006 338.688C176.852 326.612 169.005 315.255 170.148 306.683C170.861 301.334 173.086 294.709 178.258 293.169L183.813 294.866C185.74 295.454 187.484 296.527 188.877 297.982C190.271 299.437 191.267 301.226 191.772 303.176L192.429 305.734C195.609 309.117 196.67 313.564 195.844 318.962C196.541 320.493 196.221 322.425 195.901 324.36C195.598 326.2 195.295 328.043 195.867 329.544C197.097 332.769 199.078 335.707 201.005 338.671" fill="#3F3D56"/>
<path d="M122.906 429.581H116.105C112.548 429.581 109.37 429.833 107.273 431.181C106.286 429.386 104.835 427.888 103.072 426.846C101.309 425.803 99.2978 425.253 97.2493 425.254H90.4487C88.9467 425.254 87.4594 425.55 86.0718 426.124C84.6841 426.699 83.4233 427.542 82.3613 428.604C81.2992 429.666 80.4567 430.926 79.882 432.314C79.3072 433.702 79.0114 435.189 79.0114 436.691V436.691H134.343V436.691C134.343 430.374 129.223 429.581 122.906 429.581Z" fill="#E6E6E6"/>
<path d="M263.867 437H292.916C292.769 431.58 288.71 430.509 281.792 430.509H274.991C268.073 430.509 264.014 431.58 263.867 437Z" fill="#E6E6E6"/>
<path d="M301.197 436.261H73V436.879H301.197V436.261Z" fill="#3F3D56"/>
<path d="M187.306 291.963C192.304 291.963 196.355 287.912 196.355 282.914C196.355 277.916 192.304 273.865 187.306 273.865C182.308 273.865 178.257 277.916 178.257 282.914C178.257 287.912 182.308 291.963 187.306 291.963Z" fill="#9F616A"/>
<path d="M218.38 334.439L212.041 332.364L212.503 327.277L219.464 327.122C220.013 327.11 220.558 327.219 221.06 327.44C221.563 327.662 222.011 327.991 222.372 328.404C222.734 328.818 223 329.306 223.152 329.833C223.304 330.361 223.339 330.916 223.253 331.458C223.168 331.995 222.968 332.507 222.666 332.958C222.364 333.41 221.968 333.79 221.505 334.074C221.041 334.357 220.522 334.537 219.983 334.6C219.443 334.663 218.896 334.608 218.38 334.439Z" fill="#9F616A"/>
<path opacity="0.2" d="M206.114 349.021C203.494 347.792 197.53 344.695 188.914 338.416C177.049 329.769 180.067 308.654 180.067 308.654L195.901 324.36C195.598 326.2 195.295 328.043 195.867 329.544C198.456 336.333 204.374 341.848 206.114 349.021Z" fill="black"/>
<path d="M213.247 333.992C204.663 335.894 197.639 337.035 191.931 332.987C182.878 322.458 177.733 311.888 179.659 301.244C179.838 300.285 180.285 299.397 180.948 298.682C181.611 297.966 182.463 297.453 183.405 297.203C184.642 296.868 185.959 297.003 187.102 297.581C188.246 298.159 189.135 299.14 189.599 300.334L196.438 323.257L214.155 326.686L213.247 333.992Z" fill="#2F2E41"/>
<path d="M199.793 356.715C198.785 356.714 197.808 356.369 197.023 355.739C196.237 355.108 195.689 354.229 195.469 353.246L194.943 350.875L203.591 348.954L204.117 351.325C204.372 352.472 204.161 353.673 203.53 354.664C202.899 355.655 201.901 356.355 200.754 356.609C200.438 356.68 200.116 356.715 199.793 356.715ZM195.624 351.309L196.027 353.122C196.137 353.617 196.343 354.085 196.634 354.5C196.925 354.915 197.295 355.268 197.722 355.54C198.149 355.812 198.626 355.997 199.125 356.085C199.624 356.173 200.135 356.161 200.63 356.051C201.124 355.942 201.592 355.735 202.007 355.445C202.422 355.154 202.776 354.784 203.048 354.357C203.32 353.929 203.505 353.453 203.593 352.954C203.68 352.455 203.669 351.943 203.559 351.449L203.156 349.636L195.624 351.309Z" fill="#3F3D56"/>
<path d="M196.322 279.132C196.322 279.132 197.775 267.826 185.922 271.533C185.922 271.533 177.456 269.98 174.68 280.569L171.869 291.67L173.239 290.924L173.878 292.32L176.098 292.882L177.048 290.997L177.507 293.286L195.69 295.099C195.69 295.099 187.547 290.283 187.417 281.651L188.969 283.29L196.322 279.132Z" fill="#2F2E41"/>
<path d="M88.6104 430.663C88.6104 430.663 94.1745 370.076 88.6104 360.494C88.6104 360.494 112.103 397.897 98.8113 432.518L88.6104 430.663Z" fill="#E6E6E6"/>
<path d="M93.1561 430.354C93.1561 430.354 111.004 398.599 110.301 392C110.301 392 114.017 418.191 98.2848 433.863L93.1561 430.354Z" fill="#E6E6E6"/>
<path d="M272.535 433.146C272.535 433.146 276.47 390.298 272.535 383.521C272.535 383.521 289.149 409.973 279.749 434.457L272.535 433.146Z" fill="#E6E6E6"/>
<path d="M275.75 432.927C275.75 432.927 288.372 410.47 287.875 405.803C287.875 405.803 290.503 424.325 279.377 435.409L275.75 432.927Z" fill="#E6E6E6"/>
</svg>
