<svg width="375" height="350" viewBox="0 0 375 350" fill="none" xmlns="http://www.w3.org/2000/svg">
<path d="M0.576015 26.9099H380.221L385.789 60.1932C385.789 60.1932 365.035 289.796 242.03 340.622C139.989 382.786 -46.5 269.099 -46.5 269.099L0.576015 26.9099Z" fill="#22274B"/>
<path d="M0.576015 0H380.221H403C403 0 365.035 262.886 242.03 313.712C139.989 355.877 -46.5 242.189 -46.5 242.189L0.576015 0Z" fill="#191D42"/>
<path d="M58.1635 141.227H51.0721V150.438H58.1635V141.227Z" fill="#3F3D56"/>
<path d="M215.272 270.313H208.181V279.524H215.272V270.313Z" fill="#3F3D56"/>
<path d="M322.685 182.607V175.521H313.467V182.607H322.685Z" fill="#3F3D56"/>
<path d="M298.949 278.378C314.419 278.378 326.96 265.847 326.96 250.39C326.96 234.933 314.419 222.402 298.949 222.402C283.479 222.402 270.938 234.933 270.938 250.39C270.938 265.847 283.479 278.378 298.949 278.378Z" fill="#2F2E41"/>
<path d="M309.768 288.717L318.141 287.203L315.425 269.732L307.052 271.247L309.768 288.717Z" fill="#2F2E41"/>
<path d="M293.021 289.267L301.394 287.752L298.678 272.762L290.305 274.276L293.021 289.267Z" fill="#2F2E41"/>
<path d="M297.466 292.421C300.455 289.892 302.108 286.934 301.159 285.814C300.21 284.694 297.017 285.837 294.029 288.366C291.04 290.895 289.387 293.853 290.336 294.972C291.285 296.092 294.477 294.95 297.466 292.421Z" fill="#2F2E41"/>
<path d="M313.864 291.935C316.853 289.406 318.506 286.448 317.557 285.328C316.608 284.208 313.416 285.351 310.427 287.88C307.438 290.409 305.785 293.367 306.734 294.486C307.683 295.606 310.876 294.464 313.864 291.935Z" fill="#2F2E41"/>
<path d="M296.988 253.109C302.276 253.109 306.562 248.827 306.562 243.544C306.562 238.261 302.276 233.979 296.988 233.979C291.701 233.979 287.415 238.261 287.415 243.544C287.415 248.827 291.701 253.109 296.988 253.109Z" fill="white"/>
<path d="M293.054 243.304C294.816 243.304 296.245 241.876 296.245 240.115C296.245 238.355 294.816 236.927 293.054 236.927C291.291 236.927 289.863 238.355 289.863 240.115C289.863 241.876 291.291 243.304 293.054 243.304Z" fill="#3F3D56"/>
<path d="M321.046 219.943C321.467 209.581 312.53 200.805 301.084 200.34C289.638 199.876 280.017 207.899 279.596 218.26C279.175 228.622 287.131 230.976 298.577 231.441C310.023 231.905 320.625 230.304 321.046 219.943Z" fill="#050A30"/>
<path d="M286.737 248.418C287.279 246.053 281.607 242.736 274.068 241.009C266.528 239.282 259.976 239.8 259.434 242.165C258.891 244.53 264.563 247.847 272.103 249.573C279.642 251.3 286.194 250.783 286.737 248.418Z" fill="#2F2E41"/>
<path d="M341.721 257.554C342.263 255.189 336.591 251.872 329.052 250.146C321.512 248.419 314.961 248.936 314.418 251.301C313.875 253.666 319.548 256.983 327.087 258.71C334.626 260.437 341.178 259.919 341.721 257.554Z" fill="#2F2E41"/>
<path d="M306.643 261.42C306.792 262.244 306.778 263.09 306.601 263.909C306.424 264.727 306.087 265.503 305.609 266.192C305.131 266.881 304.523 267.468 303.818 267.922C303.113 268.375 302.325 268.686 301.5 268.835C300.675 268.984 299.829 268.969 299.009 268.792C298.19 268.614 297.414 268.277 296.725 267.799C296.036 267.321 295.448 266.713 294.994 266.008C294.541 265.303 294.231 264.516 294.082 263.692C293.454 260.226 296.136 259 299.605 258.372C303.073 257.745 306.015 257.954 306.643 261.42Z" fill="white"/>
<path d="M153.363 268.93L152.389 281.58L161.803 282.553L159.531 267.309L153.363 268.93Z" fill="#FFB9B9"/>
<path d="M120.565 153.74H120.565C128.589 156.211 132.869 165.426 130.125 174.324L126.639 185.628L123.159 184.557L122.437 179.748L121.648 184.092L99.2832 177.205L98.6262 172.834L97.9097 176.782L95.3916 176.007L98.129 167.131C101.287 156.892 111.332 150.897 120.565 153.74Z" fill="#2F2E41"/>
<path d="M108.103 187.669C107.378 187.549 106.636 187.582 105.924 187.766C105.212 187.949 104.546 188.28 103.97 188.736C103.393 189.192 102.919 189.764 102.577 190.414C102.235 191.064 102.033 191.779 101.984 192.512C101.844 194.472 102.521 196.766 105.562 198.465C112.056 202.095 126.14 210.007 126.14 210.007L153.012 215.164C153.012 215.164 166.591 225.99 168.293 219.833C169.994 213.675 155.408 209.915 155.408 209.915L130.72 203.589L114.99 192.22C114.99 192.22 112.107 188.375 108.103 187.669Z" fill="#FFB9B9"/>
<path d="M99.514 212.897L102.215 220.503L118.421 216.577L114.246 210.934L99.514 212.897Z" fill="#FFB9B9"/>
<path d="M56.1759 284.414L43.899 283.187L52.4929 274.845L58.6315 279.016L56.1759 284.414Z" fill="#FFB9B9"/>
<path d="M117.727 179.194C123.296 179.194 127.81 174.683 127.81 169.119C127.81 163.554 123.296 159.044 117.727 159.044C112.159 159.044 107.644 163.554 107.644 169.119C107.644 174.683 112.159 179.194 117.727 179.194Z" fill="#FFB9B9"/>
<path d="M109.827 170.698C109.827 170.698 104.18 177.322 101.233 178.304C98.2868 179.285 90.9206 188.608 94.6037 194.742C98.2868 200.875 111.792 193.27 111.792 193.27L111.3 187.136C111.3 187.136 116.948 177.322 118.176 176.586C119.403 175.85 109.827 170.698 109.827 170.698Z" fill="#FFB9B9"/>
<path d="M108.845 182.544C105.091 176.896 96.383 177.906 94.2229 184.334C94.1845 184.448 94.1477 184.564 94.1126 184.683C92.1483 191.307 95.0948 202.593 95.0948 202.593L99.5145 215.841C99.5145 215.841 111.055 210.444 119.403 219.521L118.176 210.198C118.176 210.198 121.613 202.347 117.193 196.704C114.381 193.113 111.767 186.939 108.845 182.544Z" fill="#3F3D56"/>
<path d="M50.7745 282.696L50.2834 286.377C50.2834 286.377 34.0778 283.187 30.6402 286.131C27.2026 289.075 27.2026 291.038 24.5017 289.075C23.3538 288.241 24.3347 286.211 25.8423 284.151C28.2299 280.92 31.3675 278.317 34.9852 276.566C39.0375 274.583 44.636 271.703 44.636 270.92C44.636 269.693 49.0557 266.013 50.7745 267.976C52.4933 269.939 55.6853 275.336 55.6853 275.336L50.7745 282.696Z" fill="#2F2E41"/>
<path d="M151.847 275.742C151.847 275.742 148.248 288.492 149.557 289.146C150.866 289.799 153.483 291.761 157.409 291.761C159.729 291.761 163.192 293.017 165.636 294.044C168.487 295.261 171.583 295.793 174.676 295.598C176.737 295.456 178.489 294.973 178.35 293.723C178.022 290.78 171.806 290.126 171.806 290.126L165.262 281.626C165.262 281.626 164.117 276.232 163.135 276.232C162.6 276.258 162.075 276.083 161.663 275.742L151.847 275.742Z" fill="#2F2E41"/>
<path d="M115.067 156.906C116.055 156.184 117.197 155.698 118.403 155.487C119.61 155.277 120.849 155.347 122.024 155.692L122.309 155.78C127.809 157.473 130.734 163.818 128.842 169.952V169.952L126.999 169.385L127.4 167.03L126.265 169.159L115.336 165.794L115.011 163.597L114.649 165.582L112.499 164.92C109.96 169.59 109.866 175.013 112.217 181.188L108.555 180.06L107.905 175.667L107.181 179.637L100.199 177.488L101.542 168.256C103.577 161.659 109.138 157.247 115.067 156.906Z" fill="#2F2E41"/>
<path d="M243.629 97.1899H160.206V253.197H243.629V97.1899Z" fill="#F2F2F2"/>
<path d="M263.755 253.521H159.882V80H263.755V253.521ZM160.531 252.873H263.106V80.6487H160.531V252.873Z" fill="#3F3D56"/>
<path d="M351.047 294.985H38.2889V295.712H351.047V294.985Z" fill="#3F3D56"/>
<path d="M251.095 171.139H172.541V99.1357H251.095V171.139ZM173.19 170.49H250.446V99.7844H173.19V170.49Z" fill="#3F3D56"/>
<path d="M173.095 152.048L172.636 151.59L197.119 127.127L211.494 141.49L250.379 102.636L250.838 103.095L211.494 142.407L197.119 128.044L173.095 152.048Z" fill="#3F3D56"/>
<path d="M197.211 132.543C199.9 132.543 202.08 130.365 202.08 127.678C202.08 124.991 199.9 122.812 197.211 122.812C194.522 122.812 192.342 124.991 192.342 127.678C192.342 130.365 194.522 132.543 197.211 132.543Z" fill="#050A30"/>
<path d="M211.819 145.841C214.508 145.841 216.688 143.663 216.688 140.976C216.688 138.289 214.508 136.111 211.819 136.111C209.129 136.111 206.949 138.289 206.949 140.976C206.949 143.663 209.129 145.841 211.819 145.841Z" fill="#050A30"/>
<path d="M250.771 107.569C253.46 107.569 255.64 105.39 255.64 102.703C255.64 100.017 253.46 97.8384 250.771 97.8384C248.082 97.8384 245.902 100.017 245.902 102.703C245.902 105.39 248.082 107.569 250.771 107.569Z" fill="#050A30"/>
<path d="M241.357 191.249H182.279V197.087H241.357V191.249Z" fill="#3F3D56"/>
<path d="M225.452 239.251H198.185V212.006H216.687V212.655H198.834V238.602H224.803V225.629H225.452V239.251Z" fill="#3F3D56"/>
<path d="M211.677 232.144L205.91 224.46L207.988 222.904L211.959 228.194L230.214 209.953L232.05 211.788L211.677 232.144Z" fill="#050A30"/>
<path d="M119.526 220.134C119.526 220.134 113.633 212.283 101.602 216.945L99.3919 223.078C99.3919 223.078 86.6238 233.137 93.7445 248.594L93.2534 271.656L91.2891 278.28L55.6857 275.336L54.458 286.622L60.8421 287.112C60.8421 287.112 96.9365 301.342 102.584 292.51C108.231 283.677 120.017 248.839 120.017 248.839L150.589 253.413C150.589 253.413 149.694 262.973 150.676 264.2C151.659 265.427 151.168 270.579 151.659 271.56C152.15 272.541 151.74 275.093 151.74 275.093L161.884 274.758V269.851C161.884 269.851 163.112 263.227 163.112 261.509C163.112 259.792 170.478 237.221 157.71 235.258C144.942 233.295 122.964 229.703 122.964 229.703L119.526 220.134Z" fill="#605D82"/>
<path d="M108.054 181.786C107.744 180.996 107.271 180.28 106.667 179.683C106.063 179.086 105.34 178.622 104.546 178.321C103.752 178.021 102.903 177.889 102.055 177.935C101.207 177.982 100.378 178.205 99.6213 178.591C97.5929 179.613 95.7165 181.644 95.8314 185.664C96.077 194.251 96.5681 212.897 96.5681 212.897L107.372 242.583C107.372 242.583 104.671 262.456 111.792 260.493C118.912 258.53 114.001 241.847 114.001 241.847L105.653 213.633L107.617 191.307C107.617 191.307 109.726 186.172 108.054 181.786Z" fill="#FFB9B9"/>
</svg>
