<svg width="375" height="367" viewBox="0 0 375 367" fill="none" xmlns="http://www.w3.org/2000/svg">
<path d="M0.576015 26.9099H380.221L385.789 60.1932C385.789 60.1932 365.035 289.796 242.03 340.622C139.989 382.786 -46.5 269.099 -46.5 269.099L0.576015 26.9099Z" fill="#22274B"/>
<path d="M0.576015 0H380.221H403C403 0 365.035 262.886 242.03 313.712C139.989 355.877 -46.5 242.189 -46.5 242.189L0.576015 0Z" fill="#191D42"/>
<path d="M269.149 342.543C277.302 346.939 280.802 356.269 280.802 356.269C280.802 356.269 271.083 358.472 262.931 354.075C254.778 349.679 251.278 340.349 251.278 340.349C251.278 340.349 260.996 338.147 269.149 342.543Z" fill="#F2F2F2"/>
<path d="M266.467 345.564C271.242 353.501 280.726 356.558 280.726 356.558C280.726 356.558 282.469 346.746 277.694 338.809C272.919 330.873 263.434 327.816 263.434 327.816C263.434 327.816 261.692 337.627 266.467 345.564Z" fill="#F2F2F2"/>
<path d="M115.574 165.272H144.5V182.4H115.574V165.272Z" fill="#2F2E41"/>
<path d="M173.159 168.034H188.073V162.834C188.073 160.856 187.287 158.959 185.889 157.561C184.49 156.162 182.593 155.376 180.616 155.376C178.638 155.376 176.741 156.162 175.343 157.561C173.944 158.959 173.159 160.856 173.159 162.834V168.034ZM187.743 167.704H173.489V162.834C173.489 160.943 174.24 159.131 175.576 157.794C176.913 156.458 178.725 155.707 180.616 155.707C182.506 155.707 184.319 156.458 185.655 157.794C186.992 159.131 187.743 160.943 187.743 162.834V167.704Z" fill="#3F3D56"/>
<path d="M165.784 167.319V165.287L203.713 166.303L204.913 217.785L199.3 224.719L165.784 167.319Z" fill="#3F3D56"/>
<path d="M159.069 166.604L200.18 167.539L199.299 224.719L159.626 220.443L159.069 166.604Z" fill="#050A30"/>
<path d="M124.118 351.863H128.784L131.004 333.864H124.117L124.118 351.863Z" fill="#FFB6B6"/>
<path d="M122.928 356.386L137.974 356.385V356.195C137.974 354.642 137.356 353.152 136.258 352.054C135.16 350.956 133.67 350.339 132.117 350.339H132.117L122.927 350.339L122.928 356.386Z" fill="#2F2E41"/>
<path d="M141.246 351.863H145.912L148.132 333.864H141.245L141.246 351.863Z" fill="#FFB6B6"/>
<path d="M140.055 356.386L155.102 356.385V356.195C155.101 354.642 154.484 353.152 153.386 352.054C152.288 350.956 150.798 350.339 149.245 350.339H149.245L140.055 350.339L140.055 356.386Z" fill="#2F2E41"/>
<path d="M154.949 239.164C154.949 239.164 161.767 253.846 155.608 283.399C149.449 312.953 149.398 345.397 149.398 345.397L139.98 345.551L134.689 275.7L131.919 344.565H122.641L114.463 276.788C114.463 276.788 109.082 246.524 121.082 241.106L154.949 239.164Z" fill="#605D82"/>
<path d="M122.315 187.348L142.936 185.447C149.403 190.161 153.032 198.626 152.287 207.361C151.277 219.204 151.619 235.501 159.725 242.582C159.725 242.582 137.63 260.02 118.004 243.476C118.004 243.476 124.715 225.497 120.107 218.317C115.499 211.137 113.837 190.964 122.315 187.348Z" fill="#3F3D56"/>
<path d="M183.673 158.085C183.736 158.679 183.668 159.28 183.474 159.846C183.28 160.411 182.964 160.927 182.549 161.357C182.134 161.787 181.629 162.121 181.071 162.335C180.513 162.549 179.915 162.638 179.319 162.596L152.092 188.005L147.212 180.572L175.51 157.933C175.647 156.936 176.145 156.024 176.91 155.37C177.674 154.715 178.652 154.364 179.659 154.383C180.665 154.402 181.629 154.789 182.369 155.471C183.109 156.154 183.573 157.083 183.673 158.085Z" fill="#FFB6B6"/>
<path d="M157.176 184.08L150.717 177.445C150.533 177.256 150.311 177.109 150.065 177.014C149.82 176.919 149.556 176.878 149.293 176.894C149.03 176.91 148.774 176.982 148.541 177.106C148.309 177.23 148.106 177.402 147.946 177.612L142.346 184.951C141.386 185.897 140.84 187.185 140.827 188.533C140.815 189.881 141.338 191.178 142.281 192.141C143.224 193.104 144.51 193.654 145.858 193.67C147.206 193.686 148.505 193.167 149.471 192.227L156.935 186.846C157.149 186.692 157.327 186.493 157.457 186.264C157.587 186.035 157.666 185.78 157.689 185.518C157.712 185.256 157.678 184.991 157.589 184.743C157.501 184.495 157.36 184.269 157.176 184.08V184.08Z" fill="#3F3D56"/>
<path d="M82.5209 219.962C82.4908 219.365 82.5919 218.769 82.8172 218.215C83.0425 217.662 83.3865 217.164 83.8249 216.758C84.2632 216.351 84.7854 216.046 85.3545 215.863C85.9237 215.681 86.526 215.625 87.119 215.7L115.715 191.843L120.175 199.536L90.6632 220.568C90.4708 221.556 89.9228 222.439 89.1229 223.049C88.323 223.66 87.3268 223.956 86.3232 223.882C85.3196 223.807 84.3782 223.367 83.6774 222.645C82.9766 221.922 82.5651 220.968 82.5209 219.962Z" fill="#FFB6B6"/>
<path d="M110.421 195.479L116.501 202.463C116.675 202.661 116.888 202.82 117.128 202.929C117.368 203.038 117.629 203.093 117.892 203.092C118.156 203.091 118.416 203.033 118.655 202.922C118.894 202.811 119.106 202.65 119.278 202.45L125.276 195.433C126.288 194.542 126.905 193.287 126.992 191.941C127.079 190.596 126.63 189.271 125.741 188.257C124.853 187.243 123.599 186.623 122.254 186.532C120.909 186.441 119.583 186.887 118.567 187.773L110.815 192.731C110.593 192.873 110.405 193.061 110.262 193.283C110.12 193.504 110.026 193.754 109.989 194.015C109.952 194.276 109.971 194.541 110.045 194.794C110.12 195.047 110.248 195.28 110.421 195.479Z" fill="#3F3D56"/>
<path d="M79.6155 230.05H90.9126V226.11C90.9126 224.612 90.3175 223.176 89.2582 222.116C88.1989 221.057 86.7621 220.462 85.264 220.462C83.7659 220.462 82.3292 221.057 81.2699 222.116C80.2106 223.176 79.6155 224.612 79.6155 226.11L79.6155 230.05ZM90.6625 229.8H79.8656V226.11C79.8656 224.679 80.4344 223.306 81.4468 222.293C82.4592 221.281 83.8323 220.712 85.2641 220.712C86.6958 220.712 88.0689 221.281 89.0813 222.293C90.0937 223.306 90.6625 224.679 90.6625 226.11V229.8Z" fill="#3F3D56"/>
<path d="M74.0293 229.508V227.969L102.759 228.739L103.668 267.735L99.4166 272.988L74.0293 229.508Z" fill="#3F3D56"/>
<path d="M68.9436 228.966L100.083 229.675L99.4167 272.987L69.365 269.748L68.9436 228.966Z" fill="#050A30"/>
<path d="M131.179 182.02C124.452 182.02 118.999 176.567 118.999 169.84C118.999 163.113 124.452 157.66 131.179 157.66C137.906 157.66 143.359 163.113 143.359 169.84C143.359 176.567 137.906 182.02 131.179 182.02Z" fill="#FFB6B6"/>
<path d="M136.786 164.412C132.573 168.541 125.241 168.936 120.607 165.285C119.321 169.72 119.18 174.409 120.198 178.914C121.216 183.418 123.358 187.592 126.426 191.043C123.849 191.975 120.882 191.362 118.578 189.878C116.274 188.393 114.568 186.127 113.281 183.708C110.093 177.719 109.295 170.406 111.55 164.008C113.805 157.609 119.207 152.304 125.77 150.586C132.333 148.868 139.858 150.99 144.243 156.166C148.828 161.58 149.571 169.511 147.562 176.315C145.552 183.119 141.145 188.961 136.303 194.146C138.629 188.166 140.171 181.909 140.892 175.533C141.138 173.349 141.282 171.098 140.665 168.989C140.048 166.88 138.53 164.915 136.414 164.323" fill="#2F2E41"/>
<path d="M63.2176 357.104H208.233C208.334 357.104 208.431 357.064 208.502 356.993C208.574 356.921 208.614 356.824 208.614 356.723C208.614 356.622 208.574 356.526 208.502 356.454C208.431 356.383 208.334 356.343 208.233 356.343H63.2176C63.1167 356.343 63.0199 356.383 62.9485 356.454C62.8771 356.526 62.837 356.622 62.837 356.723C62.837 356.824 62.8771 356.921 62.9485 356.993C63.0199 357.064 63.1167 357.104 63.2176 357.104Z" fill="#CACACA"/>
<path d="M248.959 357.104H310.619C310.72 357.104 310.817 357.064 310.889 356.993C310.96 356.921 311 356.824 311 356.723C311 356.622 310.96 356.526 310.889 356.454C310.817 356.383 310.72 356.343 310.619 356.343H248.959C248.858 356.343 248.761 356.383 248.69 356.454C248.619 356.526 248.579 356.622 248.579 356.723C248.579 356.824 248.619 356.921 248.69 356.993C248.761 357.064 248.858 357.104 248.959 357.104Z" fill="#CACACA"/>
<path d="M85.7053 324.063H97.0024V320.123C97.0024 318.625 96.4073 317.188 95.348 316.129C94.2887 315.07 92.852 314.475 91.3539 314.475C89.8558 314.475 88.4191 315.07 87.3597 316.129C86.3004 317.188 85.7053 318.625 85.7053 320.123L85.7053 324.063ZM96.7523 323.812H85.9555V320.123C85.9555 318.691 86.5242 317.318 87.5366 316.306C88.549 315.293 89.9222 314.725 91.3539 314.725C92.7857 314.725 94.1588 315.293 95.1712 316.306C96.1836 317.318 96.7523 318.691 96.7523 320.123V323.812Z" fill="#CACACA"/>
<path d="M80.1192 323.521V321.981L108.849 322.751L109.758 361.748L105.506 367L80.1192 323.521Z" fill="#CACACA"/>
<path d="M75.0335 322.979L106.173 323.687L105.507 367L75.4548 363.761L75.0335 322.979Z" fill="#E4E4E4"/>
</svg>
