<svg width="24" height="17" viewBox="0 0 24 17" fill="none" xmlns="http://www.w3.org/2000/svg">
<path d="M23.4546 3.8022V2.56534C23.4546 1.14854 22.306 0 20.8892 0H2.56534C1.14854 0 0 1.14854 0 2.56534V3.8022C0 3.92868 0.102568 4.03125 0.229048 4.03125H23.2255C23.352 4.03125 23.4546 3.92868 23.4546 3.8022Z" fill="#F4F4F4"/>
<path d="M0 5.72612V13.5596C0 14.9764 1.14854 16.1249 2.56534 16.1249H20.8892C22.306 16.1249 23.4546 14.9764 23.4546 13.5596V5.72612C23.4546 5.59964 23.352 5.49707 23.2255 5.49707H0.229048C0.102568 5.49707 0 5.59964 0 5.72612ZM5.86364 11.7272C5.86364 12.132 5.53546 12.4601 5.13068 12.4601H4.39773C3.99295 12.4601 3.66477 12.132 3.66477 11.7272V10.9942C3.66477 10.5895 3.99295 10.2613 4.39773 10.2613H5.13068C5.53546 10.2613 5.86364 10.5895 5.86364 10.9942V11.7272Z" fill="#F4F4F4"/>
</svg>
