<svg width="18" height="22" viewBox="0 0 18 22" fill="none" xmlns="http://www.w3.org/2000/svg">
<path d="M4.73978 6.89857C4.81615 7.24987 4.93325 7.47728 5.06986 7.61899C5.39486 9.88121 7.42543 11.8091 9.05633 11.7285C11.131 11.6267 12.6016 9.39075 12.9316 7.61899C13.0683 7.47813 13.1998 7.17689 13.2787 6.82305C13.3669 6.4166 13.462 5.80395 13.2176 5.4798C13.2032 5.46283 13.1098 5.37713 13.0937 5.3627C13.3271 4.52095 13.8396 3.01902 12.5634 1.66898C11.8718 0.937535 10.9113 0.570114 10.0432 0.279912C7.48058 -0.576271 5.67148 0.624421 4.83651 2.62105C4.77627 2.76276 4.38678 3.65967 4.85857 5.3627C4.81275 5.39325 4.77117 5.43228 4.73638 5.4798C4.49115 5.8031 4.65068 6.49212 4.73978 6.89857Z" fill="#F4F4F4"/>
<path d="M17.9934 19.3402C17.9221 17.7831 17.8339 15.3155 16.4737 13.2969C16.4737 13.2969 16.0859 12.7682 15.166 12.4169C15.166 12.4169 13.1686 11.8085 12.2487 11.1509L11.8287 11.4385L11.8754 14.1692L9.35351 20.9015C9.29835 21.0492 9.15749 21.1468 9.00051 21.1468C8.84353 21.1468 8.70267 21.0492 8.64752 20.9015L6.12649 14.1692C6.12649 14.1692 6.17316 11.447 6.17231 11.4385C6.17825 11.4614 5.75143 11.1509 5.75143 11.1509C4.8333 11.8085 2.83498 12.4169 2.83498 12.4169C1.91515 12.7682 1.52737 13.2969 1.52737 13.2969C0.167996 15.3155 0.0780502 17.7831 0.00677232 19.3402C-0.0424433 20.4162 0.18327 20.8175 0.466684 20.9321C3.98476 22.3441 14.0137 22.3441 17.5326 20.9321C17.8178 20.8184 18.0418 20.4162 17.9934 19.3402Z" fill="#F4F4F4"/>
<path d="M9.09037 12.5981L8.97667 12.6007C8.6101 12.6007 8.24013 12.5294 7.87695 12.4038L8.87654 13.9337L7.97963 14.7993L8.90284 20.4056C8.91048 20.454 8.95206 20.4888 9.00128 20.4888C9.04964 20.4888 9.09122 20.454 9.09971 20.4056L10.0229 14.7993L9.12516 13.9337L10.1103 12.4267C9.78873 12.5209 9.44846 12.5837 9.09037 12.5981Z" fill="#F4F4F4"/>
</svg>
