<svg width="13" height="13" viewBox="0 0 13 13" fill="none" xmlns="http://www.w3.org/2000/svg">
<path d="M10.6786 0H2.32142C1.03997 0.00152344 0.00152344 1.03997 0 2.32142V10.6786C0.00152344 11.96 1.03997 12.9985 2.32142 13H10.6786C11.96 12.9985 12.9985 11.96 13 10.6786V2.32142C12.9985 1.03997 11.96 0.00152344 10.6786 0ZM8.82145 6.9643H6.9643V8.82145C6.9643 9.07788 6.75643 9.28575 6.5 9.28575C6.24357 9.28575 6.0357 9.07788 6.0357 8.82145V6.9643H4.17858C3.92215 6.9643 3.71428 6.75643 3.71428 6.5C3.71428 6.24357 3.92215 6.0357 4.17858 6.0357H6.03573V4.17858C6.03573 3.92215 6.2436 3.71428 6.50003 3.71428C6.75645 3.71428 6.9643 3.92215 6.9643 4.17858V6.03573H8.82145C9.07788 6.03573 9.28575 6.2436 9.28575 6.50003C9.28575 6.75645 9.07785 6.9643 8.82145 6.9643Z" fill="#9B9B9B"/>
</svg>
