<svg width="16" height="16" viewBox="0 0 16 16" fill="none" xmlns="http://www.w3.org/2000/svg">
<path d="M8 0C3.5888 0 0 3.5888 0 8C0 9.932 0.688533 11.7061 1.83307 13.0901C1.836 13.0941 1.83627 13.0992 1.83947 13.1029C2.66587 14.0995 3.70373 14.8635 4.86027 15.3571C4.8736 15.3627 4.88667 15.3688 4.9 15.3744C4.9936 15.4139 5.08827 15.4504 5.1832 15.4861C5.22053 15.5003 5.25787 15.5147 5.29573 15.5283C5.3776 15.5576 5.46 15.5853 5.54293 15.612C5.596 15.6291 5.64907 15.6459 5.70267 15.6619C5.776 15.6837 5.8496 15.7048 5.92373 15.7248C5.9888 15.7424 6.0544 15.7587 6.12 15.7744C6.1864 15.7904 6.25307 15.8064 6.32 15.8205C6.39467 15.8365 6.47013 15.8507 6.54587 15.8645C6.60667 15.8757 6.6672 15.8875 6.72853 15.8973C6.81253 15.9109 6.89707 15.9216 6.98187 15.9325C7.03653 15.9395 7.09093 15.9475 7.14587 15.9533C7.24187 15.9635 7.33867 15.9707 7.43573 15.9773C7.4808 15.9805 7.5256 15.9853 7.57093 15.9877C7.71253 15.9957 7.85573 16 8 16C8.14427 16 8.28747 15.9957 8.4296 15.9883C8.47493 15.9859 8.51973 15.9811 8.5648 15.9779C8.66187 15.9709 8.75867 15.964 8.85467 15.9539C8.9096 15.948 8.964 15.94 9.01867 15.9331C9.10347 15.9221 9.188 15.9115 9.272 15.8979C9.33307 15.888 9.39387 15.8763 9.45467 15.8651C9.53013 15.8512 9.6056 15.8371 9.68053 15.8211C9.74747 15.8067 9.81387 15.7909 9.88053 15.7749C9.94613 15.7589 10.0117 15.7427 10.0768 15.7253C10.1509 15.7056 10.2245 15.6843 10.2979 15.6624C10.3515 15.6464 10.4045 15.6296 10.4576 15.6125C10.5405 15.5859 10.6229 15.5581 10.7048 15.5288C10.7424 15.5152 10.7797 15.5008 10.8173 15.4867C10.9125 15.4509 11.0069 15.4141 11.1005 15.3749C11.1139 15.3693 11.1269 15.3632 11.1403 15.3576C12.2965 14.864 13.3347 14.1 14.1611 13.1035C14.1643 13.0997 14.1645 13.0944 14.1675 13.0907C15.3115 11.7061 16 9.932 16 8C16 3.5888 12.4112 0 8 0ZM11.2419 14.7253C11.2379 14.7272 11.2341 14.7293 11.2301 14.7312C11.1349 14.7771 11.0381 14.8203 10.9405 14.8624C10.9184 14.8717 10.8965 14.8813 10.8744 14.8907C10.7891 14.9264 10.7027 14.9603 10.6157 14.9928C10.5795 15.0064 10.5432 15.0197 10.5067 15.0325C10.4296 15.06 10.3523 15.0864 10.2741 15.1115C10.2256 15.1269 10.1768 15.1416 10.128 15.156C10.0587 15.1768 9.98907 15.1968 9.91867 15.2155C9.85947 15.2312 9.79973 15.2456 9.74 15.2597C9.67733 15.2747 9.61493 15.2899 9.55173 15.3032C9.48267 15.3179 9.41307 15.3304 9.34373 15.3429C9.28747 15.3533 9.23147 15.3643 9.17467 15.3733C9.09653 15.3856 9.0176 15.3955 8.93893 15.4053C8.88907 15.4117 8.83947 15.4192 8.78907 15.4245C8.6992 15.4341 8.60853 15.4403 8.51813 15.4467C8.47787 15.4493 8.43787 15.4539 8.39707 15.456C8.26507 15.4629 8.1328 15.4667 8 15.4667C7.8672 15.4667 7.73493 15.4629 7.6032 15.456C7.56267 15.4539 7.52267 15.4496 7.48213 15.4467C7.39147 15.4405 7.30107 15.4341 7.2112 15.4245C7.1608 15.4192 7.1112 15.4117 7.06133 15.4053C6.98267 15.3955 6.90373 15.3856 6.8256 15.3733C6.7688 15.3643 6.7128 15.3533 6.65653 15.3429C6.58693 15.3304 6.51733 15.3176 6.44853 15.3032C6.38533 15.2899 6.32267 15.2747 6.26027 15.2597C6.20053 15.2453 6.1408 15.2312 6.0816 15.2155C6.01147 15.1968 5.9416 15.1765 5.87227 15.156C5.82347 15.1416 5.77467 15.1269 5.72613 15.1115C5.648 15.0864 5.5704 15.06 5.4936 15.0325C5.45707 15.0195 5.4208 15.0061 5.38453 14.9928C5.2976 14.9603 5.2112 14.9264 5.12587 14.8907C5.10373 14.8816 5.08213 14.872 5.06 14.8627C4.9624 14.8208 4.8656 14.7773 4.77013 14.7315C4.76613 14.7296 4.7624 14.7277 4.7584 14.7256C3.828 14.2755 3.00613 13.6365 2.3392 12.8605C2.85467 10.9624 4.31387 9.43227 6.1912 8.82347C6.22827 8.84613 6.26693 8.8664 6.30507 8.88773C6.32747 8.90027 6.3496 8.9136 6.37227 8.9256C6.45173 8.96773 6.53227 9.0072 6.61467 9.04267C6.67787 9.0704 6.7432 9.09387 6.80827 9.11787C6.82107 9.1224 6.83387 9.12747 6.84667 9.132C7.20827 9.26 7.5952 9.33333 8 9.33333C8.4048 9.33333 8.79173 9.26 9.15307 9.132C9.16587 9.12747 9.17867 9.1224 9.19147 9.11787C9.25653 9.09387 9.32187 9.0704 9.38507 9.04267C9.46747 9.0072 9.548 8.96773 9.62747 8.9256C9.65013 8.91333 9.67227 8.90027 9.69467 8.88773C9.7328 8.8664 9.77173 8.84613 9.80907 8.8232C11.6864 9.43227 13.1453 10.9624 13.6611 12.8603C12.9941 13.636 12.1723 14.2749 11.2419 14.7253ZM5.06667 5.86667C5.06667 4.24933 6.38267 2.93333 8 2.93333C9.61733 2.93333 10.9333 4.24933 10.9333 5.86667C10.9333 6.89547 10.3997 7.8008 9.59573 8.32453C9.49067 8.3928 9.38133 8.45387 9.26907 8.5072C9.25573 8.5136 9.24267 8.52027 9.22933 8.5264C8.45707 8.8776 7.54293 8.8776 6.77067 8.5264C6.75733 8.52027 6.744 8.5136 6.73093 8.5072C6.6184 8.45387 6.50933 8.3928 6.40427 8.32453C5.60027 7.8008 5.06667 6.89547 5.06667 5.86667ZM14.0611 12.3528C13.4565 10.5677 12.0773 9.12507 10.3152 8.43973C11.02 7.8048 11.4667 6.888 11.4667 5.86667C11.4667 3.9552 9.91147 2.4 8 2.4C6.08853 2.4 4.53333 3.9552 4.53333 5.86667C4.53333 6.888 4.98 7.8048 5.68507 8.43973C3.92293 9.12533 2.54373 10.5677 1.9392 12.3528C1.05573 11.1264 0.533333 9.62347 0.533333 8C0.533333 3.88293 3.88293 0.533333 8 0.533333C12.1171 0.533333 15.4667 3.88293 15.4667 8C15.4667 9.62347 14.9443 11.1264 14.0611 12.3528Z" fill="#818181"/>
</svg>
