<svg width="19" height="23" viewBox="0 0 19 23" fill="none" xmlns="http://www.w3.org/2000/svg">
<path d="M18.2589 15.9354C16.8343 14.7313 16.0174 12.9713 16.0174 11.1067V8.4798C16.0174 5.1642 13.5545 2.41957 10.3642 1.95978V0.9422C10.3642 0.421164 9.9421 0 9.422 0C8.90191 0 8.4798 0.421164 8.4798 0.9422V1.95978C5.28857 2.41957 2.8266 5.1642 2.8266 8.4798V11.1067C2.8266 12.9713 2.00971 14.7313 0.576627 15.943C0.210111 16.2567 0 16.7127 0 17.1952C0 18.1044 0.739627 18.844 1.64885 18.844H17.1952C18.1044 18.844 18.844 18.1044 18.844 17.1952C18.844 16.7127 18.6339 16.2567 18.2589 15.9354Z" fill="#F4F4F4"/>
<path d="M9.42197 22.6127C11.1283 22.6127 12.5557 21.3964 12.8836 19.7861H5.96033C6.28821 21.3964 7.71565 22.6127 9.42197 22.6127Z" fill="#F4F4F4"/>
</svg>
