<svg width="22" height="22" viewBox="0 0 22 22" fill="none" xmlns="http://www.w3.org/2000/svg">
<path d="M17.3284 21.4996C16.4134 21.4996 15.1281 21.1686 13.2034 20.0933C10.8629 18.7808 9.05262 17.5691 6.72481 15.2474C4.48044 13.0044 3.38825 11.5522 1.85965 8.77066C0.13278 5.63003 0.427155 3.98378 0.756217 3.28019C1.14809 2.43925 1.72653 1.93628 2.47419 1.43707C2.89885 1.15883 3.34825 0.920323 3.81669 0.724565C3.86356 0.704409 3.90715 0.68519 3.94606 0.667846C4.17809 0.563315 4.52965 0.405346 4.97497 0.574096C5.27215 0.685659 5.53747 0.91394 5.95278 1.3241C6.8045 2.1641 7.9684 4.03488 8.39778 4.95363C8.68606 5.57285 8.87684 5.9816 8.87731 6.44003C8.87731 6.97675 8.60731 7.39066 8.27965 7.83738C8.21825 7.92128 8.15731 8.00144 8.09825 8.07925C7.74153 8.548 7.66325 8.68347 7.71481 8.92535C7.81934 9.41144 8.59887 10.8585 9.87997 12.1368C11.1611 13.415 12.5664 14.1453 13.0543 14.2494C13.3065 14.3033 13.4448 14.2218 13.9286 13.8524C13.9979 13.7994 14.0692 13.7446 14.1437 13.6897C14.6434 13.318 15.0381 13.055 15.5622 13.055H15.565C16.0211 13.055 16.4115 13.2528 17.0584 13.5791C17.9022 14.0047 19.8292 15.1536 20.6743 16.0063C21.0854 16.4207 21.3147 16.685 21.4267 16.9818C21.5954 17.4285 21.4365 17.7786 21.3329 18.013C21.3156 18.0519 21.2964 18.0946 21.2762 18.1419C21.0789 18.6095 20.839 19.058 20.5595 19.4816C20.0612 20.2269 19.5564 20.8039 18.7136 21.1963C18.2808 21.401 17.8071 21.5047 17.3284 21.4996Z" fill="#B7B7B7"/>
</svg>
