<svg width="20" height="14" viewBox="0 0 20 14" fill="none" xmlns="http://www.w3.org/2000/svg">
<path d="M12.0347 3.47925H1.3335C0.884765 3.47925 0.520996 3.11548 0.520996 2.66675C0.520996 2.21802 0.884765 1.85425 1.3335 1.85425H12.0347C12.3693 0.907529 13.2722 0.229248 14.3335 0.229248C15.3948 0.229248 16.2977 0.907529 16.6323 1.85425H18.6668C19.1156 1.85425 19.4793 2.21802 19.4793 2.66675C19.4793 3.11548 19.1156 3.47925 18.6668 3.47925H16.6323C16.2977 4.42597 15.3948 5.10425 14.3335 5.10425C13.2722 5.10425 12.3693 4.42597 12.0347 3.47925Z" fill="#B7B7B7"/>
<path d="M18.6668 12.1459C19.1156 12.1459 19.4793 11.7821 19.4793 11.3334C19.4793 10.8847 19.1156 10.5209 18.6668 10.5209H7.96563C7.63101 9.5742 6.72813 8.89592 5.66683 8.89592C4.60553 8.89592 3.70264 9.5742 3.36803 10.5209H1.3335C0.884765 10.5209 0.520996 10.8847 0.520996 11.3334C0.520996 11.7821 0.884765 12.1459 1.3335 12.1459H3.36803C3.70264 13.0926 4.60553 13.7709 5.66683 13.7709C6.72813 13.7709 7.63101 13.0926 7.96563 12.1459H18.6668Z" fill="#B7B7B7"/>
</svg>
