<svg width="43" height="21" viewBox="0 0 43 21" fill="none" xmlns="http://www.w3.org/2000/svg">
<path d="M36.5373 7.89725H30.8059C30.4105 7.89725 30.0895 7.55356 30.0895 7.13013V2.51807C33.4101 5.15169 35.1889 5.23917 35.9963 5.01594C36.7608 4.80342 37.0659 4.21889 37.1369 4.05698C37.1677 3.8583 37.2078 3.64811 37.2537 3.43559V7.13022C37.2537 7.55365 36.9328 7.89725 36.5373 7.89725Z" fill="white"/>
<path d="M11.8986 12.4214C11.1026 12.2266 10.4242 11.711 9.99002 10.9707L9.36313 9.7394C10.6326 9.14795 10.8361 9.10498 10.9113 9.09113C11.1485 8.99988 12.0032 8.48206 13.1709 7.74245L13.1279 7.69642C12.8478 7.39642 12.8478 6.91087 13.1279 6.61168C13.4073 6.31168 13.8609 6.31168 14.1409 6.61168L14.4397 6.93083C15.0278 6.5519 15.6547 6.14447 16.2995 5.72257L16.1612 5.5745C15.8818 5.27531 15.8818 4.78967 16.1612 4.48976C16.4414 4.19058 16.8948 4.19058 17.1742 4.48976L17.5546 4.8971C18.0261 4.58569 18.4975 4.27418 18.9588 3.96735L18.837 3.83691C18.5569 3.53691 18.5569 3.05136 18.837 2.75217C19.1164 2.45226 19.5699 2.45226 19.85 2.75217L20.206 3.13344C22.0874 1.8707 23.6234 0.813559 24.0453 0.475264C25.7132 -0.868027 28.3094 1.03606 28.6455 1.29534C28.6491 1.2992 28.6526 1.30145 28.657 1.30531V2.28649L14.2061 12.0025C13.5141 12.4674 12.6952 12.6147 11.8986 12.4214Z" fill="white"/>
<path d="M2.87511 12.6695L3.20539 12.5353C4.41259 12.0451 5.66058 11.5372 6.84267 10.9557C7.29477 10.7325 7.69524 10.5369 8.05129 10.365L8.75408 11.7459C9.41389 12.8743 10.4098 13.6307 11.5796 13.9169C11.9149 13.999 12.253 14.0396 12.589 14.0396C13.4236 14.0396 14.2432 13.7888 14.9675 13.3016L18.3734 11.0125L23.3454 16.3357H25.3714L19.6178 10.1755L20.5735 9.53262L26.9274 16.3357H28.9534L21.8185 8.69574L22.7742 8.05367L30.5093 16.3358H32.5354L24.0188 7.21661L28.6569 4.09814V7.12994C28.6569 8.39961 29.6204 9.43139 30.8061 9.43139H36.5375C37.7224 9.43139 38.6868 8.39961 38.6868 7.12994V1.23589C38.7011 1.23202 38.7125 1.22285 38.7269 1.21899C39.7543 0.958906 40.5523 2.10118 40.6705 2.28224C44.4812 9.0539 42.6744 14.7216 41.7896 16.7338C42.0812 17.0146 42.2689 17.4181 42.2689 17.87V19.4035C42.2689 20.2497 41.6255 20.9378 40.836 20.9378L4.48706 20.937C4.47127 20.9378 4.39034 20.9431 4.2592 20.9431C3.66958 20.9431 2.08417 20.8372 1.01668 19.7733C0.347553 19.1059 0.00509644 18.2091 6.10352e-05 17.1075V17.1051V17.1028C0.000144958 15.0607 1.07477 13.4036 2.87511 12.6695ZM1.98964 18.6464C2.83641 19.4956 4.37892 19.4074 4.44054 19.4043L40.836 19.4035V17.87H40.7987H32.239H28.6569H25.0747H1.53611C1.62644 18.1769 1.77689 18.4338 1.98964 18.6464Z" fill="white"/>
</svg>
