<svg width="32" height="8" viewBox="0 0 32 8" fill="none" xmlns="http://www.w3.org/2000/svg">
<path d="M30.8284 1.17157C32.3905 2.73367 32.3905 5.26634 30.8284 6.82844C29.2663 8.39053 26.7337 8.39053 25.1716 6.82844C23.6095 5.26634 23.6095 2.73367 25.1716 1.17157C26.7337 -0.390524 29.2663 -0.390524 30.8284 1.17157Z" fill="#818181"/>
<path d="M18.8285 1.17157C20.3906 2.73367 20.3906 5.26634 18.8285 6.82844C17.2664 8.39053 14.7337 8.39053 13.1716 6.82844C11.6095 5.26634 11.6095 2.73367 13.1716 1.17157C14.7337 -0.390524 17.2664 -0.390524 18.8285 1.17157Z" fill="#818181"/>
<path d="M6.82844 1.17157C8.39053 2.73367 8.39053 5.26634 6.82844 6.82844C5.26634 8.39053 2.73367 8.39053 1.17157 6.82844C-0.390524 5.26634 -0.390524 2.73367 1.17157 1.17157C2.73367 -0.390524 5.26634 -0.390524 6.82844 1.17157Z" fill="#818181"/>
</svg>
