<svg width="20" height="24" viewBox="0 0 20 24" fill="none" xmlns="http://www.w3.org/2000/svg">
<path d="M17.27 7.14109L18.707 5.70472L17.293 4.29085L15.7557 5.82742C14.3514 4.83265 12.7127 4.21956 11 4.04821V1.99912H13V0H7V1.99912H9V4.04821C7.28734 4.21956 5.64858 4.83265 4.24425 5.82742L2.707 4.29085L1.293 5.70472L2.73 7.14109C1.38865 8.56066 0.492646 10.3419 0.152637 12.2647C-0.187371 14.1875 0.0435093 16.1678 0.816766 17.961C1.59002 19.7541 2.87179 21.2816 4.50378 22.3549C6.13576 23.4281 8.04649 24 10 24C11.9535 24 13.8642 23.4281 15.4962 22.3549C17.1282 21.2816 18.41 19.7541 19.1832 17.961C19.9565 16.1678 20.1874 14.1875 19.8474 12.2647C19.5074 10.3419 18.6113 8.56066 17.27 7.14109ZM10 21.9903C8.41775 21.9903 6.87103 21.5213 5.55544 20.6426C4.23985 19.764 3.21447 18.5151 2.60897 17.0539C2.00347 15.5928 1.84504 13.9849 2.15372 12.4338C2.4624 10.8826 3.22433 9.45778 4.34315 8.33945C5.46197 7.22113 6.88743 6.45954 8.43928 6.151C9.99113 5.84245 11.5997 6.00081 13.0615 6.60604C14.5233 7.21127 15.7727 8.2362 16.6518 9.55121C17.5308 10.8662 18 12.4123 18 13.9938C17.9976 16.1139 17.154 18.1464 15.6542 19.6455C14.1544 21.1446 12.121 21.9879 10 21.9903Z" fill="#F4F4F4"/>
<path d="M10 7.99658V13.9939H4C4 15.1801 4.35189 16.3396 5.01118 17.3259C5.67047 18.3121 6.60754 19.0808 7.7039 19.5347C8.80025 19.9887 10.0067 20.1074 11.1705 19.876C12.3344 19.6446 13.4035 19.0734 14.2426 18.2347C15.0817 17.3959 15.6532 16.3273 15.8847 15.1639C16.1162 14.0006 15.9974 12.7947 15.5433 11.6988C15.0891 10.603 14.3201 9.66631 13.3334 9.00732C12.3467 8.34832 11.1867 7.99658 10 7.99658Z" fill="#F4F4F4"/>
</svg>
