<svg width="39" height="50" viewBox="0 0 39 50" fill="none" xmlns="http://www.w3.org/2000/svg">
<path d="M35.3649 23.0455C34.8165 17.5234 31.7299 12.7537 27.2935 9.90179L24.8182 0H10.6364L8.15898 9.90988C3.25595 13.0633 0 18.5554 0 24.8182C0 31.0809 3.25584 36.5728 8.15898 39.7264L10.6364 49.6364H24.8182L27.2936 39.7345C31.7299 36.8824 34.8165 32.1127 35.3649 26.5909H39V23.0455H35.3649ZM17.7273 39C9.90733 39 3.54545 32.638 3.54545 24.8182C3.54545 16.9983 9.90733 10.6364 17.7273 10.6364C25.5472 10.6364 31.9091 16.9983 31.9091 24.8182C31.9091 32.638 25.5472 39 17.7273 39Z" fill="white"/>
<path d="M19.5 24.9546V15.9546H15.9546V26.0467L20.4288 32.5029L23.3274 30.498L19.5 24.9546Z" fill="white"/>
</svg>
