<svg width="12" height="11" viewBox="0 0 12 11" fill="none" xmlns="http://www.w3.org/2000/svg">
<path d="M11.9686 4.15628C11.8896 3.92385 11.6741 3.75929 11.4201 3.73731L7.95606 3.43649L6.58705 0.370622C6.48598 0.145376 6.25599 0 6.00001 0C5.74402 0 5.51395 0.145376 5.41351 0.370622L4.0445 3.43649L0.579911 3.73731C0.32594 3.75973 0.110879 3.92429 0.0314103 4.15628C-0.0476009 4.3887 0.0253677 4.64364 0.217448 4.80478L2.83599 7.0011L2.06391 10.2539C2.00742 10.493 2.10447 10.7403 2.31193 10.8838C2.42345 10.9613 2.55446 11 2.68593 11C2.79891 11 2.91198 10.9713 3.01296 10.9135L6.00001 9.20504L8.9865 10.9135C9.20559 11.0387 9.48108 11.0272 9.68808 10.8838C9.89554 10.7403 9.99259 10.493 9.9361 10.2539L9.16403 7.0011L11.7826 4.80478C11.9746 4.64364 12.0476 4.38923 11.9686 4.15628Z" fill="#F4F4F4"/>
</svg>
