<svg width="17" height="21" viewBox="0 0 17 21" fill="none" xmlns="http://www.w3.org/2000/svg">
<path d="M15.729 0H0.588955C0.263695 0 0 0.263695 0 0.588955V19.514C0 19.8393 0.263695 20.103 0.588955 20.103H15.729C16.0542 20.103 16.318 19.8393 16.318 19.514V0.588955C16.318 0.263695 16.0542 0 15.729 0ZM3.32669 9.63514C3.43628 9.5256 3.58819 9.46238 3.74332 9.46238C3.89798 9.46238 4.04993 9.5256 4.15951 9.63514C4.26902 9.74469 4.33184 9.89664 4.33184 10.0517C4.33184 10.2064 4.26902 10.3584 4.15951 10.4679C4.04993 10.5775 3.89802 10.6403 3.74332 10.6403C3.58819 10.6403 3.43628 10.5775 3.32669 10.4679C3.21718 10.3584 3.15436 10.2064 3.15436 10.0517C3.1544 9.89668 3.21718 9.74469 3.32669 9.63514ZM4.15951 16.7764C4.04993 16.886 3.89802 16.9488 3.74288 16.9488C3.58783 16.9488 3.43631 16.886 3.32669 16.7764C3.21718 16.6669 3.15436 16.5149 3.15436 16.3598C3.15436 16.2048 3.21718 16.0528 3.32669 15.9433C3.43628 15.8337 3.58779 15.7709 3.74288 15.7709C3.89802 15.7709 4.04993 15.8337 4.15951 15.9433C4.26902 16.0532 4.33184 16.2048 4.33184 16.3598C4.33184 16.5149 4.26902 16.6665 4.15951 16.7764ZM4.15951 13.622C4.04993 13.7315 3.89802 13.7947 3.74288 13.7947C3.58823 13.7947 3.43631 13.7315 3.32669 13.622C3.21718 13.5124 3.15436 13.3609 3.15436 13.2058C3.15436 13.0507 3.21718 12.8987 3.32669 12.7892C3.43628 12.6796 3.58819 12.6168 3.74288 12.6168C3.89802 12.6168 4.04993 12.6796 4.15951 12.7892C4.26902 12.8987 4.33227 13.0507 4.33227 13.2058C4.33231 13.3609 4.26902 13.5125 4.15951 13.622ZM6.4359 3.59726C6.72178 3.3115 7.10169 3.15417 7.50568 3.15417C7.73557 3.15417 7.9576 3.20509 8.15898 3.30164C8.36029 3.20513 8.58236 3.15417 8.81221 3.15417C9.21628 3.15417 9.59619 3.31153 9.88191 3.59726C10.4717 4.18704 10.4717 5.1468 9.88191 5.73665L8.57541 7.04315C8.46037 7.15815 8.30968 7.21568 8.15891 7.21568C8.00821 7.21568 7.85744 7.15815 7.74252 7.04315L6.43602 5.73665C5.84608 5.14687 5.84608 4.18715 6.4359 3.59726ZM12.5748 16.9488H7.52814C7.20284 16.9488 6.93918 16.6851 6.93918 16.3598C6.93918 16.0346 7.20284 15.7709 7.52814 15.7709H12.5748C12.9 15.7709 13.1638 16.0346 13.1638 16.3598C13.1638 16.6851 12.9001 16.9488 12.5748 16.9488ZM12.5748 13.7946H7.52814C7.20284 13.7946 6.93918 13.5309 6.93918 13.2056C6.93918 12.8804 7.20284 12.6167 7.52814 12.6167H12.5748C12.9 12.6167 13.1638 12.8804 13.1638 13.2056C13.1638 13.5309 12.9001 13.7946 12.5748 13.7946ZM12.5748 10.6404H7.52814C7.20284 10.6404 6.93918 10.3768 6.93918 10.0515C6.93918 9.72627 7.20284 9.46254 7.52814 9.46254H12.5748C12.9 9.46254 13.1638 9.72627 13.1638 10.0515C13.1638 10.3768 12.9001 10.6404 12.5748 10.6404Z" fill="#F4F4F4"/>
</svg>
