<svg xmlns="http://www.w3.org/2000/svg" width="50" height="50" viewBox="0 0 50 50">
    <defs>
        <filter id="lai8v2ge4a" width="50" height="50" x="0" y="0" filterUnits="userSpaceOnUse">
            <feOffset dy="3"/>
            <feGaussianBlur result="blur" stdDeviation="3"/>
            <feFlood flood-opacity=".161"/>
            <feComposite in2="blur" operator="in"/>
            <feComposite in="SourceGraphic"/>
        </filter>
    </defs>
    <g>
        <g filter="url(#lai8v2ge4a)" transform="translate(-16 -238) translate(16 238)">
            <circle cx="16" cy="16" r="16" fill="#fff" transform="translate(9 6)"/>
        </g>
        <g>
            <path fill="#555" d="M80.028 0a6.481 6.481 0 0 0-6.705 6.477c0 4.147 3.979 7.156 6.21 11.484a.306.306 0 0 0 .543 0c2.018-3.894 5.466-6.506 6.106-10.257A6.575 6.575 0 0 0 80.028 0zM79.8 9.876a3.395 3.395 0 1 1 3.4-3.395 3.395 3.395 0 0 1-3.4 3.395z" transform="translate(-16 -238) translate(-38.323 251)"/>
        </g>
    </g>
</svg>
