<svg width="19" height="20" viewBox="0 0 19 20" fill="none" xmlns="http://www.w3.org/2000/svg">
<path d="M18.2268 0.643128L18.2038 0.622179C17.7646 0.220976 17.1952 0 16.6006 0C15.934 0 15.294 0.282182 14.8446 0.774127L6.34738 10.0769C6.26993 10.1617 6.21118 10.2617 6.17486 10.3706L5.17571 13.3659C5.06019 13.7122 5.11817 14.0952 5.33078 14.3904C5.54508 14.6878 5.89033 14.8654 6.25439 14.8654H6.25445C6.41192 14.8654 6.56584 14.833 6.71182 14.7691L9.60475 13.5036C9.70993 13.4576 9.80429 13.39 9.88168 13.3052L18.379 4.00251C19.2632 3.03454 19.195 1.52763 18.2268 0.643128ZM7.09005 12.8126L7.67635 11.055L7.7258 11.0008L8.83702 12.0158L8.78758 12.0699L7.09005 12.8126ZM17.1674 2.89583L9.94371 10.8043L8.83248 9.78935L16.0562 1.88081C16.1975 1.72613 16.3909 1.64091 16.6007 1.64091C16.7847 1.64091 16.961 1.70939 17.0974 1.83399L17.1203 1.85494C17.4203 2.12892 17.4414 2.59587 17.1674 2.89583Z" fill="#818181"/>
<path d="M16.5783 7.56921C16.1252 7.56921 15.7578 7.93655 15.7578 8.38966V15.3552C15.7578 16.5057 14.8218 17.4417 13.6713 17.4417H3.72744C2.57689 17.4417 1.64091 16.5057 1.64091 15.3552V5.49209C1.64091 4.34159 2.57694 3.40556 3.72744 3.40556H10.9249C11.378 3.40556 11.7453 3.03821 11.7453 2.5851C11.7453 2.13199 11.378 1.76465 10.9249 1.76465H3.72744C1.67209 1.76465 0 3.43679 0 5.49209V15.3551C0 17.4104 1.67214 19.0826 3.72744 19.0826H13.6713C15.7265 19.0826 17.3987 17.4104 17.3987 15.3551V8.38966C17.3987 7.93655 17.0314 7.56921 16.5783 7.56921Z" fill="#818181"/>
</svg>
